<svg width="1440" height="1080" viewBox="0 0 1440 1080" fill="none" xmlns="http://www.w3.org/2000/svg">
<g clip-path="url(#clip0_619_2915)">
<rect width="1440" height="1080" fill="#FF6FFF"/>
<path d="M666.99 110.933L672.954 159.203L687.533 277.196L693.497 325.467L908.031 298.96L881.524 84.4257L666.99 110.933Z" fill="#FF88FF"/>
<path d="M-111.629 860.561L-105.665 908.831L-91.0861 1026.82L-85.122 1075.09L129.412 1048.59L102.905 834.054L-111.629 860.561Z" fill="#FF88FF"/>
<path d="M129.417 1048.59L135.381 1096.86L149.959 1214.85L155.923 1263.12L370.457 1236.62L343.95 1022.08L129.417 1048.59Z" fill="#FF88FF"/>
<path d="M1416.61 889.547L1422.57 937.817L1437.15 1055.81L1443.12 1104.08L1657.65 1077.57L1631.14 863.04L1416.61 889.547Z" fill="#FF88FF"/>
<path d="M1284.08 -183.121L1310.58 31.4128L1525.12 4.90592L1498.61 -209.628L1284.08 -183.121Z" fill="#FF88FF"/>
<path d="M-217.652 2.42676L-211.688 50.6969L-197.109 168.691L-191.145 216.961L23.3889 190.454L-3.11796 -24.0801L-217.652 2.42676Z" fill="#FF88FF"/>
<path d="M640.481 -103.601L646.445 -55.3305L661.024 62.6632L666.988 110.933L881.522 84.4264L855.015 -130.107L640.481 -103.601Z" fill="#FFAAFF"/>
<path d="M343.951 1022.08L349.915 1070.35L364.494 1188.35L370.458 1236.62L584.991 1210.11L558.485 995.575L343.951 1022.08Z" fill="#FFAAFF"/>
<path d="M1390.1 675.016L1396.07 723.286L1410.65 841.279L1416.61 889.55L1631.14 863.043L1604.64 648.509L1390.1 675.016Z" fill="#FFAAFF"/>
<path d="M1202.08 916.055L1208.04 964.325L1222.62 1082.32L1228.58 1130.59L1443.12 1104.08L1416.61 889.548L1202.08 916.055Z" fill="#FFAAFF"/>
<path d="M-138.071 646.52L-132.107 694.79L-117.528 812.783L-111.564 861.053L102.97 834.547L76.4631 620.013L-138.071 646.52Z" fill="#FFAAFF"/>
<path d="M-191.205 216.474L-185.241 264.744L-170.662 382.737L-164.698 431.008L49.8357 404.501L23.3288 189.967L-191.205 216.474Z" fill="#FFAAFF"/>
<path d="M773.019 969.068L778.983 1017.34L793.561 1135.33L799.525 1183.6L1014.06 1157.1L987.552 942.561L773.019 969.068Z" fill="#FFAAFF"/>
<path d="M1175.57 701.521L1181.53 749.792L1196.11 867.785L1202.08 916.055L1416.61 889.548L1390.1 675.015L1175.57 701.521Z" fill="#FFAAFF"/>
<path d="M480.976 25.5081C485.449 61.7061 518.415 87.435 554.628 82.9608C590.84 78.4865 616.554 45.5217 612.08 9.30943C607.606 -26.9028 574.641 -52.6175 538.429 -48.1433C502.217 -43.669 476.502 -10.7042 480.976 25.5081Z" fill="#FF88FF"/>
<path d="M581.594 -8.88149L586.938 34.374L589.123 52.0604L513.654 61.3851L511.469 43.6987L506.124 0.443203L503.939 -17.2432L579.408 -26.5679L581.594 -8.88149Z" fill="#FFAAFF"/>
<path d="M524.873 20.0849C526.349 32.0371 537.238 40.5438 549.204 39.0653C561.171 37.5868 569.663 26.6998 568.185 14.7334C566.706 2.76698 555.819 -5.72555 543.853 -4.24703C531.887 -2.76851 523.394 8.11847 524.873 20.0849Z" fill="#FF88FF"/>
<path d="M1418.63 563.084C1423.1 599.282 1456.06 625.011 1492.28 620.537C1528.49 616.063 1554.2 583.098 1549.73 546.886C1545.25 510.673 1512.29 484.959 1476.08 489.433C1439.87 493.907 1414.15 526.872 1418.63 563.084Z" fill="#FF88FF"/>
<path d="M1151.09 160.521C1155.56 196.719 1188.53 222.448 1224.74 217.973C1260.95 213.499 1286.67 180.534 1282.19 144.322C1277.72 108.11 1244.75 82.3952 1208.54 86.8694C1172.33 91.3437 1146.61 124.309 1151.09 160.521Z" fill="#FF88FF"/>
<path d="M1251.7 126.131L1257.05 169.387L1259.23 187.073L1183.76 196.398L1181.58 178.711L1176.24 135.456L1174.05 117.77L1249.52 108.445L1251.7 126.131Z" fill="#FFAAFF"/>
<path d="M131.432 722.126C135.905 758.324 168.871 784.053 205.084 779.579C241.296 775.105 267.01 742.14 262.536 705.928C258.062 669.715 225.097 644.001 188.885 648.475C152.673 652.949 126.958 685.914 131.432 722.126Z" fill="#FFAAFF"/>
<path d="M232.049 687.737L237.394 730.992L239.579 748.679L164.11 758.003L161.924 740.317L156.58 697.061L154.395 679.375L229.864 670.05L232.049 687.737Z" fill="#FF88FF"/>
<path d="M175.329 716.701C176.805 728.653 187.694 737.16 199.66 735.682C211.627 734.203 220.119 723.316 218.641 711.35C217.162 699.383 206.275 690.891 194.309 692.369C182.343 693.848 173.85 704.735 175.329 716.701Z" fill="#FFAAFF"/>
<path d="M178.976 258.179L184.32 301.435L186.505 319.121L111.036 328.446L108.851 310.759L103.506 267.504L101.321 249.817L176.79 240.493L178.976 258.179Z" fill="#FF88FF"/>
<path d="M122.254 287.145C123.731 299.098 134.62 307.604 146.586 306.126C158.553 304.647 167.045 293.76 165.567 281.794C164.088 269.828 153.201 261.335 141.235 262.814C129.268 264.292 120.776 275.179 122.254 287.145Z" fill="#FFAAFF"/>
<path d="M695.51 -0.998771C699.982 35.1993 732.949 60.9282 769.161 56.4539C805.373 51.9797 831.088 19.0148 826.614 -17.1974C822.14 -53.4097 789.175 -79.1243 752.963 -74.6501C716.75 -70.1759 691.036 -37.211 695.51 -0.998771Z" fill="#FF88FF"/>
<path d="M1037.17 152.638L1042.52 195.894L1044.7 213.58L969.231 222.905L967.046 205.218L961.701 161.963L959.516 144.276L1034.99 134.952L1037.17 152.638Z" fill="#FFAAFF"/>
<path d="M980.449 181.604C981.925 193.557 992.814 202.063 1004.78 200.585C1016.75 199.106 1025.24 188.219 1023.76 176.253C1022.28 164.287 1011.4 155.794 999.429 157.272C987.463 158.751 978.97 169.638 980.449 181.604Z" fill="#FF88FF"/>
<path d="M258.548 902.27L263.892 945.525L266.078 963.212L190.608 972.536L188.423 954.85L183.078 911.595L180.893 893.908L256.363 884.584L258.548 902.27Z" fill="#FFAAFF"/>
<path d="M201.826 931.234C203.303 943.186 214.192 951.693 226.158 950.215C238.124 948.736 246.617 937.849 245.138 925.883C243.66 913.916 232.773 905.424 220.807 906.902C208.84 908.381 200.348 919.268 201.826 931.234Z" fill="#FF88FF"/>
<path d="M-12.7076 957.742C-11.2308 969.694 -0.342053 978.201 11.6244 976.723C23.5908 975.244 32.0833 964.357 30.6048 952.391C29.1263 940.424 18.2393 931.932 6.27287 933.41C-5.69354 934.889 -14.1861 945.776 -12.7076 957.742Z" fill="#FFAAFF"/>
<path d="M17.52 714.241L22.8645 757.496L25.0497 775.182L-50.4198 784.507L-52.605 766.821L-57.9495 723.565L-60.1348 705.879L15.3348 696.554L17.52 714.241Z" fill="#FF88FF"/>
<path d="M-39.2017 743.205C-37.7249 755.157 -26.8362 763.664 -14.8698 762.185C-2.90338 760.707 5.58915 749.82 4.11064 737.854C2.63212 725.887 -8.25487 717.395 -20.2213 718.873C-32.1877 720.352 -40.6802 731.239 -39.2017 743.205Z" fill="#FFAAFF"/>
<path d="M1143.14 1010.29L1148.48 1053.54L1150.67 1071.23L1075.2 1080.55L1073.01 1062.87L1067.67 1019.61L1065.48 1001.93L1140.95 992.601L1143.14 1010.29Z" fill="#FF88FF"/>
<path d="M1086.42 1039.25C1087.89 1051.2 1098.78 1059.71 1110.75 1058.23C1122.71 1056.75 1131.21 1045.87 1129.73 1033.9C1128.25 1021.93 1117.36 1013.44 1105.4 1014.92C1093.43 1016.4 1084.94 1027.29 1086.42 1039.25Z" fill="#FFAAFF"/>
<path d="M-109.609 534.096C-105.137 570.294 -72.1702 596.023 -35.9579 591.549C0.254341 587.074 25.9689 554.11 21.4947 517.897C17.0205 481.685 -15.9443 455.97 -52.1566 460.445C-88.3688 464.919 -114.083 497.884 -109.609 534.096Z" fill="#FF88FF"/>
<path d="M551.379 234.618C552.856 246.57 563.745 255.077 575.711 253.599C587.678 252.12 596.17 241.233 594.692 229.267C593.213 217.3 582.326 208.808 570.36 210.286C558.393 211.765 549.901 222.652 551.379 234.618Z" fill="#FF88FF"/>
<path d="M871.883 1065.76C873.36 1077.71 884.248 1086.22 896.215 1084.74C908.181 1083.26 916.674 1072.37 915.195 1060.41C913.717 1048.44 902.83 1039.95 890.863 1041.43C878.897 1042.91 870.404 1053.79 871.883 1065.76Z" fill="#FF88FF"/>
<path d="M211.412 -50.5869L217.376 -2.31679L231.954 115.677L237.919 163.947L452.452 137.44L425.946 -77.0938L211.412 -50.5869Z" fill="#FF88FF"/>
<path d="M-3.12012 -24.0801L2.84393 24.19L17.4227 142.184L23.3868 190.454L237.921 163.947L211.414 -50.587L-3.12012 -24.0801Z" fill="#FFAAFF"/>
<path d="M95.8071 73.0986C97.2839 85.0507 108.173 93.5575 120.139 92.079C132.105 90.6005 140.598 79.7135 139.119 67.7471C137.641 55.7807 126.754 47.2881 114.788 48.7666C102.821 50.2452 94.3286 61.1321 95.8071 73.0986Z" fill="#FF88FF"/>
<path d="M310.341 46.5917C311.818 58.5439 322.706 67.0507 334.673 65.5721C346.639 64.0936 355.132 53.2066 353.653 41.2402C352.175 29.2738 341.288 20.7813 329.321 22.2598C317.355 23.7383 308.862 34.6253 310.341 46.5917Z" fill="#FFAAFF"/>
<path d="M765.915 208.111C767.392 220.063 778.281 228.57 790.247 227.092C802.214 225.613 810.706 214.726 809.228 202.76C807.749 190.793 796.862 182.301 784.896 183.779C772.93 185.258 764.437 196.145 765.915 208.111Z" fill="#FFAAFF"/>
<path d="M1251.09 1019.4L1265.32 951.088L1364.01 938.895L1394.23 1001.71L1380.21 1070L1281.52 1082.19L1251.09 1019.4Z" fill="#FF88FF"/>
<path d="M1284.59 1013.65L1284.98 1016.82C1287.56 1037.74 1306.61 1052.6 1327.53 1050.01C1348.44 1047.43 1363.3 1028.38 1360.72 1007.46L1360.32 1004.29C1357.74 983.373 1338.69 968.514 1317.78 971.098C1296.86 973.683 1282 992.73 1284.59 1013.65Z" fill="#FFAAFF"/>
<path d="M1298.93 1013.49L1303.64 990.842L1336.36 986.799L1346.37 1007.63L1341.73 1030.26L1309.01 1034.3L1298.93 1013.49Z" fill="#FF88FF"/>
<path d="M392.963 1125.43L407.196 1057.12L505.882 1044.92L536.099 1107.74L522.08 1176.03L423.395 1188.22L392.963 1125.43Z" fill="#FF88FF"/>
<path d="M317.439 807.549L323.403 855.819L337.982 973.813L343.946 1022.08L558.48 995.576L531.973 781.042L317.439 807.549Z" fill="#FF88FF"/>
<path d="M693.495 325.468L699.459 373.738L714.038 491.732L720.002 540.002L934.536 513.495L908.029 298.961L693.495 325.468Z" fill="#FFAAFF"/>
<path d="M290.937 593.016L296.901 641.286L311.479 759.279L317.443 807.55L531.977 781.043L505.47 566.509L290.937 593.016Z" fill="#FFAAFF"/>
<path d="M237.862 163.459L243.826 211.729L258.405 329.723L264.369 377.993L478.903 351.486L452.396 136.952L237.862 163.459Z" fill="#FFAAFF"/>
<path d="M505.466 566.509L511.43 614.779L526.009 732.773L531.973 781.043L746.507 754.536L720 540.002L505.466 566.509Z" fill="#FFAAFF"/>
<path d="M661.049 634.235L666.394 677.49L668.579 695.177L593.11 704.501L590.924 686.815L585.58 643.559L583.395 625.873L658.864 616.548L661.049 634.235Z" fill="#FF88FF"/>
<path d="M604.328 663.199C605.804 675.151 616.693 683.658 628.66 682.18C640.626 680.701 649.118 669.814 647.64 657.848C646.161 645.881 635.274 637.389 623.308 638.867C611.342 640.346 602.849 651.233 604.328 663.199Z" fill="#FFAAFF"/>
<path d="M533.921 454.089C538.394 490.287 571.36 516.016 607.572 511.542C643.785 507.068 669.499 474.103 665.025 437.89C660.551 401.678 627.586 375.964 591.374 380.438C555.161 384.912 529.447 417.877 533.921 454.089Z" fill="#FF88FF"/>
<path d="M818.869 636.691C820.346 648.644 831.235 657.15 843.201 655.672C855.167 654.193 863.66 643.306 862.181 631.34C860.703 619.373 849.816 610.881 837.85 612.359C825.883 613.838 817.391 624.725 818.869 636.691Z" fill="#FF88FF"/>
<path d="M451.831 573.138L453.322 585.205L456.966 614.703L458.457 626.771L512.093 620.144L505.466 566.511L451.831 573.138Z" fill="#FFAAFF"/>
<path d="M404.822 633.398L406.313 645.466L409.957 674.964L411.448 687.032L465.084 680.405L458.458 626.771L404.822 633.398Z" fill="#FFAAFF"/>
<path d="M398.195 579.765L399.686 591.832L403.331 621.33L404.822 633.398L458.457 626.771L451.831 573.138L398.195 579.765Z" fill="#FFAAFF"/>
<path d="M458.457 626.771L459.948 638.839L463.593 668.337L465.084 680.405L518.72 673.778L512.093 620.144L458.457 626.771Z" fill="#FFAAFF"/>
<path d="M398.756 143.581L400.247 155.649L403.892 185.147L405.383 197.214L459.018 190.587L452.392 136.954L398.756 143.581Z" fill="#FFAAFF"/>
<path d="M351.747 203.842L353.238 215.909L356.883 245.408L358.374 257.475L412.01 250.848L405.383 197.215L351.747 203.842Z" fill="#FFAAFF"/>
<path d="M345.121 150.208L346.612 162.275L350.256 191.774L351.747 203.841L405.383 197.214L398.756 143.581L345.121 150.208Z" fill="#FFAAFF"/>
<path d="M405.383 197.214L406.874 209.281L410.519 238.78L412.01 250.847L465.645 244.22L459.019 190.587L405.383 197.214Z" fill="#FFAAFF"/>
<path d="M742.449 428.325L756.682 360.014L855.367 347.821L885.584 410.64L871.566 478.924L772.88 491.118L742.449 428.325Z" fill="#FF88FF"/>
<path d="M775.945 422.574L776.337 425.75C778.922 446.666 797.969 461.524 818.885 458.94C839.801 456.356 854.66 437.308 852.075 416.392L851.683 413.216C849.099 392.3 830.051 377.442 809.135 380.026C788.219 382.61 773.361 401.658 775.945 422.574Z" fill="#FFAAFF"/>
<path d="M790.29 422.415L795.001 399.77L827.72 395.727L837.73 416.553L833.09 439.19L800.371 443.232L790.29 422.415Z" fill="#FF88FF"/>
<path d="M962.997 401.074C967.47 437.272 1000.44 463.001 1036.65 458.527C1072.86 454.053 1098.58 421.088 1094.1 384.876C1089.63 348.664 1056.66 322.949 1020.45 327.423C984.238 331.897 958.523 364.862 962.997 401.074Z" fill="#FFAAFF"/>
<path d="M1363.6 460.48L1369.57 508.751L1384.15 626.744L1390.11 675.014L1604.64 648.507L1578.14 433.974L1363.6 460.48Z" fill="#FFAAFF"/>
<path d="M1418.57 562.598C1423.04 598.796 1456 624.525 1492.22 620.051C1528.43 615.576 1554.14 582.612 1549.67 546.399C1545.19 510.187 1512.23 484.472 1476.02 488.947C1439.81 493.421 1414.09 526.386 1418.57 562.598Z" fill="#FF88FF"/>
<path d="M1090.12 581.22L1095.47 624.476L1097.65 642.162L1022.18 651.487L1020 633.8L1014.65 590.545L1012.47 572.858L1087.94 563.534L1090.12 581.22Z" fill="#FF88FF"/>
<path d="M1033.4 610.186C1034.88 622.139 1045.77 630.645 1057.73 629.167C1069.7 627.688 1078.19 616.801 1076.71 604.835C1075.24 592.869 1064.35 584.376 1052.38 585.855C1040.42 587.333 1031.92 598.22 1033.4 610.186Z" fill="#FFAAFF"/>
<g style="mix-blend-mode:soft-light">
<rect x="-76.6157" width="1838.41" height="1228.13" fill="url(#paint0_linear_619_2915)"/>
</g>
</g>
<defs>
<linearGradient id="paint0_linear_619_2915" x1="842.591" y1="0" x2="842.591" y2="1228.13" gradientUnits="userSpaceOnUse">
<stop stop-color="#F7F7F7"/>
<stop offset="1" stop-color="#3C3C3C"/>
</linearGradient>
<clipPath id="clip0_619_2915">
<rect width="1440" height="1080" fill="white"/>
</clipPath>
</defs>
</svg>
