<svg xmlns="http://www.w3.org/2000/svg" version="1.1" xmlns:xlink="http://www.w3.org/1999/xlink" xmlns:svgjs="http://svgjs.dev/svgjs" width="128" height="128"><svg width="128" height="128" viewBox="0 0 128 128" fill="none" xmlns="http://www.w3.org/2000/svg">
<path fill-rule="evenodd" clip-rule="evenodd" d="M79.6013 38.0444L38.2546 78.8715C37.7214 77.8496 37.2404 76.7856 36.8093 75.6818C35.3651 71.9721 34.643 68.0362 34.643 63.8798C34.643 59.7197 35.3651 55.7854 36.8093 52.0757C38.2546 48.3648 40.2569 45.145 42.8174 42.4122C45.3774 39.6814 48.4542 37.5213 52.0457 35.9305C55.6388 34.3414 59.5812 33.546 63.8747 33.546C68.1698 33.546 72.1338 34.3612 75.7655 35.9933C77.1156 36.5989 78.3942 37.282 79.6013 38.0444ZM75.9523 92.0711C72.3596 93.6619 68.4169 94.4555 64.1234 94.4555C59.8287 94.4555 55.8647 93.6406 52.2314 92.01C50.8824 91.4028 49.6042 90.7197 48.3991 89.9554L89.7438 49.1319C90.2766 50.1518 90.758 51.2146 91.1892 52.32C92.6329 56.0297 93.3554 59.9652 93.3554 64.1237C93.3554 68.2822 92.6329 72.2164 91.1892 75.9277C89.7438 79.637 87.7415 82.8564 85.1811 85.5876C82.621 88.3188 79.5459 90.4802 75.9523 92.0711ZM82.2084 104.73C87.7415 102.365 92.5313 99.1653 96.5773 95.1269C100.623 91.0926 103.76 86.3828 105.99 81.002C108.221 75.6207 109.336 69.9128 109.336 63.8798C109.336 57.8451 108.221 52.1368 105.99 46.7539C104.668 43.5626 103.04 40.6152 101.108 37.9109L128 11.3579L117.314 0.806641L90.3401 27.4404C87.9187 25.8101 85.2896 24.4008 82.4555 23.211C76.922 20.8876 70.8122 19.7243 64.1234 19.7243C57.4338 19.7243 51.3236 20.9074 45.7905 23.2721C40.2569 25.6368 35.4672 28.8365 31.4212 32.8728C27.3748 36.9092 24.2361 41.619 22.0068 46.9998C19.7775 52.3815 18.6628 58.089 18.6628 64.1237C18.6628 70.1567 19.7775 75.863 22.0068 81.2463C23.3308 84.4392 24.9582 87.3862 26.8902 90.0925L0 116.642L10.6858 127.193L37.6579 100.561C40.0797 102.192 42.7085 103.601 45.5426 104.791C51.0765 107.114 57.1867 108.276 63.8747 108.276C70.5643 108.276 76.6744 107.093 82.2084 104.73Z" fill="black"></path>
</svg><style>@media (prefers-color-scheme: light) { :root { filter: none; } }
@media (prefers-color-scheme: dark) { :root { filter: none; } }
</style></svg>