<svg width="2388" height="960" viewBox="0 0 2388 960" fill="none" xmlns="http://www.w3.org/2000/svg">
<g clip-path="url(#clip0_41_678)">
<rect width="2388" height="960" fill="#191919"/>
<path d="M701.255 138.275H406.664V432.864H701.255V138.275Z" fill="#262626"/>
<path d="M1337.5 449.742H1042.91V744.331H1337.5V449.742Z" fill="#262626"/>
<path d="M2283.86 908.56C2283.86 827.212 2217.91 761.266 2136.57 761.266V761.266C2055.22 761.266 1989.27 827.212 1989.27 908.56V908.56C1989.27 989.909 2055.22 1055.85 2136.57 1055.85V1055.85C2217.91 1055.85 2283.86 989.909 2283.86 908.56V908.56Z" fill="#262626"/>
<path d="M1019.38 761.268H724.785V1055.86H1019.38V761.268Z" fill="#262626"/>
<path d="M2609.98 449.867H2315.39V744.456H2609.98V449.867Z" fill="#262626"/>
<path d="M1019.38 -173.316H724.785V121.273H1019.38V-173.316Z" fill="#262626"/>
<path d="M1973.74 -173.316H1679.15V121.273H1973.74V-173.316Z" fill="#FF66FF"/>
<path d="M774.204 138.272L709.254 285.539L774.204 432.801H969.955L1034.91 285.539L969.955 138.272H774.204Z" fill="#262626"/>
<path d="M2038.69 138.272L1973.74 285.539L2038.69 432.801H2234.44L2299.39 285.539L2234.44 138.272H2038.69Z" fill="#262626"/>
<path d="M1410.45 449.802L1345.5 597.068L1410.45 744.331H1606.2L1671.15 597.068L1606.2 449.802H1410.45Z" fill="#262626"/>
<path d="M137.964 761.419L73.0135 908.685L137.964 1055.95H333.715L398.665 908.685L333.715 761.419H137.964Z" fill="#262626"/>
<path d="M701.255 597.16C701.255 515.814 635.313 449.864 553.96 449.864C472.614 449.864 406.664 515.814 406.664 597.16C406.664 678.513 472.614 744.456 553.96 744.456C635.313 744.456 701.255 678.513 701.255 597.16Z" fill="#0061FF"/>
<path d="M1655.62 -26.0208C1655.62 -107.366 1589.68 -173.316 1508.32 -173.316C1426.98 -173.316 1361.03 -107.366 1361.03 -26.0208C1361.03 55.3325 1426.98 121.275 1508.32 121.275C1589.68 121.275 1655.62 55.3325 1655.62 -26.0208Z" fill="#262626"/>
<path d="M2609.98 -26.0208C2609.98 -107.366 2544.04 -173.316 2462.69 -173.316C2381.34 -173.316 2315.39 -107.366 2315.39 -26.0208C2315.39 55.3325 2381.34 121.275 2462.69 121.275C2544.04 121.275 2609.98 55.3325 2609.98 -26.0208Z" fill="#262626"/>
<path d="M383.135 -26.0208C383.135 -107.366 317.193 -173.316 235.839 -173.316C154.494 -173.316 88.5437 -107.366 88.5437 -26.0208C88.5437 55.3325 154.494 121.275 235.839 121.275C317.193 121.275 383.135 55.3325 383.135 -26.0208Z" fill="#262626"/>
<path d="M1337.5 908.561C1337.5 827.216 1271.56 761.266 1190.2 761.266C1108.86 761.266 1042.91 827.216 1042.91 908.561C1042.91 989.915 1108.86 1055.86 1190.2 1055.86C1271.56 1055.86 1337.5 989.915 1337.5 908.561Z" fill="#262626"/>
<path d="M1973.74 597.16C1973.74 515.814 1907.8 449.864 1826.44 449.864C1745.1 449.864 1679.15 515.814 1679.15 597.16C1679.15 678.513 1745.1 744.456 1826.44 744.456C1907.8 744.456 1973.74 678.513 1973.74 597.16Z" fill="#262626"/>
<path d="M1655.62 285.506C1655.62 204.16 1589.68 138.21 1508.32 138.21C1426.98 138.21 1361.03 204.16 1361.03 285.506C1361.03 366.859 1426.98 432.801 1508.32 432.801C1589.68 432.801 1655.62 366.859 1655.62 285.506Z" fill="#262626"/>
<rect x="495.285" y="227.295" width="117.344" height="117.344" rx="58.6719" fill="#191919"/>
<rect x="1767.77" y="-84.6924" width="117.344" height="117.344" rx="58.6719" fill="#191919"/>
<rect x="1131.53" y="538.488" width="117.344" height="117.344" fill="#191919"/>
<rect x="2077.89" y="850.012" width="117.344" height="117.344" fill="#191919"/>
<path d="M1469.66 227.295L1444 285.475L1469.66 343.654H1546.99L1572.65 285.475L1546.99 227.295H1469.66Z" fill="#191919"/>
<path d="M515.293 538.98L489.633 597.161L515.293 655.34H592.628L618.287 597.161L592.628 538.98H515.293Z" fill="#191919"/>
<path d="M1473.7 916.674C1473.7 912.315 1472.42 908.596 1469.86 905.519C1467.29 902.185 1463.96 900.518 1459.85 900.518C1455.24 900.518 1451.14 902.698 1447.55 907.058L1401.38 961.296L1354.84 914.751L1508.32 761.268L1661.81 914.751L1615.65 960.912L1569.49 907.058C1566.15 902.955 1562.18 900.903 1557.56 900.903C1553.46 900.903 1550.12 902.442 1547.56 905.519C1544.74 908.34 1543.33 911.93 1543.33 916.29L1543.33 1055.86L1473.7 1055.86L1473.7 916.674Z" fill="#FFC900"/>
<path d="M270.459 293.586C270.459 289.226 271.741 285.508 274.306 282.43C276.87 279.096 280.204 277.429 284.307 277.429C288.923 277.429 293.026 279.609 296.617 283.969L342.777 338.207L389.322 291.662L235.839 138.179L82.355 291.662L128.515 337.823L174.676 283.969C178.01 279.866 181.985 277.814 186.601 277.814C190.704 277.814 194.038 279.353 196.602 282.43C199.423 285.251 200.834 288.841 200.834 293.201L200.834 432.771L270.459 432.771L270.459 293.586Z" fill="#262626"/>
</g>
<defs>
<clipPath id="clip0_41_678">
<rect width="2388" height="960" fill="white"/>
</clipPath>
</defs>
</svg>
