<svg width="2848" height="960" viewBox="0 0 2848 960" fill="none" xmlns="http://www.w3.org/2000/svg">
<g clip-path="url(#clip0_403_471)">
<rect width="2848" height="960" fill="#F1F1F1"/>
<path d="M247.708 845.453C247.708 781.881 196.172 730.347 132.601 730.347V730.347C69.0299 730.347 17.4943 781.881 17.4943 845.453V845.453C17.4943 909.024 69.0299 960.559 132.601 960.559V960.559C196.172 960.559 247.708 909.024 247.708 845.453V845.453Z" fill="#E5E5E5"/>
<path d="M1038.6 243.499H808.39V473.711H1038.6V243.499Z" fill="#E5E5E5"/>
<path d="M1535.81 486.901H1305.59V717.113H1535.81V486.901Z" fill="#E5E5E5"/>
<path d="M2275.36 845.453C2275.36 781.881 2223.83 730.347 2160.25 730.347V730.347C2096.68 730.347 2045.15 781.881 2045.15 845.453V845.453C2045.15 909.024 2096.68 960.559 2160.25 960.559V960.559C2223.83 960.559 2275.36 909.024 2275.36 845.453V845.453Z" fill="#E5E5E5"/>
<path d="M1287.21 730.348H1056.99V960.56H1287.21V730.348Z" fill="#E5E5E5"/>
<path d="M2530.21 486.999H2300V717.211H2530.21V486.999Z" fill="#E5E5E5"/>
<path d="M2772.21 0H2542V230.212H2772.21V0Z" fill="#E5E5E5"/>
<path d="M248.214 0H18V230.212H248.214V0Z" fill="#E5E5E5"/>
<path d="M1287.21 0H1056.99V230.212H1287.21V0Z" fill="#E5E5E5"/>
<path d="M2033.01 0H1802.8V230.212H2033.01V0Z" fill="#E5E5E5"/>
<path d="M1095.61 243.497L1044.85 358.581L1095.61 473.662H1248.58L1299.34 358.581L1248.58 243.497H1095.61Z" fill="#E5E5E5"/>
<path d="M2083.77 244L2033.01 359.084L2083.77 474.165H2236.74L2287.5 359.084L2236.74 244H2083.77Z" fill="#E5E5E5"/>
<path d="M1592.81 486.947L1542.06 602.031L1592.81 717.112H1745.79L1796.54 602.031L1745.79 486.947H1592.81Z" fill="#E5E5E5"/>
<path d="M598.409 730.466L547.653 845.55L598.409 960.631H751.383L802.139 845.55L751.383 730.466H598.409Z" fill="#E5E5E5"/>
<path d="M1038.6 602.103C1038.6 538.534 987.072 486.996 923.497 486.996C859.928 486.996 808.39 538.534 808.39 602.103C808.39 665.678 859.928 717.21 923.497 717.21C987.072 717.21 1038.6 665.678 1038.6 602.103Z" fill="#F1F1F1"/>
<path d="M1784.41 115.107C1784.41 51.5379 1732.88 0 1669.3 0C1605.73 0 1554.2 51.5379 1554.2 115.107C1554.2 178.682 1605.73 230.214 1669.3 230.214C1732.88 230.214 1784.41 178.682 1784.41 115.107Z" fill="#E5E5E5"/>
<path d="M2530.21 359.107C2530.21 295.538 2478.68 244 2415.11 244C2351.54 244 2300 295.538 2300 359.107C2300 422.682 2351.54 474.214 2415.11 474.214C2478.68 474.214 2530.21 422.682 2530.21 359.107Z" fill="#E5E5E5"/>
<path d="M790.003 115.107C790.003 51.5379 738.471 0 674.896 0C611.327 0 559.789 51.5379 559.789 115.107C559.789 178.682 611.327 230.214 674.896 230.214C738.471 230.214 790.003 178.682 790.003 115.107Z" fill="#E5E5E5"/>
<path d="M1535.81 845.454C1535.81 781.885 1484.28 730.347 1420.7 730.347C1357.13 730.347 1305.59 781.885 1305.59 845.454C1305.59 909.029 1357.13 960.561 1420.7 960.561C1484.28 960.561 1535.81 909.029 1535.81 845.454Z" fill="#E5E5E5"/>
<path d="M2033.01 602.103C2033.01 538.534 1981.48 486.996 1917.9 486.996C1854.33 486.996 1802.8 538.534 1802.8 602.103C1802.8 665.678 1854.33 717.21 1917.9 717.21C1981.48 717.21 2033.01 665.678 2033.01 602.103Z" fill="#E5E5E5"/>
<path d="M1784.41 358.555C1784.41 294.986 1732.88 243.448 1669.3 243.448C1605.73 243.448 1554.2 294.986 1554.2 358.555C1554.2 422.13 1605.73 473.662 1669.3 473.662C1732.88 473.662 1784.41 422.13 1784.41 358.555Z" fill="#E5E5E5"/>
<rect x="877.645" y="313.065" width="91.7005" height="91.7005" rx="45.8502" fill="#F1F1F1"/>
<rect x="1872.05" y="69.2568" width="91.7005" height="91.7005" rx="45.8502" fill="#F1F1F1"/>
<rect x="1374.85" y="556.253" width="91.7005" height="91.7005" fill="#F1F1F1"/>
<rect x="2114.4" y="799.699" width="91.7005" height="91.7005" fill="#F1F1F1"/>
<path d="M1639.08 313.065L1619.03 358.532L1639.08 403.996H1699.52L1719.57 358.532L1699.52 313.065H1639.08Z" fill="#F1F1F1"/>
<path d="M893.28 556.638L873.228 602.104L893.28 647.569H953.715L973.767 602.104L953.715 556.638H893.28Z" fill="#F1F1F1"/>
<path d="M1696.36 851.794C1696.36 848.387 1697.36 845.481 1699.36 843.076C1701.37 840.471 1703.97 839.168 1707.18 839.168C1710.79 839.168 1713.99 840.872 1716.8 844.279L1752.87 886.664L1789.24 850.291L1669.3 730.348L1549.36 850.291L1585.43 886.364L1621.51 844.279C1624.11 841.072 1627.22 839.469 1630.82 839.469C1634.03 839.469 1636.64 840.671 1638.64 843.076C1640.84 845.281 1641.95 848.086 1641.95 851.493L1641.95 960.563L1696.36 960.563L1696.36 851.794Z" fill="#E5E5E5"/>
<path d="M701.95 364.869C701.95 361.462 702.952 358.556 704.956 356.151C706.96 353.546 709.565 352.244 712.772 352.244C716.379 352.244 719.586 353.947 722.391 357.354L758.464 399.74L794.838 363.366L674.895 243.423L554.953 363.366L591.026 399.439L627.099 357.354C629.704 354.147 632.81 352.544 636.417 352.544C639.624 352.544 642.229 353.747 644.233 356.151C646.438 358.356 647.54 361.162 647.54 364.568L647.54 473.638L701.95 473.638L701.95 364.869Z" fill="#E5E5E5"/>
<path d="M547.214 486.999H317V717.211H547.214V486.999Z" fill="#E5E5E5"/>
<path d="M56.1146 243.497L5.35791 358.581L56.1146 473.662H209.088L259.844 358.581L209.088 243.497H56.1146Z" fill="#E5E5E5"/>
<rect x="86.7518" y="799.699" width="91.7005" height="91.7005" fill="#F1F1F1"/>
<path d="M3020.95 243.499H2790.74V473.711H3020.95V243.499Z" fill="#E5E5E5"/>
<path d="M2580.76 730.466L2530 845.55L2580.76 960.631H2733.73L2784.49 845.55L2733.73 730.466H2580.76Z" fill="#E5E5E5"/>
<path d="M3020.95 602.103C3020.95 538.534 2969.42 486.996 2905.84 486.996C2842.28 486.996 2790.74 538.534 2790.74 602.103C2790.74 665.678 2842.28 717.21 2905.84 717.21C2969.42 717.21 3020.95 665.678 3020.95 602.103Z" fill="#F1F1F1"/>
<path d="M2684.3 608.446C2684.3 605.039 2685.3 602.133 2687.3 599.728C2689.31 597.123 2691.91 595.82 2695.12 595.82C2698.73 595.82 2701.93 597.524 2704.74 600.931L2740.81 643.316L2777.19 606.943L2657.24 487L2537.3 606.943L2573.37 643.016L2609.45 600.931C2612.05 597.724 2615.16 596.121 2618.76 596.121C2621.97 596.121 2624.58 597.323 2626.58 599.728C2628.79 601.933 2629.89 604.738 2629.89 608.145L2629.89 717.214L2684.3 717.214L2684.3 608.446Z" fill="#E5E5E5"/>
</g>
<defs>
<clipPath id="clip0_403_471">
<rect width="2848" height="960" fill="white"/>
</clipPath>
</defs>
</svg>
