<svg width="276" height="74" viewBox="0 0 276 74" fill="none" xmlns="http://www.w3.org/2000/svg">
<path d="M9.72239 11.3494C10.0112 11.2006 10.3538 11.2006 10.6426 11.3494L12.4167 12.2636C12.5442 12.3294 12.6843 12.367 12.8275 12.374L14.8196 12.472C15.1439 12.488 15.4406 12.6598 15.6165 12.9335L16.6972 14.615C16.7749 14.7358 16.8774 14.8387 16.9979 14.9166L18.6744 16.0005C18.9472 16.177 19.1185 16.4746 19.1344 16.7998L19.2321 18.798C19.2391 18.9416 19.2767 19.0821 19.3422 19.21L20.2537 20.9894C20.402 21.2791 20.4021 21.6227 20.2537 21.9124L19.3422 23.6918C19.2767 23.8198 19.2391 23.9602 19.2321 24.1039L19.1344 26.102C19.1185 26.4273 18.9472 26.7249 18.6744 26.9013L16.9979 27.9853C16.8774 28.0632 16.7749 28.166 16.6972 28.2869L15.6165 29.9684C15.4406 30.2421 15.1439 30.4139 14.8196 30.4298L12.8275 30.5278C12.6843 30.5348 12.5442 30.5725 12.4167 30.6382L10.6426 31.5524C10.3538 31.7013 10.0112 31.7013 9.72239 31.5524L7.94828 30.6382C7.82076 30.5725 7.6807 30.5348 7.5375 30.5278L5.54533 30.4298C5.22105 30.4139 4.92434 30.2421 4.74843 29.9684L3.66776 28.2869C3.59007 28.166 3.48755 28.0632 3.36704 27.9853L1.69061 26.9013C1.41772 26.7249 1.24642 26.4273 1.23052 26.102L1.13284 24.1039C1.12582 23.9602 1.08829 23.8198 1.02277 23.6918L0.111278 21.9124C-0.0370925 21.6227 -0.0370928 21.2791 0.111278 20.9894L1.02277 19.21C1.08829 19.0821 1.12582 18.9416 1.13284 18.798L1.23052 16.7998C1.24642 16.4746 1.41772 16.177 1.69061 16.0005L3.36704 14.9166C3.48755 14.8387 3.59007 14.7358 3.66776 14.615L4.74843 12.9335C4.92434 12.6598 5.22105 12.488 5.54533 12.472L7.5375 12.374C7.6807 12.367 7.82075 12.3294 7.94828 12.2636L9.72239 11.3494Z" fill="black"/>
<path d="M130.946 60.7171C131.348 60.2538 132.065 60.2538 132.466 60.7171L133.262 61.6355C133.49 61.8985 133.836 62.0251 134.18 61.9705L135.378 61.7799C135.982 61.6838 136.531 62.1462 136.542 62.7599L136.563 63.9763C136.569 64.3247 136.753 64.6453 137.051 64.8247L138.091 65.451C138.616 65.767 138.74 66.4755 138.355 66.9524L137.591 67.8977C137.373 68.1684 137.309 68.533 137.422 68.8624L137.817 70.0126C138.016 70.5929 137.658 71.2159 137.057 71.3329L135.866 71.5648C135.525 71.6312 135.242 71.8691 135.118 72.1944L134.684 73.3303C134.464 73.9034 133.79 74.1495 133.255 73.8518L132.195 73.2617C131.891 73.0927 131.522 73.0927 131.218 73.2617L130.157 73.8518C129.622 74.1495 128.948 73.9034 128.729 73.3303L128.294 72.1944C128.17 71.8691 127.887 71.6312 127.546 71.5648L126.356 71.3329C125.755 71.2159 125.396 70.5929 125.596 70.0126L125.991 68.8624C126.104 68.533 126.04 68.1684 125.821 67.8977L125.058 66.9524C124.672 66.4755 124.797 65.767 125.322 65.451L126.361 64.8247C126.659 64.6453 126.844 64.3247 126.85 63.9763L126.871 62.7599C126.881 62.1462 127.431 61.6838 128.035 61.7799L129.233 61.9705C129.576 62.0251 129.923 61.8985 130.151 61.6355L130.946 60.7171Z" fill="black"/>
<path fill-rule="evenodd" clip-rule="evenodd" d="M61.8956 33.9016C60.0748 34.6581 58.1422 35.101 56.1793 35.214L56.1793 26.3837C56.1793 26.3834 56.1792 26.3835 56.1792 26.3835C56.1792 26.3836 56.1792 26.3836 56.1794 26.3832C56.1801 26.3815 56.1836 26.3742 56.1938 26.3636C56.2164 26.3399 56.257 26.3161 56.3072 26.3095C57.0644 26.21 57.807 26.0111 58.5155 25.7167C59.5754 25.2764 60.5384 24.631 61.3496 23.8173C62.1608 23.0037 62.8043 22.0378 63.2433 20.9747C63.5368 20.264 63.7351 19.5192 63.8343 18.7597C63.8409 18.7094 63.8646 18.6687 63.8882 18.646C63.8988 18.6357 63.9061 18.6322 63.9078 18.6315C63.9082 18.6314 63.9082 18.6313 63.9081 18.6313C63.9081 18.6314 63.908 18.6314 63.9083 18.6314L72.7121 18.6314C72.5994 20.6002 72.1579 22.5386 71.4036 24.365C70.5207 26.5029 69.2266 28.4455 67.5953 30.0818C65.9639 31.7181 64.0271 33.016 61.8956 33.9016Z" fill="black"/>
<path fill-rule="evenodd" clip-rule="evenodd" d="M61.8956 71.1638C60.0748 71.9203 58.1422 72.3632 56.1793 72.4762L56.1793 63.6459C56.1793 63.6456 56.1792 63.6457 56.1792 63.6457C56.1792 63.6458 56.1792 63.6458 56.1794 63.6454C56.1801 63.6437 56.1836 63.6364 56.1938 63.6258C56.2164 63.6021 56.257 63.5783 56.3072 63.5717C57.0644 63.4722 57.807 63.2733 58.5155 62.9789C59.5754 62.5386 60.5384 61.8932 61.3496 61.0796C62.1608 60.2659 62.8043 59.3 63.2433 58.2369C63.5368 57.5262 63.7351 56.7814 63.8343 56.0219C63.8409 55.9716 63.8646 55.9309 63.8882 55.9082C63.8988 55.898 63.9061 55.8944 63.9078 55.8937C63.9082 55.8936 63.9082 55.8935 63.9081 55.8936C63.9081 55.8936 63.908 55.8936 63.9083 55.8936L72.7121 55.8936C72.5994 57.8625 72.1579 59.8008 71.4036 61.6272C70.5207 63.7651 69.2266 65.7077 67.5953 67.344C65.9639 68.9803 64.0271 70.2782 61.8956 71.1638Z" fill="black"/>
<path fill-rule="evenodd" clip-rule="evenodd" d="M71.4036 10.8778C72.1579 12.7042 72.5994 14.6425 72.7121 16.6114H63.9083C63.9077 16.6114 63.9086 16.6116 63.9078 16.6113C63.9061 16.6105 63.8988 16.607 63.8882 16.5968C63.8646 16.5741 63.8409 16.5334 63.8343 16.4831C63.7351 15.7236 63.5368 14.9788 63.2433 14.2681C62.8043 13.205 62.1608 12.2391 61.3496 11.4254C60.5384 10.6118 59.5754 9.9664 58.5155 9.52606C57.807 9.23168 57.0644 9.03281 56.3072 8.93332C56.257 8.92672 56.2164 8.90287 56.1938 8.87924C56.1836 8.86861 56.1801 8.86127 56.1794 8.85955C56.1792 8.8592 56.1792 8.85922 56.1792 8.85926C56.1792 8.85931 56.1793 8.85939 56.1793 8.85908V0.0288086C58.1422 0.141819 60.0748 0.58469 61.8956 1.3412C64.0271 2.22675 65.9639 3.52473 67.5953 5.16102C69.2266 6.79731 70.5207 8.73988 71.4036 10.8778Z" fill="black"/>
<path fill-rule="evenodd" clip-rule="evenodd" d="M208.262 70.8147C205.888 71.8012 203.362 72.3643 200.8 72.4814L200.8 60.9732C200.8 60.9727 200.8 60.9727 200.8 60.9728C200.8 60.9729 200.8 60.9729 200.8 60.9728C200.8 60.9716 200.803 60.9657 200.811 60.9571C200.83 60.9379 200.863 60.9192 200.903 60.915C201.919 60.808 202.916 60.5548 203.863 60.1613C205.153 59.6253 206.325 58.8396 207.313 57.8492C208.3 56.8588 209.083 55.6829 209.618 54.3889C210.01 53.439 210.262 52.4391 210.369 51.4205C210.373 51.38 210.392 51.3471 210.411 51.3286C210.42 51.3202 210.426 51.3175 210.427 51.3169C210.427 51.3169 210.427 51.3169 210.427 51.3169C210.427 51.3169 210.427 51.3169 210.427 51.3169L221.901 51.3169C221.784 53.8871 221.223 56.42 220.239 58.8016C219.127 61.4947 217.497 63.9417 215.442 66.0029C213.387 68.0641 210.947 69.6992 208.262 70.8147Z" fill="black"/>
<path fill-rule="evenodd" clip-rule="evenodd" d="M191.302 70.8147C193.677 71.8012 196.202 72.3643 198.764 72.4814L198.764 60.9732C198.764 60.9727 198.765 60.9727 198.765 60.9728C198.765 60.9729 198.765 60.9729 198.764 60.9728C198.764 60.9716 198.761 60.9657 198.753 60.9571C198.734 60.9379 198.702 60.9192 198.661 60.915C197.646 60.808 196.649 60.5548 195.702 60.1613C194.412 59.6253 193.239 58.8396 192.252 57.8492C191.264 56.8588 190.481 55.6829 189.947 54.3889C189.554 53.439 189.302 52.4391 189.195 51.4205C189.191 51.38 189.172 51.3471 189.153 51.3286C189.145 51.3202 189.139 51.3175 189.138 51.3169C189.137 51.3169 189.138 51.3169 189.138 51.3169C189.138 51.3169 189.138 51.3169 189.137 51.3169L177.664 51.3169C177.78 53.8871 178.342 56.42 179.325 58.8016C180.437 61.4947 182.068 63.9417 184.123 66.0029C186.178 68.0641 188.617 69.6992 191.302 70.8147Z" fill="black"/>
<path fill-rule="evenodd" clip-rule="evenodd" d="M71.4036 48.14C72.1579 49.9664 72.5994 51.9047 72.7121 53.8736H63.9083C63.9077 53.8736 63.9086 53.8738 63.9078 53.8735C63.9061 53.8728 63.8988 53.8692 63.8882 53.859C63.8646 53.8363 63.8409 53.7956 63.8343 53.7453C63.7351 52.9858 63.5368 52.241 63.2433 51.5303C62.8043 50.4672 62.1608 49.5013 61.3496 48.6877C60.5384 47.874 59.5754 47.2286 58.5155 46.7883C57.807 46.4939 57.0644 46.295 56.3072 46.1955C56.257 46.1889 56.2164 46.1651 56.1938 46.1414C56.1836 46.1308 56.1801 46.1235 56.1794 46.1218C56.1792 46.1214 56.1792 46.1214 56.1792 46.1215C56.1792 46.1215 56.1793 46.1216 56.1793 46.1213V37.291C58.1422 37.404 60.0748 37.8469 61.8956 38.6034C64.0271 39.489 65.9639 40.7869 67.5953 42.4232C69.2266 44.0595 70.5207 46.0021 71.4036 48.14Z" fill="black"/>
<path fill-rule="evenodd" clip-rule="evenodd" d="M221.924 49.2972L210.506 49.2972L210.506 30.9766L221.924 30.9766L221.924 49.2972Z" fill="black"/>
<path fill-rule="evenodd" clip-rule="evenodd" d="M189.082 49.2972L177.663 49.2972L177.663 30.9766L189.082 30.9766L189.082 49.2972Z" fill="black"/>
<path fill-rule="evenodd" clip-rule="evenodd" d="M5.0752 36.2808H15.2903V72.5047H5.0752V36.2808Z" fill="black"/>
<path fill-rule="evenodd" clip-rule="evenodd" d="M145.677 41.2637H155.892V72.5619H145.677L145.677 41.2637Z" fill="black"/>
<path fill-rule="evenodd" clip-rule="evenodd" d="M145.677 10.4019H155.892V28.9574L145.677 28.9574L145.677 10.4019Z" fill="black"/>
<path fill-rule="evenodd" clip-rule="evenodd" d="M54.1632 8.79618V4.01015e-06L28.9352 0V8.79618L54.1632 8.79618ZM33.0695 5.71643C33.7955 5.71643 34.384 5.12613 34.384 4.39796C34.384 3.66978 33.7955 3.07948 33.0695 3.07948C32.3435 3.07948 31.755 3.66978 31.755 4.39796C31.755 5.12613 32.3435 5.71643 33.0695 5.71643Z" fill="black"/>
<path fill-rule="evenodd" clip-rule="evenodd" d="M54.1632 72.5047V63.7085L28.9352 63.7085V72.5047L54.1632 72.5047ZM33.0695 69.4252C33.7955 69.4252 34.384 68.8349 34.384 68.1067C34.384 67.3785 33.7955 66.7882 33.0695 66.7882C32.3435 66.7882 31.755 67.3785 31.755 68.1067C31.755 68.8349 32.3435 69.4252 33.0695 69.4252Z" fill="black"/>
<path fill-rule="evenodd" clip-rule="evenodd" d="M54.1632 46.0584V37.2622L28.9352 37.2622V46.0584L54.1632 46.0584ZM33.0695 42.9996C33.7955 42.9996 34.384 42.4093 34.384 41.6811C34.384 40.9529 33.7955 40.3626 33.0695 40.3626C32.3435 40.3626 31.755 40.9529 31.755 41.6811C31.755 42.4093 32.3435 42.9996 33.0695 42.9996Z" fill="black"/>
<path fill-rule="evenodd" clip-rule="evenodd" d="M54.1632 35.2425V26.4463H28.9352V35.2425L54.1632 35.2425ZM33.0695 32.163C33.7955 32.163 34.384 31.5727 34.384 30.8445C34.384 30.1163 33.7955 29.526 33.0695 29.526C32.3435 29.526 31.755 30.1163 31.755 30.8445C31.755 31.5727 32.3435 32.163 33.0695 32.163Z" fill="black"/>
<path fill-rule="evenodd" clip-rule="evenodd" d="M179.37 8.38187L143.031 8.38186C140.755 8.38186 138.91 6.53121 138.91 4.2483C138.91 1.9654 140.755 0.114746 143.031 0.114746H179.37C181.646 0.114746 183.491 1.9654 183.491 4.24831C183.491 6.53121 181.646 8.38187 179.37 8.38187ZM144.155 4.24841C144.155 4.97659 143.566 5.56689 142.84 5.56689C142.114 5.56689 141.526 4.97659 141.526 4.24841C141.526 3.52024 142.114 2.92994 142.84 2.92994C143.566 2.92994 144.155 3.52024 144.155 4.24841ZM178.935 5.56689C179.661 5.56689 180.249 4.97659 180.249 4.24841C180.249 3.52024 179.661 2.92994 178.935 2.92994C178.209 2.92994 177.62 3.52024 177.62 4.24841C177.62 4.97659 178.209 5.56689 178.935 5.56689Z" fill="black"/>
<path fill-rule="evenodd" clip-rule="evenodd" d="M241.464 72.5044H229.79L229.79 22.1074H241.464L241.464 30.7838L239.664 28.9783C239.271 28.5839 238.634 28.5839 238.24 28.9783L231.503 35.7361C231.11 36.1305 231.11 36.7699 231.503 37.1642L241.464 47.1557L241.464 72.5044ZM238.952 29.6923L241.464 32.2119V32.2122L264.321 55.138L264.321 27.9643C264.321 24.7297 266.936 22.1074 270.161 22.1074C273.386 22.1074 276 24.7296 276 27.9643V68.1431C276 71.3778 273.386 74 270.161 74C267.115 74 264.615 71.6619 264.345 68.6778L232.214 36.4502L238.952 29.6923L238.952 29.6924L238.952 29.6923ZM238.644 37.69C239.369 37.69 239.958 37.0997 239.958 36.3715C239.958 35.6433 239.369 35.053 238.644 35.053C237.918 35.053 237.329 35.6433 237.329 36.3715C237.329 37.0997 237.918 37.69 238.644 37.69ZM271.475 67.2043C271.475 67.9325 270.886 68.5228 270.16 68.5228C269.434 68.5228 268.846 67.9325 268.846 67.2043C268.846 66.4761 269.434 65.8858 270.16 65.8858C270.886 65.8858 271.475 66.4761 271.475 67.2043ZM270.16 29.7372C270.886 29.7372 271.475 29.1469 271.475 28.4187C271.475 27.6906 270.886 27.1003 270.16 27.1003C269.434 27.1003 268.846 27.6906 268.846 28.4187C268.846 29.1469 269.434 29.7372 270.16 29.7372Z" fill="black"/>
<path fill-rule="evenodd" clip-rule="evenodd" d="M166.706 39.1275L143.031 39.1275C140.755 39.1275 138.91 37.2768 138.91 34.9939C138.91 32.711 140.755 30.8604 143.031 30.8604H166.706C168.982 30.8604 170.827 32.711 170.827 34.9939C170.827 37.2768 168.982 39.1275 166.706 39.1275ZM144.155 34.994C144.155 35.7222 143.566 36.3125 142.84 36.3125C142.114 36.3125 141.526 35.7222 141.526 34.994C141.526 34.2658 142.114 33.6755 142.84 33.6755C143.566 33.6755 144.155 34.2658 144.155 34.994ZM166.313 36.3125C167.039 36.3125 167.627 35.7222 167.627 34.994C167.627 34.2658 167.039 33.6755 166.313 33.6755C165.587 33.6755 164.998 34.2658 164.998 34.994C164.998 35.7222 165.587 36.3125 166.313 36.3125Z" fill="black"/>
<path fill-rule="evenodd" clip-rule="evenodd" d="M104.945 18.3223C100.961 18.2544 97.0074 19.0715 93.3685 20.7199C89.4234 22.5071 85.9643 25.2191 83.2826 28.6275C80.6009 32.0358 78.7752 36.0407 77.9592 40.3047C77.1432 44.5687 77.3609 48.967 78.594 53.129C78.9379 54.29 79.3581 55.4232 79.8504 56.5215L88.293 51.6324C88.1343 51.2168 87.9913 50.7943 87.8644 50.366C87.0728 47.6941 86.933 44.8706 87.4569 42.1332C87.9807 39.3958 89.1528 36.8247 90.8744 34.6367C92.5959 32.4486 94.8166 30.7076 97.3493 29.5603C99.5567 28.5603 101.945 28.0369 104.359 28.019C104.383 28.0188 104.403 28.0095 104.415 27.9984C104.419 27.9942 104.421 27.991 104.422 27.9899L104.422 27.9893L104.945 18.3223ZM89.1258 53.4822L80.7459 58.3349C81.9036 60.4745 83.3476 62.4554 85.0443 64.22C88.0494 67.3452 91.7593 69.7002 95.8615 71.0867C99.9637 72.4731 104.338 72.8504 108.616 72.1867C112.562 71.5745 116.319 70.0933 119.62 67.8544L113.918 60.0426L113.918 60.0422L113.915 60.041L113.913 60.0402C113.912 60.04 113.911 60.0397 113.91 60.0395C113.909 60.0393 113.908 60.0391 113.907 60.039C113.891 60.0363 113.869 60.0393 113.849 60.0523C111.817 61.3597 109.531 62.2292 107.138 62.6005C104.391 63.0266 101.583 62.7844 98.9497 61.8943C96.3162 61.0043 93.9345 59.4924 92.0053 57.4861C90.8566 56.2915 89.8883 54.9424 89.1258 53.4822Z" fill="black"/>
</svg>
