<svg width="285" height="82" viewBox="0 0 285 82" fill="none" xmlns="http://www.w3.org/2000/svg">
<mask id="path-1-inside-1_74_2" fill="white">
<path d="M55.869 35.9002C55.869 36.4525 56.317 36.9031 56.8685 36.8732C58.9498 36.7602 60.9994 36.2953 62.9295 35.4958C65.168 34.5686 67.2019 33.2096 68.9152 31.4963C70.6284 29.7831 71.9875 27.7492 72.9147 25.5107C73.7141 23.5805 74.1791 21.5309 74.292 19.4497C74.3219 18.8982 73.8714 18.4501 73.3191 18.4501L64.5459 18.4501C63.9937 18.4501 63.5526 18.8997 63.4809 19.4473C63.3937 20.1127 63.2195 20.7653 62.9616 21.388C62.5758 22.3194 62.0103 23.1657 61.2974 23.8786C60.5845 24.5914 59.7382 25.1569 58.8068 25.5427C58.1841 25.8006 57.5316 25.9749 56.8662 26.0621C56.3185 26.1338 55.869 26.5748 55.869 27.1271L55.869 35.9002Z"/>
</mask>
<path d="M55.869 35.9002C55.869 36.4525 56.317 36.9031 56.8685 36.8732C58.9498 36.7602 60.9994 36.2953 62.9295 35.4958C65.168 34.5686 67.2019 33.2096 68.9152 31.4963C70.6284 29.7831 71.9875 27.7492 72.9147 25.5107C73.7141 23.5805 74.1791 21.5309 74.292 19.4497C74.3219 18.8982 73.8714 18.4501 73.3191 18.4501L64.5459 18.4501C63.9937 18.4501 63.5526 18.8997 63.4809 19.4473C63.3937 20.1127 63.2195 20.7653 62.9616 21.388C62.5758 22.3194 62.0103 23.1657 61.2974 23.8786C60.5845 24.5914 59.7382 25.1569 58.8068 25.5427C58.1841 25.8006 57.5316 25.9749 56.8662 26.0621C56.3185 26.1338 55.869 26.5748 55.869 27.1271L55.869 35.9002Z" fill="black" stroke="#F6F3E1" stroke-width="2" mask="url(#path-1-inside-1_74_2)"/>
<mask id="path-2-inside-2_74_2" fill="white">
<path d="M183.536 50.8192C182.984 50.8192 182.534 51.2672 182.558 51.8189C182.674 54.4956 183.258 57.1339 184.286 59.6139C185.44 62.4021 187.133 64.9356 189.267 67.0696C191.401 69.2037 193.935 70.8965 196.723 72.0514C199.203 73.0787 201.841 73.6625 204.518 73.779C205.07 73.8031 205.518 73.3531 205.518 72.8008L205.518 61.3817C205.518 60.8294 205.069 60.3871 204.52 60.3295C203.606 60.2336 202.71 60.0065 201.858 59.6538C200.698 59.1732 199.644 58.4689 198.756 57.5809C197.868 56.693 197.164 55.6388 196.683 54.4786C196.33 53.6271 196.103 52.7307 196.008 51.8174C195.95 51.2682 195.508 50.8192 194.955 50.8192L183.536 50.8192Z"/>
</mask>
<path d="M183.536 50.8192C182.984 50.8192 182.534 51.2672 182.558 51.8189C182.674 54.4956 183.258 57.1339 184.286 59.6139C185.44 62.4021 187.133 64.9356 189.267 67.0696C191.401 69.2037 193.935 70.8965 196.723 72.0514C199.203 73.0787 201.841 73.6625 204.518 73.779C205.07 73.8031 205.518 73.3531 205.518 72.8008L205.518 61.3817C205.518 60.8294 205.069 60.3871 204.52 60.3295C203.606 60.2336 202.71 60.0065 201.858 59.6538C200.698 59.1732 199.644 58.4689 198.756 57.5809C197.868 56.693 197.164 55.6388 196.683 54.4786C196.33 53.6271 196.103 52.7307 196.008 51.8174C195.95 51.2682 195.508 50.8192 194.955 50.8192L183.536 50.8192Z" fill="black" stroke="#F6F3E1" stroke-width="2" mask="url(#path-2-inside-2_74_2)"/>
<mask id="path-3-inside-3_74_2" fill="white">
<path d="M55.869 72.8006C55.869 73.3529 56.317 73.8035 56.8685 73.7735C58.9498 73.6606 60.9994 73.1957 62.9295 72.3962C65.168 71.469 67.2019 70.11 68.9152 68.3967C70.6284 66.6835 71.9875 64.6495 72.9147 62.4111C73.7141 60.4809 74.1791 58.4313 74.292 56.35C74.3219 55.7986 73.8714 55.3505 73.3191 55.3505L64.5459 55.3505C63.9937 55.3505 63.5526 55.8001 63.4809 56.3477C63.3937 57.0131 63.2195 57.6657 62.9616 58.2884C62.5758 59.2198 62.0103 60.0661 61.2974 60.7789C60.5845 61.4918 59.7382 62.0573 58.8068 62.4431C58.1841 62.701 57.5316 62.8753 56.8662 62.9624C56.3185 63.0342 55.869 63.4752 55.869 64.0275L55.869 72.8006Z"/>
</mask>
<path d="M55.869 72.8006C55.869 73.3529 56.317 73.8035 56.8685 73.7735C58.9498 73.6606 60.9994 73.1957 62.9295 72.3962C65.168 71.469 67.2019 70.11 68.9152 68.3967C70.6284 66.6835 71.9875 64.6495 72.9147 62.4111C73.7141 60.4809 74.1791 58.4313 74.292 56.35C74.3219 55.7986 73.8714 55.3505 73.3191 55.3505L64.5459 55.3505C63.9937 55.3505 63.5526 55.8001 63.4809 56.3477C63.3937 57.0131 63.2195 57.6657 62.9616 58.2884C62.5758 59.2198 62.0103 60.0661 61.2974 60.7789C60.5845 61.4918 59.7382 62.0573 58.8068 62.4431C58.1841 62.701 57.5316 62.8753 56.8662 62.9624C56.3185 63.0342 55.869 63.4752 55.869 64.0275L55.869 72.8006Z" fill="black" stroke="#F6F3E1" stroke-width="2" mask="url(#path-3-inside-3_74_2)"/>
<mask id="path-4-inside-4_74_2" fill="white">
<path d="M106.308 19.1799C106.338 18.6284 105.915 18.1552 105.362 18.1451C101.245 18.0696 97.1581 18.9089 93.3976 20.6073C89.333 22.443 85.7691 25.2288 83.0062 28.7298C80.2433 32.2309 78.3622 36.3447 77.5216 40.7246C76.6809 45.1046 76.9052 49.6225 78.1755 53.8977C79.4459 58.1729 81.7251 62.0801 84.8212 65.2903C87.9173 68.5004 91.7396 70.9195 95.9661 72.3436C100.192 73.7678 104.699 74.1553 109.107 73.4736C113.185 72.8429 117.067 71.314 120.475 69.0024C120.932 68.6924 121.028 68.0651 120.701 67.6194L115.027 59.8685C114.701 59.4229 114.077 59.329 113.612 59.6271C111.711 60.8466 109.572 61.6577 107.333 62.0041C104.763 62.4015 102.136 62.1756 99.6721 61.3453C97.2082 60.5151 94.9799 59.1049 93.1749 57.2334C91.37 55.362 90.0413 53.0842 89.3007 50.5918C88.5601 48.0995 88.4293 45.4657 88.9194 42.9123C89.4095 40.3589 90.5061 37.9607 92.1168 35.9196C93.7275 33.8786 95.8051 32.2546 98.1747 31.1844C100.24 30.2517 102.474 29.7634 104.733 29.7467C105.285 29.7427 105.757 29.3231 105.787 28.7716L106.308 19.1799Z"/>
</mask>
<path d="M106.308 19.1799C106.338 18.6284 105.915 18.1552 105.362 18.1451C101.245 18.0696 97.1581 18.9089 93.3976 20.6073C89.333 22.443 85.7691 25.2288 83.0062 28.7298C80.2433 32.2309 78.3622 36.3447 77.5216 40.7246C76.6809 45.1046 76.9052 49.6225 78.1755 53.8977C79.4459 58.1729 81.7251 62.0801 84.8212 65.2903C87.9173 68.5004 91.7396 70.9195 95.9661 72.3436C100.192 73.7678 104.699 74.1553 109.107 73.4736C113.185 72.8429 117.067 71.314 120.475 69.0024C120.932 68.6924 121.028 68.0651 120.701 67.6194L115.027 59.8685C114.701 59.4229 114.077 59.329 113.612 59.6271C111.711 60.8466 109.572 61.6577 107.333 62.0041C104.763 62.4015 102.136 62.1756 99.6721 61.3453C97.2082 60.5151 94.9799 59.1049 93.1749 57.2334C91.37 55.362 90.0413 53.0842 89.3007 50.5918C88.5601 48.0995 88.4293 45.4657 88.9194 42.9123C89.4095 40.3589 90.5061 37.9607 92.1168 35.9196C93.7275 33.8786 95.8051 32.2546 98.1747 31.1844C100.24 30.2517 102.474 29.7634 104.733 29.7467C105.285 29.7427 105.757 29.3231 105.787 28.7716L106.308 19.1799Z" fill="black" stroke="#F6F3E1" stroke-width="2" mask="url(#path-4-inside-4_74_2)"/>
<mask id="path-5-inside-5_74_2" fill="white">
<path d="M73.3211 18.4501C73.8734 18.4501 74.324 18.0021 74.2941 17.4506C74.1811 15.3693 73.7162 13.3197 72.9167 11.3896C71.9895 9.15109 70.6305 7.11717 68.9172 5.40392C67.204 3.69066 65.17 2.33164 62.9316 1.40443C61.0014 0.604945 58.9518 0.14001 56.8705 0.0270934C56.3191 -0.00282588 55.871 0.447715 55.871 1L55.871 9.77315C55.871 10.3254 56.3206 10.7665 56.8682 10.8382C57.5336 10.9254 58.1862 11.0996 58.8089 11.3575C59.7403 11.7433 60.5866 12.3088 61.2995 13.0217C62.0123 13.7346 62.5778 14.5809 62.9636 15.5123C63.2215 16.135 63.3958 16.7875 63.483 17.4529C63.5547 18.0005 63.9957 18.4501 64.548 18.4501L73.3211 18.4501Z"/>
</mask>
<path d="M73.3211 18.4501C73.8734 18.4501 74.324 18.0021 74.2941 17.4506C74.1811 15.3693 73.7162 13.3197 72.9167 11.3896C71.9895 9.15109 70.6305 7.11717 68.9172 5.40392C67.204 3.69066 65.17 2.33164 62.9316 1.40443C61.0014 0.604945 58.9518 0.14001 56.8705 0.0270934C56.3191 -0.00282588 55.871 0.447715 55.871 1L55.871 9.77315C55.871 10.3254 56.3206 10.7665 56.8682 10.8382C57.5336 10.9254 58.1862 11.0996 58.8089 11.3575C59.7403 11.7433 60.5866 12.3088 61.2995 13.0217C62.0123 13.7346 62.5778 14.5809 62.9636 15.5123C63.2215 16.135 63.3958 16.7875 63.483 17.4529C63.5547 18.0005 63.9957 18.4501 64.548 18.4501L73.3211 18.4501Z" fill="black" stroke="#F6F3E1" stroke-width="2" mask="url(#path-5-inside-5_74_2)"/>
<mask id="path-6-inside-6_74_2" fill="white">
<path d="M205.518 72.8005C205.518 73.3528 205.966 73.8028 206.517 73.7787C209.194 73.6622 211.832 73.0784 214.312 72.0511C217.101 70.8962 219.634 69.2034 221.768 67.0693C223.902 64.9353 225.595 62.4018 226.75 59.6136C227.777 57.1336 228.361 54.4953 228.478 51.8187C228.502 51.2669 228.052 50.8189 227.499 50.8189L216.08 50.8189C215.528 50.8189 215.086 51.2679 215.028 51.8171C214.932 52.7304 214.705 53.6268 214.352 54.4783C213.872 55.6385 213.167 56.6927 212.279 57.5806C211.391 58.4686 210.337 59.1729 209.177 59.6535C208.326 60.0062 207.429 60.2333 206.516 60.3292C205.967 60.3868 205.518 60.8291 205.518 61.3814L205.518 72.8005Z"/>
</mask>
<path d="M205.518 72.8005C205.518 73.3528 205.966 73.8028 206.517 73.7787C209.194 73.6622 211.832 73.0784 214.312 72.0511C217.101 70.8962 219.634 69.2034 221.768 67.0693C223.902 64.9353 225.595 62.4018 226.75 59.6136C227.777 57.1336 228.361 54.4953 228.478 51.8187C228.502 51.2669 228.052 50.8189 227.499 50.8189L216.08 50.8189C215.528 50.8189 215.086 51.2679 215.028 51.8171C214.932 52.7304 214.705 53.6268 214.352 54.4783C213.872 55.6385 213.167 56.6927 212.279 57.5806C211.391 58.4686 210.337 59.1729 209.177 59.6535C208.326 60.0062 207.429 60.2333 206.516 60.3292C205.967 60.3868 205.518 60.8291 205.518 61.3814L205.518 72.8005Z" fill="black" stroke="#F6F3E1" stroke-width="2" mask="url(#path-6-inside-6_74_2)"/>
<mask id="path-7-inside-7_74_2" fill="white">
<path d="M73.3211 55.3505C73.8734 55.3505 74.324 54.9025 74.2941 54.351C74.1811 52.2697 73.7162 50.2201 72.9167 48.29C71.9895 46.0515 70.6305 44.0176 68.9172 42.3043C67.204 40.5911 65.17 39.232 62.9316 38.3048C61.0014 37.5053 58.9518 37.0404 56.8705 36.9275C56.3191 36.8976 55.871 37.3481 55.871 37.9004L55.871 46.6735C55.871 47.2258 56.3206 47.6668 56.8682 47.7386C57.5336 47.8258 58.1862 48 58.8089 48.2579C59.7403 48.6437 60.5866 49.2092 61.2995 49.9221C62.0123 50.6349 62.5778 51.4813 62.9636 52.4127C63.2215 53.0353 63.3958 53.6879 63.483 54.3533C63.5547 54.9009 63.9957 55.3505 64.548 55.3505L73.3211 55.3505Z"/>
</mask>
<path d="M73.3211 55.3505C73.8734 55.3505 74.324 54.9025 74.2941 54.351C74.1811 52.2697 73.7162 50.2201 72.9167 48.29C71.9895 46.0515 70.6305 44.0176 68.9172 42.3043C67.204 40.5911 65.17 39.232 62.9316 38.3048C61.0014 37.5053 58.9518 37.0404 56.8705 36.9275C56.3191 36.8976 55.871 37.3481 55.871 37.9004L55.871 46.6735C55.871 47.2258 56.3206 47.6668 56.8682 47.7386C57.5336 47.8258 58.1862 48 58.8089 48.2579C59.7403 48.6437 60.5866 49.2092 61.2995 49.9221C62.0123 50.6349 62.5778 51.4813 62.9636 52.4127C63.2215 53.0353 63.3958 53.6879 63.483 54.3533C63.5547 54.9009 63.9957 55.3505 64.548 55.3505L73.3211 55.3505Z" fill="black" stroke="#F6F3E1" stroke-width="2" mask="url(#path-7-inside-7_74_2)"/>
<rect x="55.3685" y="0.5" width="9.71071" height="26.0581" rx="0.5" transform="rotate(90 55.3685 0.5)" fill="black" stroke="#F6F3E1"/>
<rect x="227.999" y="50.3188" width="12.3413" height="19.1426" rx="0.5" transform="rotate(-180 227.999 50.3188)" fill="black" stroke="#F6F3E1"/>
<rect x="247.407" y="73.3003" width="12.5958" height="50.9074" rx="0.5" transform="rotate(-180 247.407 73.3003)" fill="black" stroke="#F6F3E1"/>
<rect x="280.41" y="65.6938" width="10.4642" height="50.9074" rx="0.5" transform="rotate(135 280.41 65.6938)" fill="black" stroke="#F6F3E1"/>
<rect x="283.975" y="73.3003" width="11.0827" height="59.6114" rx="0.5" transform="rotate(-180 283.975 73.3003)" fill="black" stroke="#F6F3E1"/>
<rect x="195.378" y="50.3188" width="12.3413" height="19.1426" rx="0.5" transform="rotate(-180 195.378 50.3188)" fill="black" stroke="#F6F3E1"/>
<rect x="55.3685" y="37.4004" width="9.71071" height="26.0581" rx="0.5" transform="rotate(90 55.3685 37.4004)" fill="black" stroke="#F6F3E1"/>
<rect x="55.3685" y="26.6895" width="9.71071" height="26.0581" rx="0.5" transform="rotate(90 55.3685 26.6895)" fill="black" stroke="#F6F3E1"/>
<rect x="55.3685" y="63.5898" width="9.71071" height="26.0581" rx="0.5" transform="rotate(90 55.3685 63.5898)" fill="black" stroke="#F6F3E1"/>
<rect x="5.60974" y="33.5752" width="11.1463" height="39.7255" rx="0.5" fill="black" stroke="#F6F3E1"/>
<rect x="145.266" y="41.3628" width="11.1463" height="31.9941" rx="0.5" fill="black" stroke="#F6F3E1"/>
<rect x="145.266" y="10.8008" width="11.1463" height="19.3752" rx="0.5" fill="black" stroke="#F6F3E1"/>
<rect x="177.102" y="31.1758" width="9.1868" height="31.837" rx="0.5" transform="rotate(90 177.102 31.1758)" fill="black" stroke="#F6F3E1"/>
<rect x="177.102" y="0.614258" width="9.1868" height="31.837" rx="0.5" transform="rotate(90 177.102 0.614258)" fill="black" stroke="#F6F3E1"/>
<circle cx="11.1821" cy="21.8931" r="10.6821" fill="black" stroke="#F6F3E1"/>
<circle cx="133.035" cy="66.069" r="7.28777" fill="black" stroke="#F6F3E1"/>
</svg>
