<svg width="1512" height="982" viewBox="0 0 1512 982" fill="none" xmlns="http://www.w3.org/2000/svg">
<g clip-path="url(#clip0_72_347)">
<rect width="1512" height="982" fill="#F6EFEF"/>
<path fill-rule="evenodd" clip-rule="evenodd" d="M25.0006 581.947C25.6028 578.812 25.9182 575.576 25.9182 572.266C25.9182 544.095 3.08168 521.259 -25.0886 521.259C-53.2588 521.259 -76.0953 544.095 -76.0953 572.266C-76.0953 575.576 -75.78 578.812 -75.1777 581.947C-70.6547 558.407 -49.9486 540.622 -25.0886 540.622C-0.228592 540.622 20.4775 558.407 25.0006 581.947Z" fill="#ECD9D9"/>
<path fill-rule="evenodd" clip-rule="evenodd" d="M10.6475 522.406C10.0831 519.794 9.26431 517.198 8.1784 514.648C-1.06252 492.95 -26.1439 482.851 -47.8424 492.092C-69.541 501.332 -79.6399 526.414 -70.3989 548.112C-69.313 550.662 -68.0084 553.052 -66.5163 555.269C-70.7545 535.653 -60.6394 515.161 -41.4907 507.006C-22.3419 498.851 -0.558617 505.758 10.6475 522.406Z" fill="#ECD9D9"/>
<rect x="325.974" y="824.958" width="47.4634" height="228.19" rx="1.5" fill="#E4A5B2" stroke="#F2EFEC"/>
<rect x="380.004" y="642.177" width="59.927" height="95.0616" rx="1.5" transform="rotate(90 380.004 642.177)" fill="#ECD9D9" stroke="#F2EFEC"/>
<rect x="121.083" y="733.567" width="29.1387" height="274.591" rx="14.5693" transform="rotate(90 121.083 733.567)" fill="#ECD9D9" stroke="#F2EFEC"/>
<rect x="121.083" y="703.104" width="29.1387" height="274.591" rx="14.5693" transform="rotate(90 121.083 703.104)" fill="#ECD9D9" stroke="#F2EFEC"/>
<rect x="121.083" y="672.965" width="29.1387" height="274.591" rx="14.5693" transform="rotate(90 121.083 672.965)" fill="#E4A5B2" stroke="#F2EFEC"/>
<rect x="424.502" y="703.104" width="59.927" height="184.126" rx="1.5" transform="rotate(90 424.502 703.104)" fill="#99CEFF" stroke="#F2EFEC"/>
<rect x="458.433" y="368.005" width="59.927" height="390.816" rx="1.5" transform="rotate(90 458.433 368.005)" fill="#ECD9D9" stroke="#F2EFEC"/>
<rect x="509.94" y="581.25" width="59.927" height="355.001" rx="1.5" transform="rotate(90 509.94 581.25)" fill="#ECD9D9" stroke="#F2EFEC"/>
<rect x="332.973" y="428.933" width="40.4644" height="151.092" rx="1.5" fill="#ECD9D9" stroke="#F2EFEC"/>
<rect x="291.509" y="428.933" width="40.4644" height="151.092" rx="1.5" fill="#ECD9D9" stroke="#F2EFEC"/>
<rect x="607.774" y="764.031" width="59.927" height="1225.22" rx="1.5" transform="rotate(90 607.774 764.031)" fill="#ECD9D9" stroke="#F2EFEC"/>
<rect x="395.004" y="534.322" width="45.703" height="45.703" rx="1.5" fill="#CD273C" stroke="#F2EFEC"/>
<rect x="166.262" y="92.4683" width="50.0193" height="218.757" rx="1.5" fill="#ECD9D9" stroke="#F2EFEC"/>
<rect x="217.281" y="92.4683" width="50.0193" height="218.757" rx="1.5" fill="#E4A5B2" stroke="#F2EFEC"/>
<rect x="242.791" y="312.225" width="50.0193" height="54.7805" rx="1.5" fill="#ECD9D9" stroke="#F2EFEC"/>
<rect x="191.772" y="312.225" width="50.0193" height="54.7805" rx="1.5" fill="#89C78F" stroke="#F2EFEC"/>
<rect x="140.752" y="312.225" width="50.0193" height="54.7805" rx="1.5" fill="#ECD9D9" stroke="#F2EFEC"/>
<path d="M215.764 8.29051C216.216 7.50733 217.347 7.50733 217.799 8.29051L264.804 89.7059C265.256 90.4891 264.691 91.4681 263.787 91.4681H169.776C168.872 91.4681 168.307 90.4891 168.759 89.7059L215.764 8.29051Z" fill="#FFDC61" stroke="#F2EFEC"/>
<path d="M293.81 317.274C293.81 315.869 295.569 315.235 296.466 316.317L322.416 347.643C323.226 348.621 322.531 350.1 321.261 350.1H295.31C294.482 350.1 293.81 349.429 293.81 348.6L293.81 317.274Z" fill="#4E4ADC" stroke="#F2EFEC"/>
<path d="M139.752 317.274C139.752 315.869 137.994 315.235 137.097 316.317L111.146 347.643C110.336 348.621 111.032 350.1 112.302 350.1H138.252C139.081 350.1 139.752 349.429 139.752 348.6L139.752 317.274Z" fill="#ECD9D9" stroke="#F2EFEC"/>
<path d="M99.2471 581.796C118.189 548.782 149.916 542.593 165.07 543.617C166.084 543.685 166.836 544.544 166.836 545.56V565.01C166.836 566.115 165.94 567.008 164.836 567.032C148.098 567.398 132.983 572.594 120.369 593.764C101.423 625.56 79.0864 645.617 51.2619 646.536C50.1579 646.572 49.2592 645.673 49.2592 644.569V626.708C49.2592 625.603 50.1527 624.715 51.255 624.644C64.2733 623.803 80.5038 614.462 99.2471 581.796Z" fill="#BB6E66"/>
<rect x="181.928" y="485.838" width="94.6864" height="26.2937" rx="2" transform="rotate(90 181.928 485.838)" fill="#ECD9D9"/>
<rect x="212.993" y="551.604" width="28.9213" height="31.0651" rx="2" transform="rotate(90 212.993 551.604)" fill="#ECD9D9"/>
<rect x="223.503" y="562.875" width="17.6498" height="26.0425" rx="2" transform="rotate(90 223.503 562.875)" fill="#ECD9D9"/>
<rect x="197.46" y="541.109" width="28.9213" height="31.0651" rx="2" transform="rotate(90 197.46 541.109)" fill="#ECD9D9"/>
<mask id="path-28-inside-1_72_347" fill="white">
<path d="M1153.54 700.749C1154.64 700.749 1155.54 699.853 1155.52 698.749C1155.27 687.386 1152.91 676.162 1148.56 665.651C1143.95 654.523 1137.19 644.413 1128.68 635.896C1120.16 627.379 1110.05 620.624 1098.92 616.015C1088.41 611.661 1077.19 609.303 1065.82 609.055C1064.72 609.031 1063.82 609.929 1063.82 611.033L1063.82 660.586C1063.82 661.691 1064.72 662.581 1065.82 662.639C1070.15 662.866 1074.41 663.829 1078.43 665.491C1083.06 667.409 1087.26 670.22 1090.81 673.764C1094.35 677.308 1097.16 681.514 1099.08 686.145C1100.74 690.158 1101.71 694.421 1101.93 698.749C1101.99 699.852 1102.88 700.749 1103.99 700.749H1153.54Z"/>
</mask>
<path d="M1153.54 700.749C1154.64 700.749 1155.54 699.853 1155.52 698.749C1155.27 687.386 1152.91 676.162 1148.56 665.651C1143.95 654.523 1137.19 644.413 1128.68 635.896C1120.16 627.379 1110.05 620.624 1098.92 616.015C1088.41 611.661 1077.19 609.303 1065.82 609.055C1064.72 609.031 1063.82 609.929 1063.82 611.033L1063.82 660.586C1063.82 661.691 1064.72 662.581 1065.82 662.639C1070.15 662.866 1074.41 663.829 1078.43 665.491C1083.06 667.409 1087.26 670.22 1090.81 673.764C1094.35 677.308 1097.16 681.514 1099.08 686.145C1100.74 690.158 1101.71 694.421 1101.93 698.749C1101.99 699.852 1102.88 700.749 1103.99 700.749H1153.54Z" fill="#ECD9D9" stroke="#F2EFEC" stroke-width="2" mask="url(#path-28-inside-1_72_347)"/>
<mask id="path-29-inside-2_72_347" fill="white">
<path d="M1063.82 611.033C1063.82 609.929 1062.93 609.031 1061.82 609.055C1050.46 609.303 1039.24 611.661 1028.73 616.015C1017.6 620.624 1007.49 627.379 998.971 635.896C990.454 644.413 983.698 654.523 979.089 665.651C974.735 676.162 972.377 687.386 972.13 698.749C972.106 699.853 973.003 700.749 974.108 700.749L1023.66 700.749C1024.77 700.749 1025.66 699.852 1025.71 698.749C1025.94 694.421 1026.9 690.158 1028.57 686.145C1030.48 681.515 1033.29 677.308 1036.84 673.764C1040.38 670.22 1044.59 667.409 1049.22 665.491C1053.23 663.829 1057.5 662.866 1061.82 662.639C1062.93 662.581 1063.82 661.691 1063.82 660.586L1063.82 611.033Z"/>
</mask>
<path d="M1063.82 611.033C1063.82 609.929 1062.93 609.031 1061.82 609.055C1050.46 609.303 1039.24 611.661 1028.73 616.015C1017.6 620.624 1007.49 627.379 998.971 635.896C990.454 644.413 983.698 654.523 979.089 665.651C974.735 676.162 972.377 687.386 972.13 698.749C972.106 699.853 973.003 700.749 974.108 700.749L1023.66 700.749C1024.77 700.749 1025.66 699.852 1025.71 698.749C1025.94 694.421 1026.9 690.158 1028.57 686.145C1030.48 681.515 1033.29 677.308 1036.84 673.764C1040.38 670.22 1044.59 667.409 1049.22 665.491C1053.23 663.829 1057.5 662.866 1061.82 662.639C1062.93 662.581 1063.82 661.691 1063.82 660.586L1063.82 611.033Z" fill="#89C78F" stroke="#F2EFEC" stroke-width="2" mask="url(#path-29-inside-2_72_347)"/>
<rect x="972.608" y="701.249" width="52.2428" height="133.506" rx="1.5" fill="#ECD9D9" stroke="#F2EFEC"/>
<rect x="1102.8" y="701.249" width="52.2428" height="133.506" rx="1.5" fill="#ECD9D9" stroke="#F2EFEC"/>
<rect x="884.999" y="897.006" width="47.4634" height="116.834" rx="1.5" fill="#ECD9D9" stroke="#F2EFEC"/>
<rect x="1432.89" y="502.144" width="47.4634" height="167.966" rx="1.5" fill="#ECD9D9" stroke="#F2EFEC"/>
<rect x="1416.71" y="500.878" width="12.1685" height="169.065" rx="1.5" transform="rotate(4.61998 1416.71 500.878)" fill="#ECD9D9" stroke="#F2EFEC"/>
<rect x="1428.65" y="701.249" width="47.4634" height="133.83" rx="1.5" fill="#ECD9D9" stroke="#F2EFEC"/>
<rect x="1047.91" y="238.305" width="47.4634" height="201.912" rx="1.5" fill="#E4A5B2" stroke="#F2EFEC"/>
<rect x="885" y="502.144" width="47.4634" height="332.935" rx="1.5" fill="#ECD9D9" stroke="#F2EFEC"/>
<rect x="1465.48" y="286.884" width="59.927" height="95.0616" rx="1.5" transform="rotate(90 1465.48 286.884)" fill="#89C78F" stroke="#F2EFEC"/>
<rect x="1494.46" y="671.11" width="29.1387" height="95.0616" rx="1.5" transform="rotate(90 1494.46 671.11)" fill="#BB6E66" stroke="#F2EFEC"/>
<rect x="1163.71" y="177.377" width="59.927" height="184.126" rx="1.5" transform="rotate(90 1163.71 177.377)" fill="#ECD9D9" stroke="#F2EFEC"/>
<rect x="2178.78" y="836.079" width="59.927" height="1356.02" rx="1.5" transform="rotate(90 2178.78 836.079)" fill="#ECD9D9" stroke="#F2EFEC"/>
<rect x="1597.17" y="441.217" width="59.927" height="774.399" rx="1.5" transform="rotate(90 1597.17 441.217)" fill="#ECD9D9" stroke="#F2EFEC"/>
<mask id="path-43-inside-3_72_347" fill="white">
<path fill-rule="evenodd" clip-rule="evenodd" d="M1516.14 349.311C1516.14 348.206 1515.25 347.311 1514.14 347.311H1321.75C1320.64 347.311 1319.75 348.206 1319.75 349.311V438.717C1319.75 439.821 1320.64 440.717 1321.75 440.717L1361.66 440.717C1362.76 440.717 1363.65 439.818 1363.69 438.714C1364.75 409.66 1388.63 386.429 1417.95 386.429C1447.26 386.429 1471.14 409.66 1472.2 438.714C1472.24 439.818 1473.13 440.717 1474.23 440.717L1514.14 440.717C1515.25 440.717 1516.14 439.821 1516.14 438.717V349.311Z"/>
</mask>
<path fill-rule="evenodd" clip-rule="evenodd" d="M1516.14 349.311C1516.14 348.206 1515.25 347.311 1514.14 347.311H1321.75C1320.64 347.311 1319.75 348.206 1319.75 349.311V438.717C1319.75 439.821 1320.64 440.717 1321.75 440.717L1361.66 440.717C1362.76 440.717 1363.65 439.818 1363.69 438.714C1364.75 409.66 1388.63 386.429 1417.95 386.429C1447.26 386.429 1471.14 409.66 1472.2 438.714C1472.24 439.818 1473.13 440.717 1474.23 440.717L1514.14 440.717C1515.25 440.717 1516.14 439.821 1516.14 438.717V349.311Z" fill="#ECD9D9"/>
<path d="M1514.14 440.717V439.717V440.717ZM1361.66 440.717V439.717V440.717ZM1363.69 438.714L1362.7 438.677L1363.69 438.714ZM1321.75 440.717L1321.75 441.717L1321.75 440.717ZM1472.2 438.714L1471.2 438.75L1472.2 438.714ZM1474.23 440.717V441.717V440.717ZM1321.75 348.311H1514.14V346.311H1321.75V348.311ZM1320.75 438.717V349.311H1318.75V438.717H1320.75ZM1361.66 439.717L1321.75 439.717L1321.75 441.717L1361.66 441.717V439.717ZM1364.69 438.75C1365.73 410.232 1389.17 387.429 1417.95 387.429V385.429C1388.09 385.429 1363.77 409.087 1362.7 438.677L1364.69 438.75ZM1417.95 387.429C1446.72 387.429 1470.16 410.232 1471.2 438.75L1473.2 438.677C1472.12 409.087 1447.8 385.429 1417.95 385.429V387.429ZM1514.14 439.717L1474.23 439.717V441.717L1514.14 441.717V439.717ZM1515.14 349.311V438.717H1517.14V349.311H1515.14ZM1514.14 441.717C1515.8 441.717 1517.14 440.373 1517.14 438.717H1515.14C1515.14 439.269 1514.69 439.717 1514.14 439.717V441.717ZM1361.66 441.717C1363.33 441.717 1364.64 440.366 1364.69 438.75L1362.7 438.677C1362.67 439.269 1362.2 439.717 1361.66 439.717V441.717ZM1318.75 438.717C1318.75 440.373 1320.09 441.717 1321.75 441.717L1321.75 439.717C1321.2 439.717 1320.75 439.269 1320.75 438.717H1318.75ZM1514.14 348.311C1514.69 348.311 1515.14 348.758 1515.14 349.311H1517.14C1517.14 347.654 1515.8 346.311 1514.14 346.311V348.311ZM1471.2 438.75C1471.26 440.366 1472.56 441.717 1474.23 441.717V439.717C1473.69 439.717 1473.22 439.269 1473.2 438.677L1471.2 438.75ZM1321.75 346.311C1320.09 346.311 1318.75 347.654 1318.75 349.311H1320.75C1320.75 348.758 1321.2 348.311 1321.75 348.311V346.311Z" fill="#F2EFEC" mask="url(#path-43-inside-3_72_347)"/>
<rect x="1120.07" y="394.514" width="45.703" height="45.703" rx="1.5" fill="#99CEFF" stroke="#F2EFEC"/>
<rect x="1118.01" y="347.811" width="45.703" height="45.703" rx="22.8515" fill="#037843" stroke="#F2EFEC"/>
<rect x="1190.57" y="790.221" width="45.703" height="45.703" rx="1.5" fill="#4E4ADC" stroke="#F2EFEC"/>
<rect x="1459.56" y="188.472" width="29.8482" height="97.9668" rx="2" transform="rotate(75 1459.56 188.472)" fill="#ECD9D9"/>
<rect x="1410.21" y="211.753" width="10.4212" height="62.8009" rx="2" transform="rotate(75 1410.21 211.753)" fill="#ECD9D9"/>
<rect x="1416.94" y="224.914" width="4.57983" height="62.8009" rx="2" transform="rotate(16.6917 1416.94 224.914)" fill="#ECD9D9"/>
<rect width="4.57983" height="62.8009" rx="2" transform="matrix(-0.957864 0.287222 0.287222 0.957864 1421.33 224.914)" fill="#ECD9D9"/>
<rect x="1479.63" y="172.457" width="50.3984" height="48.9079" rx="2" transform="rotate(75 1479.63 172.457)" fill="#ECD9D9"/>
<mask id="path-53-inside-4_72_347" fill="white">
<path fill-rule="evenodd" clip-rule="evenodd" d="M969.062 307.376C968.776 306.309 969.409 305.212 970.476 304.926L980.768 302.169C981.835 301.883 982.931 302.516 983.217 303.583L984.086 306.825C984.254 307.452 983.881 308.097 983.254 308.265C982.626 308.434 982.254 309.079 982.422 309.706L983.105 312.257C983.332 313.103 984.084 313.69 984.952 313.803C991.449 314.65 997.109 319.307 998.91 326.029C1001.29 334.925 996.015 344.07 987.118 346.453C978.222 348.837 969.078 343.558 966.694 334.661C964.893 327.939 967.466 321.076 972.67 317.094C973.365 316.562 973.722 315.678 973.496 314.832L972.812 312.281C972.644 311.654 971.999 311.281 971.371 311.449C970.743 311.618 970.098 311.245 969.93 310.618L969.062 307.376Z"/>
</mask>
<path fill-rule="evenodd" clip-rule="evenodd" d="M969.062 307.376C968.776 306.309 969.409 305.212 970.476 304.926L980.768 302.169C981.835 301.883 982.931 302.516 983.217 303.583L984.086 306.825C984.254 307.452 983.881 308.097 983.254 308.265C982.626 308.434 982.254 309.079 982.422 309.706L983.105 312.257C983.332 313.103 984.084 313.69 984.952 313.803C991.449 314.65 997.109 319.307 998.91 326.029C1001.29 334.925 996.015 344.07 987.118 346.453C978.222 348.837 969.078 343.558 966.694 334.661C964.893 327.939 967.466 321.076 972.67 317.094C973.365 316.562 973.722 315.678 973.496 314.832L972.812 312.281C972.644 311.654 971.999 311.281 971.371 311.449C970.743 311.618 970.098 311.245 969.93 310.618L969.062 307.376Z" fill="#ECD9D9"/>
<path d="M984.952 313.803L985.081 312.812L984.952 313.803ZM982.422 309.706L983.388 309.448L982.422 309.706ZM984.086 306.825L985.052 306.566L984.086 306.825ZM983.217 303.583L982.251 303.842L983.217 303.583ZM981.026 303.135L970.735 305.892L970.217 303.961L980.509 301.203L981.026 303.135ZM983.12 307.083L982.251 303.842L984.183 303.324L985.052 306.566L983.12 307.083ZM983.388 309.448L984.071 311.999L982.14 312.516L981.456 309.965L983.388 309.448ZM985.081 312.812C991.965 313.709 997.967 318.644 999.876 325.77L997.944 326.288C996.252 319.971 990.932 315.591 984.822 314.795L985.081 312.812ZM999.876 325.77C1002.4 335.2 996.807 344.893 987.377 347.419L986.859 345.487C995.222 343.247 1000.19 334.651 997.944 326.288L999.876 325.77ZM987.377 347.419C977.947 349.946 968.255 344.35 965.728 334.92L967.66 334.402C969.901 342.765 978.497 347.728 986.859 345.487L987.377 347.419ZM965.728 334.92C963.818 327.794 966.548 320.519 972.062 316.3L973.277 317.888C968.385 321.633 965.967 328.085 967.66 334.402L965.728 334.92ZM972.53 315.091L971.846 312.54L973.778 312.023L974.461 314.574L972.53 315.091ZM970.028 307.117L970.896 310.359L968.964 310.876L968.096 307.635L970.028 307.117ZM971.63 312.415C970.469 312.726 969.275 312.037 968.964 310.876L970.896 310.359C970.921 310.453 971.018 310.509 971.112 310.483L971.63 312.415ZM971.846 312.54C971.821 312.446 971.724 312.39 971.63 312.415L971.112 310.483C972.273 310.172 973.467 310.861 973.778 312.023L971.846 312.54ZM972.062 316.3C972.477 315.983 972.638 315.497 972.53 315.091L974.461 314.574C974.806 315.858 974.253 317.142 973.277 317.888L972.062 316.3ZM984.071 311.999C984.18 312.405 984.563 312.744 985.081 312.812L984.822 314.795C983.605 314.636 982.484 313.801 982.14 312.516L984.071 311.999ZM983.513 309.231C983.418 309.257 983.363 309.353 983.388 309.448L981.456 309.965C981.145 308.804 981.834 307.611 982.995 307.3L983.513 309.231ZM985.052 306.566C985.363 307.727 984.674 308.92 983.513 309.231L982.995 307.3C983.089 307.274 983.145 307.178 983.12 307.083L985.052 306.566ZM970.735 305.892C970.201 306.035 969.885 306.584 970.028 307.117L968.096 307.635C967.667 306.034 968.617 304.389 970.217 303.961L970.735 305.892ZM980.509 301.203C982.109 300.774 983.754 301.724 984.183 303.324L982.251 303.842C982.108 303.308 981.56 302.992 981.026 303.135L980.509 301.203Z" fill="#F2EFEC" mask="url(#path-53-inside-4_72_347)"/>
<rect x="904.393" y="445.095" width="51.2346" height="2.87299" transform="rotate(-75 904.393 445.095)" fill="#ECD9D9"/>
<rect x="1003.62" y="440.003" width="137.287" height="2.87299" transform="rotate(-90 1003.62 440.003)" fill="#ECD9D9"/>
<rect width="51.2346" height="2.87299" transform="matrix(-0.258819 -0.965926 -0.965926 0.258819 955.905 445.095)" fill="#ECD9D9"/>
<mask id="path-58-inside-5_72_347" fill="white">
<path fill-rule="evenodd" clip-rule="evenodd" d="M944.572 311.814C944.572 310.709 943.677 309.814 942.572 309.814H917.448C916.343 309.814 915.448 310.709 915.448 311.814V320.796C915.448 321.9 916.343 322.796 917.448 322.796H918.124C919.229 322.796 920.124 323.691 920.124 324.796V331.835C920.124 332.71 919.553 333.478 918.73 333.775C905.98 338.39 896.869 350.605 896.869 364.948C896.869 383.251 911.706 398.089 930.01 398.089C948.314 398.089 963.152 383.251 963.152 364.948C963.152 350.605 954.04 338.39 941.29 333.775C940.467 333.478 939.896 332.71 939.896 331.835V324.796C939.896 323.691 940.791 322.796 941.896 322.796H942.572C943.677 322.796 944.572 321.9 944.572 320.796V311.814Z"/>
</mask>
<path fill-rule="evenodd" clip-rule="evenodd" d="M944.572 311.814C944.572 310.709 943.677 309.814 942.572 309.814H917.448C916.343 309.814 915.448 310.709 915.448 311.814V320.796C915.448 321.9 916.343 322.796 917.448 322.796H918.124C919.229 322.796 920.124 323.691 920.124 324.796V331.835C920.124 332.71 919.553 333.478 918.73 333.775C905.98 338.39 896.869 350.605 896.869 364.948C896.869 383.251 911.706 398.089 930.01 398.089C948.314 398.089 963.152 383.251 963.152 364.948C963.152 350.605 954.04 338.39 941.29 333.775C940.467 333.478 939.896 332.71 939.896 331.835V324.796C939.896 323.691 940.791 322.796 941.896 322.796H942.572C943.677 322.796 944.572 321.9 944.572 320.796V311.814Z" fill="#ECD9D9"/>
<path d="M941.29 333.775L941.63 332.835L941.29 333.775ZM918.73 333.775L919.07 334.716L918.73 333.775ZM917.448 310.814H942.572V308.814H917.448V310.814ZM916.448 320.796V311.814H914.448V320.796H916.448ZM918.124 321.796H917.448V323.796H918.124V321.796ZM919.124 324.796V331.835H921.124V324.796H919.124ZM918.39 332.835C905.256 337.588 895.869 350.171 895.869 364.948H897.869C897.869 351.039 906.703 339.192 919.07 334.716L918.39 332.835ZM895.869 364.948C895.869 383.804 911.154 399.089 930.01 399.089V397.089C912.259 397.089 897.869 382.699 897.869 364.948H895.869ZM930.01 399.089C948.866 399.089 964.152 383.804 964.152 364.948H962.152C962.152 382.699 947.761 397.089 930.01 397.089V399.089ZM964.152 364.948C964.152 350.171 954.764 337.588 941.63 332.835L940.95 334.716C953.317 339.192 962.152 351.039 962.152 364.948H964.152ZM940.896 331.835V324.796H938.896V331.835H940.896ZM942.572 321.796H941.896V323.796H942.572V321.796ZM943.572 311.814V320.796H945.572V311.814H943.572ZM942.572 323.796C944.229 323.796 945.572 322.453 945.572 320.796H943.572C943.572 321.348 943.124 321.796 942.572 321.796V323.796ZM940.896 324.796C940.896 324.244 941.344 323.796 941.896 323.796V321.796C940.239 321.796 938.896 323.139 938.896 324.796H940.896ZM941.63 332.835C941.179 332.672 940.896 332.263 940.896 331.835H938.896C938.896 333.157 939.756 334.284 940.95 334.716L941.63 332.835ZM919.124 331.835C919.124 332.263 918.841 332.672 918.39 332.835L919.07 334.716C920.264 334.284 921.124 333.157 921.124 331.835H919.124ZM918.124 323.796C918.676 323.796 919.124 324.244 919.124 324.796H921.124C921.124 323.139 919.781 321.796 918.124 321.796V323.796ZM914.448 320.796C914.448 322.453 915.791 323.796 917.448 323.796V321.796C916.896 321.796 916.448 321.348 916.448 320.796H914.448ZM942.572 310.814C943.124 310.814 943.572 311.262 943.572 311.814H945.572C945.572 310.157 944.229 308.814 942.572 308.814V310.814ZM917.448 308.814C915.791 308.814 914.448 310.157 914.448 311.814H916.448C916.448 311.262 916.896 310.814 917.448 310.814V308.814Z" fill="#F2EFEC" mask="url(#path-58-inside-5_72_347)"/>
<rect x="900.507" y="389.698" width="59.007" height="2.87299" fill="#ECD9D9"/>
<rect x="966.294" y="313.279" width="37.3299" height="2.87299" fill="#ECD9D9"/>
<rect x="986.395" y="437.13" width="37.3299" height="2.87299" fill="#ECD9D9"/>
<line x1="1265.4" y1="484.251" x2="1265.4" y2="594.983" stroke="#ECD9D9"/>
<circle cx="1315.15" cy="632.744" r="21.6367" fill="#ECD9D9"/>
<circle cx="1200.64" cy="573.347" r="21.6367" fill="#ECD9D9"/>
<circle cx="1233.63" cy="654.381" r="14.2311" fill="#ECD9D9"/>
<circle cx="1264.9" cy="594.983" r="6.97955" fill="#E4A5B2"/>
<line x1="1201.14" y1="484.251" x2="1201.14" y2="564.971" stroke="#ECD9D9"/>
<line x1="1315.65" y1="484.251" x2="1315.65" y2="632.744" stroke="#ECD9D9"/>
<line x1="1234.13" y1="484.251" x2="1234.13" y2="643.84" stroke="#ECD9D9"/>
<path d="M1371.88 633.37C1371.88 633.452 1371.85 633.572 1371.71 633.738C1371.56 633.907 1371.32 634.099 1370.97 634.304C1370.26 634.714 1369.18 635.126 1367.75 635.528C1364.89 636.328 1360.73 637.055 1355.56 637.667C1345.23 638.891 1330.94 639.649 1315.15 639.649C1299.36 639.649 1285.07 638.891 1274.74 637.667C1269.57 637.055 1265.41 636.328 1262.55 635.528C1261.12 635.126 1260.04 634.714 1259.33 634.304C1258.98 634.099 1258.74 633.907 1258.59 633.738C1258.45 633.572 1258.42 633.452 1258.42 633.37C1258.42 633.289 1258.45 633.169 1258.59 633.003C1258.74 632.833 1258.98 632.642 1259.33 632.437C1260.04 632.027 1261.12 631.615 1262.55 631.213C1265.41 630.413 1269.57 629.686 1274.74 629.074C1285.07 627.85 1299.36 627.092 1315.15 627.092C1330.94 627.092 1345.23 627.85 1355.56 629.074C1360.73 629.686 1364.89 630.413 1367.75 631.213C1369.18 631.615 1370.26 632.027 1370.97 632.437C1371.32 632.642 1371.56 632.833 1371.71 633.003C1371.85 633.169 1371.88 633.289 1371.88 633.37Z" stroke="#ECD9D9"/>
<path d="M1230.59 583.614C1230.65 583.576 1230.67 583.551 1230.67 583.544C1230.67 583.535 1230.67 583.504 1230.64 583.441C1230.6 583.347 1230.51 583.215 1230.35 583.045C1230.03 582.706 1229.5 582.296 1228.75 581.823C1227.26 580.881 1225 579.756 1222.14 578.521C1216.42 576.053 1208.35 573.174 1199.28 570.472C1190.21 567.77 1181.88 565.762 1175.74 564.698C1172.67 564.165 1170.16 563.873 1168.4 563.844C1167.51 563.829 1166.84 563.882 1166.39 563.99C1166.16 564.045 1166.01 564.107 1165.93 564.163C1165.87 564.2 1165.85 564.225 1165.85 564.233M1230.59 583.614L1165.85 564.23C1165.85 564.23 1165.85 564.231 1165.85 564.232M1230.59 583.614C1230.51 583.67 1230.36 583.732 1230.13 583.786C1229.68 583.895 1229.01 583.947 1228.12 583.933C1226.36 583.904 1223.86 583.611 1220.78 583.079C1214.65 582.015 1206.31 580.007 1197.24 577.305C1188.17 574.603 1180.1 571.724 1174.38 569.255C1171.52 568.02 1169.26 566.895 1167.77 565.953C1167.02 565.481 1166.49 565.07 1166.17 564.731C1166.01 564.562 1165.92 564.429 1165.88 564.335C1165.85 564.273 1165.85 564.242 1165.85 564.233M1230.59 583.614L1165.85 564.234M1165.85 564.233C1165.85 564.233 1165.85 564.232 1165.85 564.232M1165.85 564.233C1165.85 564.233 1165.85 564.233 1165.85 564.234M1165.85 564.232C1165.85 564.232 1165.85 564.233 1165.85 564.233C1165.85 564.233 1165.85 564.233 1165.85 564.234M1165.85 564.232L1165.85 564.234M1165.85 564.234C1165.85 564.235 1165.85 564.235 1165.85 564.235L1165.85 564.234ZM1230.67 583.546C1230.67 583.546 1230.67 583.546 1230.67 583.544L1230.67 583.546Z" stroke="#ECD9D9"/>
<mask id="path-73-inside-6_72_347" fill="white">
<path d="M1118.35 176.878C1118.35 170.745 1117.14 164.672 1114.79 159.005C1112.45 153.339 1109.01 148.191 1104.67 143.854C1100.33 139.517 1095.18 136.077 1089.52 133.73C1083.85 131.383 1077.78 130.175 1071.65 130.175C1065.51 130.175 1059.44 131.383 1053.77 133.73C1048.11 136.077 1042.96 139.517 1038.62 143.854C1034.28 148.191 1030.84 153.339 1028.5 159.005C1026.15 164.672 1024.94 170.745 1024.94 176.878L1071.65 176.878H1118.35Z"/>
</mask>
<path d="M1118.35 176.878C1118.35 170.745 1117.14 164.672 1114.79 159.005C1112.45 153.339 1109.01 148.191 1104.67 143.854C1100.33 139.517 1095.18 136.077 1089.52 133.73C1083.85 131.383 1077.78 130.175 1071.65 130.175C1065.51 130.175 1059.44 131.383 1053.77 133.73C1048.11 136.077 1042.96 139.517 1038.62 143.854C1034.28 148.191 1030.84 153.339 1028.5 159.005C1026.15 164.672 1024.94 170.745 1024.94 176.878L1071.65 176.878H1118.35Z" fill="#ECD9D9" stroke="#F2EFEC" stroke-width="2" mask="url(#path-73-inside-6_72_347)"/>
<rect x="1038.1" y="130.175" width="14.0363" height="42.7196" transform="rotate(-30.0505 1038.1 130.175)" fill="#ECD9D9"/>
<path d="M1045.5 131.579C1034.82 110.994 1003.64 77.0307 964.303 105.848C915.13 141.871 970.021 175.606 973.451 162.455C976.882 149.304 935.356 149.098 938.573 159.024C945.597 180.702 977.779 220.009 953.439 233.356C908.87 257.793 974.595 272.237 976.882 307.687" stroke="#ECD9D9" stroke-width="2"/>
</g>
<defs>
<clipPath id="clip0_72_347">
<rect width="1512" height="982" fill="white"/>
</clipPath>
</defs>
</svg>
