<svg viewBox="0 0 4000 1993" fill="none" xmlns="http://www.w3.org/2000/svg">
  <rect x="1613.93" y="1180.99" width="142.517" height="155.91" rx="1.5" fill="#fff" stroke="#FFDC61" />
  <mask id="prefix__a" fill="#fff">
    <path fill-rule="evenodd" clip-rule="evenodd"
      d="M2253.43 1145.42a2 2 0 00-2-2h-403.85a2 2 0 00-2 2v189.98c0 1.11.89 2 2 2h89.18c0-62.26 50.48-112.74 112.75-112.74 62.26 0 112.74 50.48 112.74 112.74h89.18c1.11 0 2-.89 2-2v-189.98z" />
  </mask>
  <path fill-rule="evenodd" clip-rule="evenodd"
    d="M2253.43 1145.42a2 2 0 00-2-2h-403.85a2 2 0 00-2 2v189.98c0 1.11.89 2 2 2h89.18c0-62.26 50.48-112.74 112.75-112.74 62.26 0 112.74 50.48 112.74 112.74h89.18c1.11 0 2-.89 2-2v-189.98z"
    fill="#99CEFF" />
  <path
    d="M1847.58 1144.42h403.85v-2h-403.85v2zm-1 190.98v-189.98h-2v189.98h2zm90.18 1h-89.18v2h89.18v-2zm1 1c0-61.71 50.03-111.74 111.75-111.74v-2c-62.82 0-113.75 50.92-113.75 113.74h2zm111.75-111.74c61.71 0 111.74 50.03 111.74 111.74h2c0-62.82-50.93-113.74-113.74-113.74v2zm201.92 110.74h-89.18v2h89.18v-2zm1-190.98v189.98h2v-189.98h-2zm-1 192.98c1.66 0 3-1.34 3-3h-2c0 .55-.44 1-1 1v2zm-314.67 0c.56 0 1-.45 1-1h-2c0-.55.45-1 1-1v2zm224.49-1c0 .55.44 1 1 1v-2c.55 0 1 .45 1 1h-2zm-316.67-2c0 1.66 1.34 3 3 3v-2c-.56 0-1-.45-1-1h-2zm406.85-190.98c.56 0 1 .45 1 1h2c0-1.66-1.34-3-3-3v2zm-403.85-2c-1.66 0-3 1.34-3 3h2c0-.55.44-1 1-1v-2z"
    fill="#FFDC61" mask="url(#prefix__a)" />
  <rect x="3371.97" y="1748.79" width="99.647" height="243.711" rx="1.5" fill="#fff" stroke="#FFDC61" />
  <rect x="2524.01" y="1748.79" width="99.647" height="243.711" rx="1.5" fill="#fff" stroke="#FFDC61" />
  <rect x="2310.38" y="1465.36" width="99.647" height="155.893" rx="1.5" fill="#fff" stroke="#FFDC61" />
  <rect x="1617.28" y="1465.36" width="99.647" height="155.893" rx="1.5" fill="#BB6E66" stroke="#FFDC61" />
  <rect x="995.321" y="1748.79" width="99.647" height="243.711" rx="1.5" fill="#fff" stroke="#FFDC61" />
  <rect x="894.676" y="1748.79" width="99.647" height="243.711" rx="1.5" fill="#fff" stroke="#FFDC61" />
  <rect x="2608.43" y="928.758" width="99.647" height="349.901" rx="1.5" fill="#fff" stroke="#FFDC61" />
  <rect x="2574.88" y="926.089" width="26.348" height="352.184" rx="1.5" transform="rotate(4.62 2574.88 926.089)"
    fill="#fff" stroke="#FFDC61" />
  <rect x="2599.63" y="1342.25" width="99.647" height="279.009" rx="1.5" fill="#fff" stroke="#FFDC61" />
  <rect x="2737.39" y="1279.66" width="61.591" height="198.496" rx="1.5" transform="rotate(90 2737.39 1279.66)"
    fill="#BB6E66" stroke="#FFDC61" />
  <rect x="3586.67" y="1622.26" width="125.53" height="1308.27" rx="1.5" transform="rotate(90 3586.67 1622.26)"
    fill="#fff" stroke="#FFDC61" />
  <rect x="3999.5" y="804.287" width="125.53" height="1609.31" rx="1.5" transform="rotate(90 3999.5 804.287)"
    fill="#fff" stroke="#FFDC61" />
  <rect x="2445.08" y="1337.9" width="125.53" height="938.582" rx="1.5" transform="rotate(90 2445.08 1337.9)"
    fill="#fff" stroke="#FFDC61" />
  <rect x="2967.96" y="382.888" width="99.647" height="420.398" rx="1.5" fill="#E4A5B2" stroke="#FFDC61" />
  <rect x="3209.51" y="256.358" width="125.53" height="383.462" rx="1.5" transform="rotate(90 3209.51 256.358)"
    fill="#fff" stroke="#FFDC61" />
  <rect x="3117.8" y="707.295" width="95.991" height="95.991" rx="1.5" fill="#99CEFF" stroke="#FFDC61" />
  <rect x="3115.28" y="610.305" width="95.991" height="95.991" rx="22.852" fill="#037843" stroke="#FFDC61" />
  <mask id="prefix__b" fill="#fff">
    <path fill-rule="evenodd" clip-rule="evenodd"
      d="M2804.19 527.695a1.991 1.991 0 011.41-2.449l25.53-6.842a1.996 1.996 0 012.45 1.414l2.48 9.241a2 2 0 01-1.41 2.449l-.86.23a2.005 2.005 0 00-1.42 2.449l1.95 7.256c.23.845.98 1.439 1.85 1.512 14.14 1.184 26.68 11.058 30.56 25.558 4.95 18.476-6.01 37.466-24.49 42.417-18.47 4.95-37.46-6.014-42.41-24.49-3.89-14.5 2.03-29.317 13.69-37.415.72-.5 1.07-1.389.84-2.234l-1.94-7.256a2.006 2.006 0 00-2.45-1.415l-.86.23a2 2 0 01-2.45-1.414l-2.47-9.241z" />
  </mask>
  <path fill-rule="evenodd" clip-rule="evenodd"
    d="M2804.19 527.695a1.991 1.991 0 011.41-2.449l25.53-6.842a1.996 1.996 0 012.45 1.414l2.48 9.241a2 2 0 01-1.41 2.449l-.86.23a2.005 2.005 0 00-1.42 2.449l1.95 7.256c.23.845.98 1.439 1.85 1.512 14.14 1.184 26.68 11.058 30.56 25.558 4.95 18.476-6.01 37.466-24.49 42.417-18.47 4.95-37.46-6.014-42.41-24.49-3.89-14.5 2.03-29.317 13.69-37.415.72-.5 1.07-1.389.84-2.234l-1.94-7.256a2.006 2.006 0 00-2.45-1.415l-.86.23a2 2 0 01-2.45-1.414l-2.47-9.241z"
    fill="#fff" />
  <path
    d="M2866.73 568.513l-.96.259.96-.259zm-60.07-31.577l-.96.258.96-.258zm5.76 2.599l-.97.258.97-.258zm1.1 9.49l.57.821-.57-.821zm18.85-14.838l-.96.259.96-.259zm3.69-5.128l-.97.258.97-.258zm-31.87-1.364l.96-.258-.96.258zm29.39-7.877l.97-.258-.97.258zm-2.19-.448l-25.53 6.842-.52-1.932 25.54-6.842.51 1.932zm3.7 9.947l-2.47-9.24 1.93-.517 2.48 9.24-1.94.517zm-1.56 1.455l.86-.23.51 1.932-.85.229-.52-1.931zm-.19 3.156l1.94 7.256-1.93.518-1.94-7.256 1.93-.518zm2.91 8.031c14.55 1.218 27.45 11.375 31.45 26.295l-1.93.518c-3.78-14.08-15.95-23.67-29.69-24.82l.17-1.993zm31.45 26.295c5.09 19.009-6.19 38.548-25.2 43.642l-.52-1.932c17.95-4.808 28.59-23.25 23.79-41.192l1.93-.518zm-25.2 43.642c-19.01 5.093-38.55-6.188-43.64-25.197l1.93-.517c4.81 17.942 23.25 28.589 41.19 23.782l.52 1.932zm-43.64-25.197c-4-14.92 2.09-30.164 14.09-38.496l1.14 1.643c-11.33 7.865-17.07 22.256-13.3 36.336l-1.93.517zm14.54-39.65l-1.95-7.256 1.93-.517 1.95 7.256-1.93.517zm-4.55-9.665l.86-.23.52 1.932-.86.23-.52-1.932zm-3.7-9.947l2.48 9.24-1.93.517-2.48-9.24 1.93-.517zm4.22 11.879a2.992 2.992 0 01-3.67-2.122l1.93-.517c.14.533.69.85 1.22.707l.52 1.932zm2.08.477a.996.996 0 00-1.22-.707l-.52-1.932c1.6-.428 3.24.521 3.67 2.122l-1.93.517zm1.5 8.41c.39-.273.56-.74.45-1.154l1.93-.517c.34 1.276-.2 2.589-1.24 3.314l-1.14-1.643zm22.33-7.019c.12.414.49.735.97.775l-.17 1.993c-1.26-.106-2.38-.974-2.73-2.25l1.93-.518zm-1.23-8.481a1 1 0 00-.71 1.225l-1.93.518a2.998 2.998 0 012.12-3.674l.52 1.931zm2.98-3.903c.42 1.6-.53 3.245-2.13 3.674l-.51-1.932a.993.993 0 00.7-1.225l1.94-.517zm-31.17-2.588c-.53.143-.85.691-.71 1.225l-1.93.517c-.43-1.6.52-3.245 2.12-3.674l.52 1.932zm25.02-8.774c1.6-.429 3.24.521 3.67 2.122l-1.93.517c-.15-.533-.69-.85-1.23-.707l-.51-1.932z"
    fill="#FFDC61" mask="url(#prefix__b)" />
  <path fill="#fff"
    d="M2670.44 815.784l27.539-102.776 5.763 1.544-27.54 102.776zM2876.52 805.209v-285.11h5.966v285.11zM2777.42 815.784l-27.539-102.776-5.763 1.544 27.54 102.776z" />
  <mask id="prefix__c" fill="#fff">
    <path fill-rule="evenodd" clip-rule="evenodd"
      d="M2753.88 536.838c0-1.105-.89-2-2-2h-56.48c-1.1 0-2 .895-2 2v22.96c0 1.105.9 2 2 2h5.71c1.11 0 2 .896 2 2v18.355c0 .875-.57 1.647-1.4 1.925-27.26 9.157-46.89 34.915-46.89 65.259 0 38.012 30.81 68.827 68.82 68.827 38.01 0 68.83-30.815 68.83-68.827 0-30.344-19.64-56.102-46.9-65.259a2.04 2.04 0 01-1.4-1.925v-18.355c0-1.104.9-2 2-2h5.71c1.11 0 2-.895 2-2v-22.96z" />
  </mask>
  <path fill-rule="evenodd" clip-rule="evenodd"
    d="M2753.88 536.838c0-1.105-.89-2-2-2h-56.48c-1.1 0-2 .895-2 2v22.96c0 1.105.9 2 2 2h5.71c1.11 0 2 .896 2 2v18.355c0 .875-.57 1.647-1.4 1.925-27.26 9.157-46.89 34.915-46.89 65.259 0 38.012 30.81 68.827 68.82 68.827 38.01 0 68.83-30.815 68.83-68.827 0-30.344-19.64-56.102-46.9-65.259a2.04 2.04 0 01-1.4-1.925v-18.355c0-1.104.9-2 2-2h5.71c1.11 0 2-.895 2-2v-22.96z"
    fill="#fff" />
  <path
    d="M2745.57 584.078l-.31.948.31-.948zm-43.86 0l-.32-.948.32.948zm-6.31-48.24h56.48v-2h-56.48v2zm-1 23.96v-22.96h-2v22.96h2zm6.71 1h-5.71v2h5.71v-2zm1 3v18.355h2v-18.355h-2zm-.72 19.332c-27.65 9.29-47.57 35.42-47.57 66.207h2c0-29.902 19.35-55.286 46.21-64.311l-.64-1.896zm-47.57 66.207c0 38.564 31.26 69.827 69.82 69.827v-2c-37.46 0-67.82-30.367-67.82-67.827h-2zm69.82 69.827c38.57 0 69.83-31.263 69.83-69.827h-2c0 37.46-30.37 67.827-67.83 67.827v2zm69.83-69.827c0-30.787-19.92-56.917-47.58-66.207l-.63 1.896c26.86 9.024 46.21 34.409 46.21 64.311h2zm-48.3-67.184v-18.355h-2v18.355h2zm6.71-21.355h-5.71v2h5.71v-2zm1-23.96v22.96h2v-22.96h-2zm-1 25.96c1.66 0 3-1.343 3-3h-2c0 .552-.44 1-1 1v2zm-6.71 1c0-.552.45-1 1-1v-2c-1.65 0-3 1.343-3 3h2zm.72 19.332a1.048 1.048 0 01-.72-.977h-2a3.04 3.04 0 002.09 2.873l.63-1.896zm-43.78-.977c0 .432-.28.831-.72.977l.64 1.896a3.044 3.044 0 002.08-2.873h-2zm-1-19.355c.55 0 1 .448 1 1h2c0-1.657-1.34-3-3-3v2zm-8.71-3c0 1.657 1.34 3 3 3v-2c-.55 0-1-.448-1-1h-2zm59.48-23.96c.56 0 1 .448 1 1h2c0-1.657-1.34-3-3-3v2zm-56.48-2c-1.66 0-3 1.343-3 3h2c0-.552.45-1 1-1v-2z"
    fill="#FFDC61" mask="url(#prefix__c)" />
  <path fill="#fff"
    d="M2662.37 700.738h122.543v5.966H2662.37zM2798.99 542.034h77.525V548h-77.525zM2840.74 799.244h77.525v6.962h-77.525z" />
  <mask id="prefix__d" fill="#fff">
    <path
      d="M3114.78 255.858a96.884 96.884 0 00-7.39-37.116 97.001 97.001 0 00-21.02-31.466 97.006 97.006 0 00-68.58-28.408 97.006 97.006 0 00-68.59 28.408 97.001 97.001 0 00-21.02 31.466 96.884 96.884 0 00-7.39 37.116h193.99z" />
  </mask>
  <path
    d="M3114.78 255.858a96.884 96.884 0 00-7.39-37.116 97.001 97.001 0 00-21.02-31.466 97.006 97.006 0 00-68.58-28.408 97.006 97.006 0 00-68.59 28.408 97.001 97.001 0 00-21.02 31.466 96.884 96.884 0 00-7.39 37.116h193.99z"
    fill="#fff" stroke="#FFDC61" stroke-width="2" mask="url(#prefix__d)" />
  <path fill="#fff" d="M2948.12 158.868l25.232-14.597 44.426 76.793-25.231 14.597z" />
  <path
    d="M2963.48 161.783c-22.17-42.748-86.93-113.282-168.62-53.435-102.12 74.809 11.87 144.868 19 117.557 7.12-27.311-79.12-27.738-72.44-7.125 14.59 45.021 81.43 126.652 30.88 154.369-92.56 50.751 43.93 80.746 48.68 154.368M3353.14 912.272v229.968"
    stroke="#fff" stroke-width="2" />
  <circle cx="3458.58" cy="1220.66" r="44.934" fill="#fff" />
  <circle cx="3206.15" cy="1097.3" r="44.934" fill="#fff" />
  <circle cx="3290.49" cy="1265.59" r="29.555" fill="#fff" />
  <circle cx="3354.87" cy="1142.24" r="14.495" fill="#E4A5B2" />
  <path stroke="#fff" stroke-width="2"
    d="M3205.81 912.272v167.638M3457.5 912.272v308.388M3288.21 912.272V1243.7M3576.44 1221.96c0 .18-.08.44-.38.78-.3.36-.8.76-1.54 1.19-1.47.85-3.71 1.71-6.69 2.54-5.94 1.67-14.59 3.18-25.32 4.45-21.46 2.54-51.14 4.11-83.93 4.11-32.8 0-62.47-1.57-83.93-4.11-10.73-1.27-19.38-2.78-25.32-4.45-2.98-.83-5.22-1.69-6.69-2.54-.74-.43-1.24-.83-1.55-1.19-.29-.34-.37-.6-.37-.78 0-.18.08-.44.37-.79.31-.36.81-.76 1.55-1.19 1.47-.85 3.71-1.71 6.69-2.54 5.94-1.66 14.59-3.17 25.32-4.44 21.46-2.55 51.13-4.12 83.93-4.12 32.79 0 62.47 1.57 83.93 4.12 10.73 1.27 19.38 2.78 25.32 4.44 2.98.83 5.22 1.69 6.69 2.54.74.43 1.24.83 1.54 1.19.3.35.38.61.38.79zM3273.78 1120.04c0 .01-.01.02-.03.05a.6.6 0 01-.18.15c-.19.12-.52.26-1.01.38-.99.24-2.44.35-4.35.32-3.81-.07-9.22-.7-15.84-1.85-13.24-2.29-31.21-6.62-50.76-12.45-19.56-5.82-36.97-12.03-49.3-17.35-6.18-2.67-11.04-5.09-14.27-7.13-1.62-1.02-2.77-1.91-3.47-2.65-.34-.36-.54-.66-.64-.87a.661.661 0 01-.06-.22c-.01-.03 0-.05 0-.06 0 0 0-.02.03-.05.03-.03.08-.08.17-.14.2-.13.52-.26 1.02-.38.98-.24 2.44-.35 4.35-.32 3.81.06 9.21.69 15.84 1.84 13.23 2.3 31.2 6.63 50.76 12.45 19.56 5.83 36.97 12.04 49.3 17.36 6.17 2.66 11.04 5.09 14.27 7.12 1.61 1.03 2.77 1.91 3.46 2.65.35.37.55.66.64.88.05.1.07.17.07.21.01.04 0 .06 0 .06z" />
  <mask id="prefix__e" fill="#fff">
    <path
      d="M3189.8 1342.42c1.11 0 2.01-.89 1.99-2-.25-24.33-5.17-48.39-14.48-70.89a190.72 190.72 0 00-41.29-61.79 190.443 190.443 0 00-61.8-41.29 190.457 190.457 0 00-70.89-14.49c-1.1-.01-2 .89-2 1.99v107.22c0 1.1.9 2 2 2.03a79.28 79.28 0 0128.33 6 79.202 79.202 0 0125.71 17.18c7.36 7.36 13.2 16.1 17.18 25.71 3.73 9 5.77 18.61 6.01 28.33.03 1.11.92 2 2.03 2h107.21z" />
  </mask>
  <path
    d="M3189.8 1342.42c1.11 0 2.01-.89 1.99-2-.25-24.33-5.17-48.39-14.48-70.89a190.72 190.72 0 00-41.29-61.79 190.443 190.443 0 00-61.8-41.29 190.457 190.457 0 00-70.89-14.49c-1.1-.01-2 .89-2 1.99v107.22c0 1.1.9 2 2 2.03a79.28 79.28 0 0128.33 6 79.202 79.202 0 0125.71 17.18c7.36 7.36 13.2 16.1 17.18 25.71 3.73 9 5.77 18.61 6.01 28.33.03 1.11.92 2 2.03 2h107.21z"
    fill="#fff" stroke="#FFDC61" stroke-width="2" mask="url(#prefix__e)" />
  <mask id="prefix__f" fill="#fff">
    <path
      d="M3001.33 1153.95c0-1.1-.89-2-2-1.99-24.33.26-48.39 5.18-70.89 14.49a190.507 190.507 0 00-103.08 103.08 190.737 190.737 0 00-14.49 70.89c-.01 1.11.89 2 1.99 2h107.22c1.11 0 2-.89 2.03-2 .24-9.72 2.28-19.33 6-28.33a79.415 79.415 0 0117.18-25.71 79.35 79.35 0 0125.72-17.18c8.99-3.72 18.6-5.76 28.32-6 1.11-.03 2-.93 2-2.03v-107.22z" />
  </mask>
  <path
    d="M3001.33 1153.95c0-1.1-.89-2-2-1.99-24.33.26-48.39 5.18-70.89 14.49a190.507 190.507 0 00-103.08 103.08 190.737 190.737 0 00-14.49 70.89c-.01 1.11.89 2 1.99 2h107.22c1.11 0 2-.89 2.03-2 .24-9.72 2.28-19.33 6-28.33a79.415 79.415 0 0117.18-25.71 79.35 79.35 0 0125.72-17.18c8.99-3.72 18.6-5.76 28.32-6 1.11-.03 2-.93 2-2.03v-107.22z"
    fill="#89C78F" stroke="#FFDC61" stroke-width="2" mask="url(#prefix__f)" />
  <rect x="2811.36" y="1342.92" width="109.572" height="278.335" rx="1.5" fill="#fff" stroke="#FFDC61" />
  <rect x="3081.74" y="1342.92" width="109.572" height="278.335" rx="1.5" fill="#fff" stroke="#FFDC61" />
  <mask id="prefix__g" fill="#fff">
    <path
      d="M2008.85 864.086c1.1 0 2-.895 1.99-2a190.493 190.493 0 00-55.78-132.682 190.456 190.456 0 00-132.68-55.777c-1.1-.012-2 .885-2 1.989v107.217c0 1.105.9 1.997 2 2.025a79.247 79.247 0 0154.04 23.188 79.196 79.196 0 0117.18 25.711 79.3 79.3 0 016.01 28.329c.03 1.105.92 2 2.02 2h107.22z" />
  </mask>
  <path
    d="M2008.85 864.086c1.1 0 2-.895 1.99-2a190.493 190.493 0 00-55.78-132.682 190.456 190.456 0 00-132.68-55.777c-1.1-.012-2 .885-2 1.989v107.217c0 1.105.9 1.997 2 2.025a79.247 79.247 0 0154.04 23.188 79.196 79.196 0 0117.18 25.711 79.3 79.3 0 016.01 28.329c.03 1.105.92 2 2.02 2h107.22z"
    fill="#fff" stroke="#FFDC61" stroke-width="2" mask="url(#prefix__g)" />
  <mask id="prefix__h" fill="#fff">
    <path
      d="M1563.51 873.466c1.1 0 2-.896 1.96-1.999a46.329 46.329 0 00-3.48-15.69 46.215 46.215 0 00-25.02-25.017 46.213 46.213 0 00-15.69-3.476c-1.1-.047-2 .853-2 1.957v22.991c0 1.105.9 1.99 2 2.104 1.84.192 3.65.649 5.36 1.36 2.34.967 4.46 2.384 6.24 4.17a19.064 19.064 0 014.17 6.24 19.188 19.188 0 011.36 5.364c.12 1.098 1 1.996 2.11 1.996h22.99z" />
  </mask>
  <path
    d="M1563.51 873.466c1.1 0 2-.896 1.96-1.999a46.329 46.329 0 00-3.48-15.69 46.215 46.215 0 00-25.02-25.017 46.213 46.213 0 00-15.69-3.476c-1.1-.047-2 .853-2 1.957v22.991c0 1.105.9 1.99 2 2.104 1.84.192 3.65.649 5.36 1.36 2.34.967 4.46 2.384 6.24 4.17a19.064 19.064 0 014.17 6.24 19.188 19.188 0 011.36 5.364c.12 1.098 1 1.996 2.11 1.996h22.99z"
    fill="#fff" stroke="#FFDC61" stroke-width="2" mask="url(#prefix__h)" />
  <mask id="prefix__i" fill="#fff">
    <path
      d="M1820.38 675.617c0-1.105-.9-2.002-2-1.99-24.33.256-48.4 5.171-70.89 14.488a190.37 190.37 0 00-61.79 41.289 190.392 190.392 0 00-41.29 61.793 190.498 190.498 0 00-14.49 70.89c-.01 1.104.89 2 1.99 2h107.22c1.1 0 1.99-.896 2.02-2a79.3 79.3 0 016.01-28.329 79.19 79.19 0 0117.18-25.712 79.245 79.245 0 0154.04-23.187c1.1-.028 2-.921 2-2.026V675.617z" />
  </mask>
  <path
    d="M1820.38 675.617c0-1.105-.9-2.002-2-1.99-24.33.256-48.4 5.171-70.89 14.488a190.37 190.37 0 00-61.79 41.289 190.392 190.392 0 00-41.29 61.793 190.498 190.498 0 00-14.49 70.89c-.01 1.104.89 2 1.99 2h107.22c1.1 0 1.99-.896 2.02-2a79.3 79.3 0 016.01-28.329 79.19 79.19 0 0117.18-25.712 79.245 79.245 0 0154.04-23.187c1.1-.028 2-.921 2-2.026V675.617z"
    fill="#fff" stroke="#FFDC61" stroke-width="2" mask="url(#prefix__i)" />
  <mask id="prefix__j" fill="#fff">
    <path
      d="M1519.28 829.241c0-1.105-.89-2.005-2-1.957a46.294 46.294 0 00-15.69 3.476 46.265 46.265 0 00-14.99 10.02 46.21 46.21 0 00-10.02 14.996 46.34 46.34 0 00-3.48 15.691c-.05 1.103.85 1.999 1.96 1.999h22.99c1.1 0 1.99-.898 2.1-1.996.2-1.841.65-3.648 1.36-5.365a19.389 19.389 0 014.17-6.239 19.307 19.307 0 016.24-4.17 19.306 19.306 0 015.37-1.36c1.1-.115 1.99-.999 1.99-2.104v-22.991z" />
  </mask>
  <path
    d="M1519.28 829.241c0-1.105-.89-2.005-2-1.957a46.294 46.294 0 00-15.69 3.476 46.265 46.265 0 00-14.99 10.02 46.21 46.21 0 00-10.02 14.996 46.34 46.34 0 00-3.48 15.691c-.05 1.103.85 1.999 1.96 1.999h22.99c1.1 0 1.99-.898 2.1-1.996.2-1.841.65-3.648 1.36-5.365a19.389 19.389 0 014.17-6.239 19.307 19.307 0 016.24-4.17 19.306 19.306 0 015.37-1.36c1.1-.115 1.99-.999 1.99-2.104v-22.991z"
    fill="#fff" stroke="#FFDC61" stroke-width="2" mask="url(#prefix__j)" />
  <rect x="1630.41" y="864.585" width="109.572" height="315.407" rx="1.5" fill="#fff" stroke="#FFDC61" />
  <rect x="1900.78" y="864.585" width="109.572" height="278.335" rx="1.5" fill="#fff" stroke="#FFDC61" />
  <rect x="3638.01" y="479.23" width="125.53" height="198.496" rx="1.5" transform="rotate(90 3638.01 479.23)"
    fill="#fff" stroke="#FFDC61" />
  <mask id="prefix__k" fill="#fff">
    <path fill-rule="evenodd" clip-rule="evenodd"
      d="M3742.69 607.262c0-1.105-.89-2-2-2h-403.86c-1.1 0-2 .895-2 2v189.981c0 1.105.9 2 2 2h89.19c0-62.265 50.48-112.741 112.74-112.741 61.6 0 111.66 49.394 112.73 110.733.02 1.105.91 2.008 2.02 2.008h87.18c1.11 0 2-.895 2-2V607.262z" />
  </mask>
  <path fill-rule="evenodd" clip-rule="evenodd"
    d="M3742.69 607.262c0-1.105-.89-2-2-2h-403.86c-1.1 0-2 .895-2 2v189.981c0 1.105.9 2 2 2h89.19c0-62.265 50.48-112.741 112.74-112.741 61.6 0 111.66 49.394 112.73 110.733.02 1.105.91 2.008 2.02 2.008h87.18c1.11 0 2-.895 2-2V607.262z"
    fill="#fff" />
  <path
    d="M3740.69 799.243v-1 1zm-89.2-2.008l-1 .018 1-.018zm2.02 2.008v-1 1zm-316.68-192.981h403.86v-2h-403.86v2zm-1 190.981V607.262h-2v189.981h2zm90.19 1h-89.19v2h89.19v-2zm1 1c0-61.713 50.03-111.741 111.74-111.741v-2c-62.81 0-113.74 50.923-113.74 113.741h2zm111.74-111.741c61.05 0 110.67 48.956 111.73 109.751l2-.035c-1.08-61.884-51.58-111.716-113.73-111.716v2zm201.93 110.741h-87.18v2h87.18v-2zm1-190.981v189.981h2V607.262h-2zm-1 192.981c1.66 0 3-1.343 3-3h-2c0 .552-.44 1-1 1v2zm-314.67 0c.56 0 1-.448 1-1h-2c0-.552.45-1 1-1v2zm-92.19-3c0 1.657 1.35 3 3 3v-2c-.55 0-1-.448-1-1h-2zm316.66.01c.03 1.633 1.35 2.99 3.02 2.99v-2c-.55 0-1.01-.45-1.02-1.025l-2 .035zm90.2-190.991c.56 0 1 .447 1 1h2c0-1.657-1.34-3-3-3v2zm-403.86-2c-1.65 0-3 1.343-3 3h2c0-.553.45-1 1-1v-2z"
    fill="#FFDC61" mask="url(#prefix__k)" />
  <rect x="3860.34" y="702.753" width="95.991" height="95.991" rx="1.5" fill="#FFDC61" stroke="#FFDC61" />
  <rect x="392.714" y="1748.79" width="99.647" height="243.712" rx="1.5" fill="#E4A5B2" stroke="#FFDC61" />
  <rect x="1364.57" y="690.254" width="125.53" height="1364.07" rx="1.5" transform="rotate(90 1364.57 690.254)"
    fill="#fff" stroke="#FFDC61" />
  <rect x="982.81" y="162.771" width="96.67" height="419.696" rx="1.5" fill="#fff" stroke="#FFDC61" />
  <rect x="1080.48" y="162.771" width="96.67" height="419.696" rx="1.5" fill="#E4A5B2" stroke="#FFDC61" />
  <rect x="1129.32" y="583.467" width="96.67" height="105.785" rx="1.5" fill="#fff" stroke="#FFDC61" />
  <rect x="1031.65" y="583.467" width="96.67" height="105.785" rx="1.5" fill="#89C78F" stroke="#FFDC61" />
  <rect x="933.974" y="583.467" width="96.67" height="105.785" rx="1.5" fill="#fff" stroke="#FFDC61" />
  <path
    d="M1082.32 1.853l89.99 155.859c1.04 1.805-.26 4.06-2.35 4.06H989.992c-2.083 0-3.385-2.255-2.343-4.06L1077.63 1.853c1.05-1.804 3.65-1.804 4.69 0z"
    fill="#fff" stroke="#FFDC61" />
  <path
    d="M1229.64 587.56l55.4 66.872c.81.977.11 2.457-1.16 2.457h-55.39a1.5 1.5 0 01-1.5-1.5v-66.872c0-1.406 1.75-2.039 2.65-.957z"
    fill="#4E4ADC" stroke="#FFDC61" />
  <path
    d="M930.319 587.56l-55.398 66.872c-.81.977-.115 2.457 1.155 2.457h55.398a1.5 1.5 0 001.5-1.5v-66.872c0-1.406-1.758-2.039-2.655-.957zM1496.59 874.46l-11.16 36.495-11.16-36.495a.923.923 0 010-.467c.01-.009.01-.018.01-.026h22.3c.01.008.01.017.01.026.04.133.05.315 0 .467zM1562.72 874.46l-11.16 36.495-11.16-36.495a.923.923 0 010-.467c0-.009.01-.018.01-.026h22.3c0 .008.01.017.01.026.04.133.04.315 0 .467z"
    fill="#fff" stroke="#FFDC61" />
  <rect x="497.442" y="1369.2" width="125.53" height="198.496" rx="1.5" transform="rotate(90 497.442 1369.2)"
    fill="#fff" stroke="#FFDC61" />
  <rect x="2277.4" y="454.1" width="125.53" height="260.766" rx="1.5" transform="rotate(90 2277.4 454.1)" fill="#E4A5B2"
    stroke="#FFDC61" />
  <path
    d="M2277.4 322.278v59.125a1.5 1.5 0 01-1.5 1.5h-257.77a1.5 1.5 0 01-1.5-1.5v-59.125c0-13.531 10.97-24.5 24.5-24.5h211.77c13.53 0 24.5 10.969 24.5 24.5z"
    fill="#fff" stroke="#FFDC61" />
  <path
    d="M1145.82 1227.17c26.76 48.32 29.57 191.37 15.51 257.12-.11.49-.37.88-.77 1.17-31.41 22.34-106.97 61.15-68.15 12.96 39.07-48.49 44.26-219.88 33.57-248.64-10.68-28.77-7.02-71.1 19.84-22.61z"
    fill="#fff" />
  <path fill-rule="evenodd" clip-rule="evenodd"
    d="M916.385 1244.65a106.438 106.438 0 01-1.906-20.1c0-58.51 47.426-105.93 105.931-105.93 58.5 0 105.93 47.42 105.93 105.93 0 6.87-.66 13.59-1.91 20.1-9.39-48.89-52.39-85.82-104.02-85.82-51.63 0-94.632 36.93-104.025 85.82z"
    fill="#fff" />
  <path fill-rule="evenodd" clip-rule="evenodd"
    d="M946.193 1121a89.12 89.12 0 015.128-16.11c19.191-45.06 71.279-66.04 116.339-46.84 45.06 19.19 66.04 71.27 46.85 116.34a89.884 89.884 0 01-8.07 14.86c8.81-40.74-12.2-83.29-51.97-100.23-39.77-16.94-85.004-2.59-108.277 31.98zM1130.76 1222.25c-.81-4.2-1.23-8.53-1.23-12.96 0-37.7 30.56-68.26 68.26-68.26s68.26 30.56 68.26 68.26c0 4.43-.42 8.76-1.23 12.96-6.05-31.51-33.76-55.31-67.03-55.31s-60.98 23.8-67.03 55.31z"
    fill="#fff" />
  <path fill-rule="evenodd" clip-rule="evenodd"
    d="M1135.36 1222.77a85.998 85.998 0 01-10.37-12.37c-26.52-38.5-16.82-91.21 21.68-117.74 38.5-26.52 91.22-16.82 117.74 21.68a85.3 85.3 0 017.86 14.1c-28.34-27.92-73.39-32.72-107.36-9.32-33.98 23.41-45.53 67.22-29.55 103.65z"
    fill="#fff" />
  <rect x=".5" y=".5" width="61.591" height="571.334" rx="26.5" transform="matrix(0 1 1 0 715.804 1558.49)" fill="#fff"
    stroke="#FFDC61" />
  <rect x=".5" y=".5" width="61.591" height="571.334" rx="26.5" transform="matrix(0 1 1 0 715.804 1495.23)" fill="#fff"
    stroke="#FFDC61" />
  <rect x=".5" y=".5" width="61.591" height="571.334" rx="26.5" transform="matrix(0 1 1 0 715.804 1432.64)"
    fill="#E4A5B2" stroke="#FFDC61" />
  <rect x="589.833" y="1495.73" width="125.53" height="383.462" rx="1.5" transform="rotate(90 589.833 1495.73)"
    fill="#99CEFF" stroke="#FFDC61" />
  <rect x="733.543" y="1242.67" width="125.53" height="704.604" rx="1.5" transform="rotate(90 733.543 1242.67)"
    fill="#fff" stroke="#FFDC61" />
  <rect x="2372.2" y="385.026" width="66.951" height="910.65" rx="15.86" transform="rotate(90 2372.2 385.026)"
    fill="#fff" stroke="#FFDC61" />
  <rect x="398.693" y="816.783" width="85.111" height="424.415" rx="1.5" fill="#fff" stroke="#FFDC61" />
  <rect x="2147.51" y="583.467" width="85.111" height="559.452" rx="1.5" fill="#fff" stroke="#FFDC61" />
  <rect x="312.589" y="816.783" width="85.111" height="424.415" rx="1.5" fill="#fff" stroke="#FFDC61" />
  <rect x="2061.41" y="583.467" width="85.111" height="559.452" rx="1.5" fill="#fff" stroke="#FFDC61" />
  <rect x="1752" y="1622.26" width="125.53" height="1532.82" rx="1.5" transform="rotate(90 1752 1622.26)" fill="#fff"
    stroke="#FFDC61" />
  <rect x="192.17" y="1145.21" width="95.991" height="95.991" rx="1.5" fill="#CD273C" stroke="#FFDC61" />
  <path
    d="M833.16 1244.34c-40.158-69.99-107.981-81.93-138.618-79.14-1.012.09-1.748.95-1.748 1.97v44.46c0 1.11.898 2 2.002 2.01 35.618.37 67.763 10.68 94.5 55.55 39.832 66.85 86.882 108.72 145.669 109.65a1.98 1.98 0 002.007-1.98v-41.4c0-1.11-.891-2-1.995-2.03-27.391-.85-61.854-19.44-101.817-89.09z"
    fill="#BB6E66" />
  <rect width="196.64" height="54.606" rx="2" transform="matrix(0 1 1 0 661.452 1045.06)" fill="#fff" />
  <rect width="60.062" height="64.514" rx="2" transform="matrix(0 1 1 0 596.938 1181.64)" fill="#fff" />
  <rect width="36.654" height="54.084" rx="2" transform="matrix(0 1 1 0 575.111 1205.04)" fill="#fff" />
  <rect width="60.062" height="64.514" rx="2" transform="matrix(0 1 1 0 629.195 1159.84)" fill="#fff" />
  <rect x="591.212" y="369.74" width="125.53" height="198.496" rx="1.5" transform="rotate(90 591.212 369.74)"
    fill="#89C78F" stroke="#FFDC61" />
  <mask id="prefix__l" fill="#fff">
    <path fill-rule="evenodd" clip-rule="evenodd"
      d="M695.894 497.77a2 2 0 00-2-2H290.036a2 2 0 00-2 2v189.981a2 2 0 002 2h89.188c0-62.265 50.476-112.741 112.741-112.741s112.741 50.476 112.741 112.741h89.188a2 2 0 002-2V497.77z" />
  </mask>
  <path fill-rule="evenodd" clip-rule="evenodd"
    d="M695.894 497.77a2 2 0 00-2-2H290.036a2 2 0 00-2 2v189.981a2 2 0 002 2h89.188c0-62.265 50.476-112.741 112.741-112.741s112.741 50.476 112.741 112.741h89.188a2 2 0 002-2V497.77z"
    fill="#fff" />
  <path
    d="M290.036 496.77h403.858v-2H290.036v2zm-1 190.981V497.77h-2v189.981h2zm90.187 1h-89.187v2h89.187v-2zm1.001 1c0-61.713 50.028-111.741 111.741-111.741v-2c-62.818 0-113.741 50.923-113.741 113.741h2zM491.965 578.01c61.713 0 111.741 50.028 111.741 111.741h2c0-62.818-50.924-113.741-113.741-113.741v2zm201.929 110.741h-89.187v2h89.187v-2zm1-190.981v189.981h2V497.77h-2zm-1 192.981a3 3 0 003-3h-2a1 1 0 01-1 1v2zm-314.671 0a1 1 0 001.001-1h-2a1 1 0 01.999-1v2zm224.483-1a1 1 0 001.001 1v-2a1 1 0 01.999 1h-2zm-316.67-2a3 3 0 003 3v-2a1 1 0 01-1-1h-2zM693.894 496.77a1 1 0 011 1h2a3 3 0 00-3-3v2zm-403.858-2a3 3 0 00-3 3h2a1 1 0 011-1v-2z"
    fill="#FFDC61" mask="url(#prefix__l)" />
  <rect x="730.466" y="593.261" width="95.991" height="95.991" rx="1.5" fill="#FFDC61" stroke="#FFDC61" />
  <rect x="578.393" y="165.901" width="61.987" height="203.453" rx="2" transform="rotate(75 578.393 165.901)"
    fill="#fff" />
  <rect x="475.89" y="214.251" width="21.642" height="130.422" rx="2" transform="rotate(75 475.89 214.251)"
    fill="#fff" />
  <rect x="489.876" y="241.582" width="9.511" height="130.422" rx="2" transform="rotate(16.692 489.876 241.582)"
    fill="#fff" />
  <rect width="9.511" height="130.422" rx="2" transform="scale(-1 1) rotate(16.692 -1072.872 -1579.895)" fill="#fff" />
  <rect x="620.071" y="132.643" width="104.665" height="101.57" rx="2" transform="rotate(75 620.071 132.643)"
    fill="#fff" />
  <path stroke="#fff" stroke-width="2" d="M1534.85 453.6v379.871M1504.07 453.6v379.871" />
  <circle cx="1520.55" cy="418.501" r="19.316" fill="#FFDC61" />
  <circle cx="2312.94" cy="418.501" r="19.316" fill="#FFDC61" />
</svg>
