<svg width="4000" height="1993" viewBox="0 0 4000 1993" fill="none" xmlns="http://www.w3.org/2000/svg">
<rect x="1613.93" y="1180.99" width="142.517" height="155.91" rx="1.5" fill="white" stroke="#FFDC61"/>
<mask id="path-2-inside-1_173_90" fill="white">
<path fill-rule="evenodd" clip-rule="evenodd" d="M2253.43 1145.42C2253.43 1144.32 2252.54 1143.42 2251.43 1143.42H1847.58C1846.47 1143.42 1845.58 1144.32 1845.58 1145.42V1335.4C1845.58 1336.51 1846.47 1337.4 1847.58 1337.4H1936.76C1936.76 1337.4 1936.76 1337.4 1936.76 1337.4V1337.4C1936.76 1275.14 1987.24 1224.66 2049.51 1224.66C2111.77 1224.66 2162.25 1275.14 2162.25 1337.4V1337.4C2162.25 1337.4 2162.25 1337.4 2162.25 1337.4H2251.43C2252.54 1337.4 2253.43 1336.51 2253.43 1335.4V1145.42Z"/>
</mask>
<path fill-rule="evenodd" clip-rule="evenodd" d="M2253.43 1145.42C2253.43 1144.32 2252.54 1143.42 2251.43 1143.42H1847.58C1846.47 1143.42 1845.58 1144.32 1845.58 1145.42V1335.4C1845.58 1336.51 1846.47 1337.4 1847.58 1337.4H1936.76C1936.76 1337.4 1936.76 1337.4 1936.76 1337.4V1337.4C1936.76 1275.14 1987.24 1224.66 2049.51 1224.66C2111.77 1224.66 2162.25 1275.14 2162.25 1337.4V1337.4C2162.25 1337.4 2162.25 1337.4 2162.25 1337.4H2251.43C2252.54 1337.4 2253.43 1336.51 2253.43 1335.4V1145.42Z" fill="#99CEFF"/>
<path d="M1847.58 1144.42H2251.43V1142.42H1847.58V1144.42ZM1846.58 1335.4V1145.42H1844.58V1335.4H1846.58ZM1936.76 1336.4H1847.58V1338.4H1936.76V1336.4ZM1937.76 1337.4C1937.76 1275.69 1987.79 1225.66 2049.51 1225.66V1223.66C1986.69 1223.66 1935.76 1274.58 1935.76 1337.4H1937.76ZM2049.51 1225.66C2111.22 1225.66 2161.25 1275.69 2161.25 1337.4H2163.25C2163.25 1274.58 2112.32 1223.66 2049.51 1223.66V1225.66ZM2251.43 1336.4H2162.25V1338.4H2251.43V1336.4ZM2252.43 1145.42V1335.4H2254.43V1145.42H2252.43ZM2251.43 1338.4C2253.09 1338.4 2254.43 1337.06 2254.43 1335.4H2252.43C2252.43 1335.95 2251.99 1336.4 2251.43 1336.4V1338.4ZM1936.76 1338.4C1937.32 1338.4 1937.76 1337.95 1937.76 1337.4H1935.76C1935.76 1336.85 1936.21 1336.4 1936.76 1336.4V1338.4ZM2161.25 1337.4C2161.25 1337.95 2161.69 1338.4 2162.25 1338.4V1336.4C2162.8 1336.4 2163.25 1336.85 2163.25 1337.4H2161.25ZM1844.58 1335.4C1844.58 1337.06 1845.92 1338.4 1847.58 1338.4V1336.4C1847.02 1336.4 1846.58 1335.95 1846.58 1335.4H1844.58ZM2251.43 1144.42C2251.99 1144.42 2252.43 1144.87 2252.43 1145.42H2254.43C2254.43 1143.76 2253.09 1142.42 2251.43 1142.42V1144.42ZM1847.58 1142.42C1845.92 1142.42 1844.58 1143.76 1844.58 1145.42H1846.58C1846.58 1144.87 1847.02 1144.42 1847.58 1144.42V1142.42Z" fill="#FFDC61" mask="url(#path-2-inside-1_173_90)"/>
<rect x="3371.97" y="1748.79" width="99.6465" height="243.711" rx="1.5" fill="white" stroke="#FFDC61"/>
<rect x="2524.01" y="1748.79" width="99.6465" height="243.711" rx="1.5" fill="white" stroke="#FFDC61"/>
<rect x="2310.38" y="1465.36" width="99.6465" height="155.893" rx="1.5" fill="white" stroke="#FFDC61"/>
<rect x="1617.28" y="1465.36" width="99.6465" height="155.893" rx="1.5" fill="#BB6E66" stroke="#FFDC61"/>
<rect x="995.321" y="1748.79" width="99.6465" height="243.711" rx="1.5" fill="white" stroke="#FFDC61"/>
<rect x="894.676" y="1748.79" width="99.6465" height="243.711" rx="1.5" fill="white" stroke="#FFDC61"/>
<rect x="2608.43" y="928.758" width="99.6465" height="349.901" rx="1.5" fill="white" stroke="#FFDC61"/>
<rect x="2574.88" y="926.089" width="26.3477" height="352.184" rx="1.5" transform="rotate(4.61998 2574.88 926.089)" fill="white" stroke="#FFDC61"/>
<rect x="2599.63" y="1342.25" width="99.6465" height="279.009" rx="1.5" fill="white" stroke="#FFDC61"/>
<rect x="2737.39" y="1279.66" width="61.5906" height="198.496" rx="1.5" transform="rotate(90 2737.39 1279.66)" fill="#BB6E66" stroke="#FFDC61"/>
<rect x="3586.67" y="1622.26" width="125.53" height="1308.27" rx="1.5" transform="rotate(90 3586.67 1622.26)" fill="white" stroke="#FFDC61"/>
<rect x="3999.5" y="804.287" width="125.53" height="1609.31" rx="1.5" transform="rotate(90 3999.5 804.287)" fill="white" stroke="#FFDC61"/>
<rect x="2445.08" y="1337.9" width="125.53" height="938.582" rx="1.5" transform="rotate(90 2445.08 1337.9)" fill="white" stroke="#FFDC61"/>
<rect x="2967.96" y="382.888" width="99.6465" height="420.398" rx="1.5" fill="#E4A5B2" stroke="#FFDC61"/>
<rect x="3209.51" y="256.358" width="125.53" height="383.462" rx="1.5" transform="rotate(90 3209.51 256.358)" fill="white" stroke="#FFDC61"/>
<rect x="3117.8" y="707.295" width="95.9906" height="95.9906" rx="1.5" fill="#99CEFF" stroke="#FFDC61"/>
<rect x="3115.28" y="610.305" width="95.9906" height="95.9906" rx="22.8515" fill="#037843" stroke="#FFDC61"/>
<mask id="path-21-inside-2_173_90" fill="white">
<path fill-rule="evenodd" clip-rule="evenodd" d="M2804.19 527.695C2803.9 526.628 2804.53 525.532 2805.6 525.246L2831.13 518.404C2832.2 518.118 2833.3 518.751 2833.58 519.818L2836.06 529.059C2836.35 530.125 2835.71 531.222 2834.65 531.508L2833.79 531.738C2832.72 532.023 2832.09 533.12 2832.37 534.187L2834.32 541.443C2834.55 542.288 2835.3 542.882 2836.17 542.955C2850.31 544.139 2862.85 554.013 2866.73 568.513C2871.68 586.989 2860.72 605.979 2842.24 610.93C2823.77 615.88 2804.78 604.916 2799.83 586.44C2795.94 571.94 2801.86 557.123 2813.52 549.025C2814.24 548.525 2814.59 547.636 2814.36 546.791L2812.42 539.535C2812.13 538.468 2811.03 537.834 2809.97 538.12L2809.11 538.35C2808.04 538.636 2806.95 538.003 2806.66 536.936L2804.19 527.695Z"/>
</mask>
<path fill-rule="evenodd" clip-rule="evenodd" d="M2804.19 527.695C2803.9 526.628 2804.53 525.532 2805.6 525.246L2831.13 518.404C2832.2 518.118 2833.3 518.751 2833.58 519.818L2836.06 529.059C2836.35 530.125 2835.71 531.222 2834.65 531.508L2833.79 531.738C2832.72 532.023 2832.09 533.12 2832.37 534.187L2834.32 541.443C2834.55 542.288 2835.3 542.882 2836.17 542.955C2850.31 544.139 2862.85 554.013 2866.73 568.513C2871.68 586.989 2860.72 605.979 2842.24 610.93C2823.77 615.88 2804.78 604.916 2799.83 586.44C2795.94 571.94 2801.86 557.123 2813.52 549.025C2814.24 548.525 2814.59 547.636 2814.36 546.791L2812.42 539.535C2812.13 538.468 2811.03 537.834 2809.97 538.12L2809.11 538.35C2808.04 538.636 2806.95 538.003 2806.66 536.936L2804.19 527.695Z" fill="white"/>
<path d="M2866.73 568.513L2865.77 568.772L2866.73 568.513ZM2806.66 536.936L2805.7 537.194L2806.66 536.936ZM2812.42 539.535L2811.45 539.793L2812.42 539.535ZM2813.52 549.025L2814.09 549.846L2813.52 549.025ZM2832.37 534.187L2831.41 534.446L2832.37 534.187ZM2836.06 529.059L2835.09 529.317L2836.06 529.059ZM2804.19 527.695L2805.15 527.437L2804.19 527.695ZM2833.58 519.818L2834.55 519.56L2833.58 519.818ZM2831.39 519.37L2805.86 526.212L2805.34 524.28L2830.88 517.438L2831.39 519.37ZM2835.09 529.317L2832.62 520.077L2834.55 519.56L2837.03 528.8L2835.09 529.317ZM2833.53 530.772L2834.39 530.542L2834.9 532.474L2834.05 532.703L2833.53 530.772ZM2833.34 533.928L2835.28 541.184L2833.35 541.702L2831.41 534.446L2833.34 533.928ZM2836.25 541.959C2850.8 543.177 2863.7 553.334 2867.7 568.254L2865.77 568.772C2861.99 554.692 2849.82 545.102 2836.08 543.952L2836.25 541.959ZM2867.7 568.254C2872.79 587.263 2861.51 606.802 2842.5 611.896L2841.98 609.964C2859.93 605.156 2870.57 586.714 2865.77 568.772L2867.7 568.254ZM2842.5 611.896C2823.49 616.989 2803.95 605.708 2798.86 586.699L2800.79 586.182C2805.6 604.124 2824.04 614.771 2841.98 609.964L2842.5 611.896ZM2798.86 586.699C2794.86 571.779 2800.95 556.535 2812.95 548.203L2814.09 549.846C2802.76 557.711 2797.02 572.102 2800.79 586.182L2798.86 586.699ZM2813.4 547.049L2811.45 539.793L2813.38 539.276L2815.33 546.532L2813.4 547.049ZM2808.85 537.384L2809.71 537.154L2810.23 539.086L2809.37 539.316L2808.85 537.384ZM2805.15 527.437L2807.63 536.677L2805.7 537.194L2803.22 527.954L2805.15 527.437ZM2809.37 539.316C2807.77 539.745 2806.12 538.795 2805.7 537.194L2807.63 536.677C2807.77 537.21 2808.32 537.527 2808.85 537.384L2809.37 539.316ZM2811.45 539.793C2811.31 539.26 2810.76 538.943 2810.23 539.086L2809.71 537.154C2811.31 536.726 2812.95 537.675 2813.38 539.276L2811.45 539.793ZM2812.95 548.203C2813.34 547.93 2813.51 547.463 2813.4 547.049L2815.33 546.532C2815.67 547.808 2815.13 549.121 2814.09 549.846L2812.95 548.203ZM2835.28 541.184C2835.4 541.598 2835.77 541.919 2836.25 541.959L2836.08 543.952C2834.82 543.846 2833.7 542.978 2833.35 541.702L2835.28 541.184ZM2834.05 532.703C2833.51 532.846 2833.2 533.395 2833.34 533.928L2831.41 534.446C2830.98 532.845 2831.93 531.2 2833.53 530.772L2834.05 532.703ZM2837.03 528.8C2837.45 530.4 2836.5 532.045 2834.9 532.474L2834.39 530.542C2834.92 530.399 2835.24 529.851 2835.09 529.317L2837.03 528.8ZM2805.86 526.212C2805.33 526.355 2805.01 526.903 2805.15 527.437L2803.22 527.954C2802.79 526.354 2803.74 524.709 2805.34 524.28L2805.86 526.212ZM2830.88 517.438C2832.48 517.009 2834.12 517.959 2834.55 519.56L2832.62 520.077C2832.47 519.544 2831.93 519.227 2831.39 519.37L2830.88 517.438Z" fill="#FFDC61" mask="url(#path-21-inside-2_173_90)"/>
<rect x="2670.44" y="815.784" width="106.402" height="5.96648" transform="rotate(-75 2670.44 815.784)" fill="white"/>
<rect x="2876.52" y="805.209" width="285.11" height="5.96648" transform="rotate(-90 2876.52 805.209)" fill="white"/>
<rect width="106.402" height="5.96648" transform="matrix(-0.258819 -0.965926 -0.965926 0.258819 2777.42 815.784)" fill="white"/>
<mask id="path-26-inside-3_173_90" fill="white">
<path fill-rule="evenodd" clip-rule="evenodd" d="M2753.88 536.838C2753.88 535.733 2752.99 534.838 2751.88 534.838H2695.4C2694.3 534.838 2693.4 535.733 2693.4 536.838V559.798C2693.4 560.903 2694.3 561.798 2695.4 561.798H2701.11C2702.22 561.798 2703.11 562.694 2703.11 563.798V582.153C2703.11 583.028 2702.54 583.8 2701.71 584.078C2674.45 593.235 2654.82 618.993 2654.82 649.337C2654.82 687.349 2685.63 718.164 2723.64 718.164C2761.65 718.164 2792.47 687.349 2792.47 649.337C2792.47 618.993 2772.83 593.235 2745.57 584.078C2744.74 583.799 2744.17 583.028 2744.17 582.153V563.798C2744.17 562.694 2745.07 561.798 2746.17 561.798H2751.88C2752.99 561.798 2753.88 560.903 2753.88 559.798V536.838Z"/>
</mask>
<path fill-rule="evenodd" clip-rule="evenodd" d="M2753.88 536.838C2753.88 535.733 2752.99 534.838 2751.88 534.838H2695.4C2694.3 534.838 2693.4 535.733 2693.4 536.838V559.798C2693.4 560.903 2694.3 561.798 2695.4 561.798H2701.11C2702.22 561.798 2703.11 562.694 2703.11 563.798V582.153C2703.11 583.028 2702.54 583.8 2701.71 584.078C2674.45 593.235 2654.82 618.993 2654.82 649.337C2654.82 687.349 2685.63 718.164 2723.64 718.164C2761.65 718.164 2792.47 687.349 2792.47 649.337C2792.47 618.993 2772.83 593.235 2745.57 584.078C2744.74 583.799 2744.17 583.028 2744.17 582.153V563.798C2744.17 562.694 2745.07 561.798 2746.17 561.798H2751.88C2752.99 561.798 2753.88 560.903 2753.88 559.798V536.838Z" fill="white"/>
<path d="M2745.57 584.078L2745.26 585.026L2745.57 584.078ZM2701.71 584.078L2701.39 583.13L2701.71 584.078ZM2695.4 535.838H2751.88V533.838H2695.4V535.838ZM2694.4 559.798V536.838H2692.4V559.798H2694.4ZM2701.11 560.798H2695.4V562.798H2701.11V560.798ZM2702.11 563.798V582.153H2704.11V563.798H2702.11ZM2701.39 583.13C2673.74 592.42 2653.82 618.55 2653.82 649.337H2655.82C2655.82 619.435 2675.17 594.051 2702.03 585.026L2701.39 583.13ZM2653.82 649.337C2653.82 687.901 2685.08 719.164 2723.64 719.164V717.164C2686.18 717.164 2655.82 686.797 2655.82 649.337H2653.82ZM2723.64 719.164C2762.21 719.164 2793.47 687.901 2793.47 649.337H2791.47C2791.47 686.797 2761.1 717.164 2723.64 717.164V719.164ZM2793.47 649.337C2793.47 618.55 2773.55 592.42 2745.89 583.13L2745.26 585.026C2772.12 594.05 2791.47 619.435 2791.47 649.337H2793.47ZM2745.17 582.153V563.798H2743.17V582.153H2745.17ZM2751.88 560.798H2746.17V562.798H2751.88V560.798ZM2752.88 536.838V559.798H2754.88V536.838H2752.88ZM2751.88 562.798C2753.54 562.798 2754.88 561.455 2754.88 559.798H2752.88C2752.88 560.35 2752.44 560.798 2751.88 560.798V562.798ZM2745.17 563.798C2745.17 563.246 2745.62 562.798 2746.17 562.798V560.798C2744.52 560.798 2743.17 562.141 2743.17 563.798H2745.17ZM2745.89 583.13C2745.46 582.984 2745.17 582.585 2745.17 582.153H2743.17C2743.17 583.471 2744.03 584.615 2745.26 585.026L2745.89 583.13ZM2702.11 582.153C2702.11 582.585 2701.83 582.984 2701.39 583.13L2702.03 585.026C2703.25 584.615 2704.11 583.471 2704.11 582.153H2702.11ZM2701.11 562.798C2701.66 562.798 2702.11 563.246 2702.11 563.798H2704.11C2704.11 562.141 2702.77 560.798 2701.11 560.798V562.798ZM2692.4 559.798C2692.4 561.455 2693.74 562.798 2695.4 562.798V560.798C2694.85 560.798 2694.4 560.35 2694.4 559.798H2692.4ZM2751.88 535.838C2752.44 535.838 2752.88 536.286 2752.88 536.838H2754.88C2754.88 535.181 2753.54 533.838 2751.88 533.838V535.838ZM2695.4 533.838C2693.74 533.838 2692.4 535.181 2692.4 536.838H2694.4C2694.4 536.286 2694.85 535.838 2695.4 535.838V533.838Z" fill="#FFDC61" mask="url(#path-26-inside-3_173_90)"/>
<rect x="2662.37" y="700.738" width="122.543" height="5.96648" fill="white"/>
<rect x="2798.99" y="542.034" width="77.5249" height="5.96648" fill="white"/>
<rect x="2840.74" y="799.244" width="77.5249" height="6.96239" fill="white"/>
<mask id="path-31-inside-4_173_90" fill="white">
<path d="M3114.78 255.858C3114.78 243.121 3112.27 230.509 3107.39 218.742C3102.52 206.974 3095.37 196.282 3086.37 187.276C3077.36 178.269 3066.67 171.125 3054.9 166.251C3043.13 161.376 3030.52 158.868 3017.79 158.868C3005.05 158.868 2992.44 161.376 2980.67 166.251C2968.9 171.125 2958.21 178.269 2949.2 187.276C2940.2 196.282 2933.05 206.974 2928.18 218.742C2923.3 230.509 2920.79 243.121 2920.79 255.858L3017.79 255.858H3114.78Z"/>
</mask>
<path d="M3114.78 255.858C3114.78 243.121 3112.27 230.509 3107.39 218.742C3102.52 206.974 3095.37 196.282 3086.37 187.276C3077.36 178.269 3066.67 171.125 3054.9 166.251C3043.13 161.376 3030.52 158.868 3017.79 158.868C3005.05 158.868 2992.44 161.376 2980.67 166.251C2968.9 171.125 2958.21 178.269 2949.2 187.276C2940.2 196.282 2933.05 206.974 2928.18 218.742C2923.3 230.509 2920.79 243.121 2920.79 255.858L3017.79 255.858H3114.78Z" fill="white" stroke="#FFDC61" stroke-width="2" mask="url(#path-31-inside-4_173_90)"/>
<rect x="2948.12" y="158.868" width="29.1499" height="88.7181" transform="rotate(-30.0505 2948.12 158.868)" fill="white"/>
<path d="M2963.48 161.783C2941.31 119.035 2876.55 48.5005 2794.86 108.348C2692.74 183.157 2806.73 253.216 2813.86 225.905C2820.98 198.594 2734.74 198.167 2741.42 218.78C2756.01 263.801 2822.85 345.432 2772.3 373.149C2679.74 423.9 2816.23 453.895 2820.98 527.517" stroke="white" stroke-width="2"/>
<line x1="3353.14" y1="912.272" x2="3353.14" y2="1142.24" stroke="white" stroke-width="2"/>
<circle cx="3458.58" cy="1220.66" r="44.934" fill="white"/>
<circle cx="3206.15" cy="1097.3" r="44.934" fill="white"/>
<circle cx="3290.49" cy="1265.59" r="29.5545" fill="white"/>
<circle cx="3354.87" cy="1142.24" r="14.4948" fill="#E4A5B2"/>
<line x1="3205.81" y1="912.272" x2="3205.81" y2="1079.91" stroke="white" stroke-width="2"/>
<line x1="3457.5" y1="912.272" x2="3457.5" y2="1220.66" stroke="white" stroke-width="2"/>
<line x1="3288.21" y1="912.272" x2="3288.21" y2="1243.7" stroke="white" stroke-width="2"/>
<path d="M3576.44 1221.96C3576.44 1222.14 3576.36 1222.4 3576.06 1222.74C3575.76 1223.1 3575.26 1223.5 3574.52 1223.93C3573.05 1224.78 3570.81 1225.64 3567.83 1226.47C3561.89 1228.14 3553.24 1229.65 3542.51 1230.92C3521.05 1233.46 3491.37 1235.03 3458.58 1235.03C3425.78 1235.03 3396.11 1233.46 3374.65 1230.92C3363.92 1229.65 3355.27 1228.14 3349.33 1226.47C3346.35 1225.64 3344.11 1224.78 3342.64 1223.93C3341.9 1223.5 3341.4 1223.1 3341.09 1222.74C3340.8 1222.4 3340.72 1222.14 3340.72 1221.96C3340.72 1221.78 3340.8 1221.52 3341.09 1221.17C3341.4 1220.81 3341.9 1220.41 3342.64 1219.98C3344.11 1219.13 3346.35 1218.27 3349.33 1217.44C3355.27 1215.78 3363.92 1214.27 3374.65 1213C3396.11 1210.45 3425.78 1208.88 3458.58 1208.88C3491.37 1208.88 3521.05 1210.45 3542.51 1213C3553.24 1214.27 3561.89 1215.78 3567.83 1217.44C3570.81 1218.27 3573.05 1219.13 3574.52 1219.98C3575.26 1220.41 3575.76 1220.81 3576.06 1221.17C3576.36 1221.52 3576.44 1221.78 3576.44 1221.96Z" stroke="white" stroke-width="2"/>
<path d="M3273.78 1120.04C3273.78 1120.05 3273.77 1120.06 3273.75 1120.09C3273.72 1120.13 3273.67 1120.18 3273.57 1120.24C3273.38 1120.36 3273.05 1120.5 3272.56 1120.62C3271.57 1120.86 3270.12 1120.97 3268.21 1120.94C3264.4 1120.87 3258.99 1120.24 3252.37 1119.09C3239.13 1116.8 3221.16 1112.47 3201.61 1106.64C3182.05 1100.82 3164.64 1094.61 3152.31 1089.29C3146.13 1086.62 3141.27 1084.2 3138.04 1082.16C3136.42 1081.14 3135.27 1080.25 3134.57 1079.51C3134.23 1079.15 3134.03 1078.85 3133.93 1078.64C3133.89 1078.54 3133.87 1078.47 3133.87 1078.42C3133.86 1078.39 3133.87 1078.37 3133.87 1078.36C3133.87 1078.36 3133.87 1078.34 3133.9 1078.31C3133.93 1078.28 3133.98 1078.23 3134.07 1078.17C3134.27 1078.04 3134.59 1077.91 3135.09 1077.79C3136.07 1077.55 3137.53 1077.44 3139.44 1077.47C3143.25 1077.53 3148.65 1078.16 3155.28 1079.31C3168.51 1081.61 3186.48 1085.94 3206.04 1091.76C3225.6 1097.59 3243.01 1103.8 3255.34 1109.12C3261.51 1111.78 3266.38 1114.21 3269.61 1116.24C3271.22 1117.27 3272.38 1118.15 3273.07 1118.89C3273.42 1119.26 3273.62 1119.55 3273.71 1119.77C3273.76 1119.87 3273.78 1119.94 3273.78 1119.98C3273.79 1120.02 3273.78 1120.04 3273.78 1120.04Z" stroke="white" stroke-width="2"/>
<mask id="path-44-inside-5_173_90" fill="white">
<path d="M3189.8 1342.42C3190.91 1342.42 3191.81 1341.53 3191.79 1340.42C3191.54 1316.09 3186.62 1292.03 3177.31 1269.53C3167.73 1246.42 3153.7 1225.43 3136.02 1207.74C3118.33 1190.05 3097.33 1176.02 3074.22 1166.45C3051.73 1157.13 3027.67 1152.22 3003.33 1151.96C3002.23 1151.95 3001.33 1152.85 3001.33 1153.95L3001.33 1261.17C3001.33 1262.27 3002.23 1263.17 3003.33 1263.2C3013.06 1263.44 3022.66 1265.48 3031.66 1269.2C3041.28 1273.19 3050.02 1279.02 3057.37 1286.38C3064.73 1293.74 3070.57 1302.48 3074.55 1312.09C3078.28 1321.09 3080.32 1330.7 3080.56 1340.42C3080.59 1341.53 3081.48 1342.42 3082.59 1342.42H3189.8Z"/>
</mask>
<path d="M3189.8 1342.42C3190.91 1342.42 3191.81 1341.53 3191.79 1340.42C3191.54 1316.09 3186.62 1292.03 3177.31 1269.53C3167.73 1246.42 3153.7 1225.43 3136.02 1207.74C3118.33 1190.05 3097.33 1176.02 3074.22 1166.45C3051.73 1157.13 3027.67 1152.22 3003.33 1151.96C3002.23 1151.95 3001.33 1152.85 3001.33 1153.95L3001.33 1261.17C3001.33 1262.27 3002.23 1263.17 3003.33 1263.2C3013.06 1263.44 3022.66 1265.48 3031.66 1269.2C3041.28 1273.19 3050.02 1279.02 3057.37 1286.38C3064.73 1293.74 3070.57 1302.48 3074.55 1312.09C3078.28 1321.09 3080.32 1330.7 3080.56 1340.42C3080.59 1341.53 3081.48 1342.42 3082.59 1342.42H3189.8Z" fill="white" stroke="#FFDC61" stroke-width="2" mask="url(#path-44-inside-5_173_90)"/>
<mask id="path-45-inside-6_173_90" fill="white">
<path d="M3001.33 1153.95C3001.33 1152.85 3000.44 1151.95 2999.33 1151.96C2975 1152.22 2950.94 1157.14 2928.44 1166.45C2905.34 1176.02 2884.34 1190.05 2866.65 1207.74C2848.96 1225.43 2834.93 1246.42 2825.36 1269.53C2816.05 1292.03 2811.13 1316.09 2810.87 1340.42C2810.86 1341.53 2811.76 1342.42 2812.86 1342.42L2920.08 1342.42C2921.19 1342.42 2922.08 1341.53 2922.11 1340.42C2922.35 1330.7 2924.39 1321.09 2928.11 1312.09C2932.1 1302.48 2937.93 1293.74 2945.29 1286.38C2952.65 1279.02 2961.39 1273.19 2971.01 1269.2C2980 1265.48 2989.61 1263.44 2999.33 1263.2C3000.44 1263.17 3001.33 1262.27 3001.33 1261.17L3001.33 1153.95Z"/>
</mask>
<path d="M3001.33 1153.95C3001.33 1152.85 3000.44 1151.95 2999.33 1151.96C2975 1152.22 2950.94 1157.14 2928.44 1166.45C2905.34 1176.02 2884.34 1190.05 2866.65 1207.74C2848.96 1225.43 2834.93 1246.42 2825.36 1269.53C2816.05 1292.03 2811.13 1316.09 2810.87 1340.42C2810.86 1341.53 2811.76 1342.42 2812.86 1342.42L2920.08 1342.42C2921.19 1342.42 2922.08 1341.53 2922.11 1340.42C2922.35 1330.7 2924.39 1321.09 2928.11 1312.09C2932.1 1302.48 2937.93 1293.74 2945.29 1286.38C2952.65 1279.02 2961.39 1273.19 2971.01 1269.2C2980 1265.48 2989.61 1263.44 2999.33 1263.2C3000.44 1263.17 3001.33 1262.27 3001.33 1261.17L3001.33 1153.95Z" fill="#89C78F" stroke="#FFDC61" stroke-width="2" mask="url(#path-45-inside-6_173_90)"/>
<rect x="2811.36" y="1342.92" width="109.572" height="278.335" rx="1.5" fill="white" stroke="#FFDC61"/>
<rect x="3081.74" y="1342.92" width="109.572" height="278.335" rx="1.5" fill="white" stroke="#FFDC61"/>
<mask id="path-48-inside-7_173_90" fill="white">
<path d="M2008.85 864.086C2009.95 864.086 2010.85 863.191 2010.84 862.086C2010.58 837.754 2005.67 813.689 1996.35 791.197C1986.78 768.088 1972.75 747.09 1955.06 729.404C1937.38 711.717 1916.38 697.687 1893.27 688.115C1870.78 678.798 1846.71 673.882 1822.38 673.627C1821.28 673.615 1820.38 674.512 1820.38 675.616L1820.38 782.833C1820.38 783.938 1821.28 784.83 1822.38 784.858C1832.11 785.104 1841.71 787.138 1850.71 790.866C1860.32 794.849 1869.06 800.686 1876.42 808.046C1883.78 815.405 1889.62 824.142 1893.6 833.757C1897.33 842.756 1899.36 852.36 1899.61 862.086C1899.64 863.191 1900.53 864.086 1901.63 864.086H2008.85Z"/>
</mask>
<path d="M2008.85 864.086C2009.95 864.086 2010.85 863.191 2010.84 862.086C2010.58 837.754 2005.67 813.689 1996.35 791.197C1986.78 768.088 1972.75 747.09 1955.06 729.404C1937.38 711.717 1916.38 697.687 1893.27 688.115C1870.78 678.798 1846.71 673.882 1822.38 673.627C1821.28 673.615 1820.38 674.512 1820.38 675.616L1820.38 782.833C1820.38 783.938 1821.28 784.83 1822.38 784.858C1832.11 785.104 1841.71 787.138 1850.71 790.866C1860.32 794.849 1869.06 800.686 1876.42 808.046C1883.78 815.405 1889.62 824.142 1893.6 833.757C1897.33 842.756 1899.36 852.36 1899.61 862.086C1899.64 863.191 1900.53 864.086 1901.63 864.086H2008.85Z" fill="white" stroke="#FFDC61" stroke-width="2" mask="url(#path-48-inside-7_173_90)"/>
<mask id="path-49-inside-8_173_90" fill="white">
<path d="M1563.51 873.466C1564.61 873.466 1565.51 872.57 1565.47 871.467C1565.23 866.079 1564.06 860.768 1561.99 855.777C1559.67 850.168 1556.26 845.073 1551.97 840.78C1547.68 836.488 1542.58 833.083 1536.97 830.76C1531.98 828.692 1526.67 827.518 1521.28 827.284C1520.18 827.237 1519.28 828.137 1519.28 829.241L1519.28 852.232C1519.28 853.337 1520.18 854.222 1521.28 854.336C1523.12 854.528 1524.93 854.985 1526.64 855.696C1528.98 856.663 1531.1 858.08 1532.88 859.866C1534.67 861.652 1536.09 863.772 1537.05 866.106C1537.76 867.822 1538.22 869.629 1538.41 871.47C1538.53 872.568 1539.41 873.466 1540.52 873.466H1563.51Z"/>
</mask>
<path d="M1563.51 873.466C1564.61 873.466 1565.51 872.57 1565.47 871.467C1565.23 866.079 1564.06 860.768 1561.99 855.777C1559.67 850.168 1556.26 845.073 1551.97 840.78C1547.68 836.488 1542.58 833.083 1536.97 830.76C1531.98 828.692 1526.67 827.518 1521.28 827.284C1520.18 827.237 1519.28 828.137 1519.28 829.241L1519.28 852.232C1519.28 853.337 1520.18 854.222 1521.28 854.336C1523.12 854.528 1524.93 854.985 1526.64 855.696C1528.98 856.663 1531.1 858.08 1532.88 859.866C1534.67 861.652 1536.09 863.772 1537.05 866.106C1537.76 867.822 1538.22 869.629 1538.41 871.47C1538.53 872.568 1539.41 873.466 1540.52 873.466H1563.51Z" fill="white" stroke="#FFDC61" stroke-width="2" mask="url(#path-49-inside-8_173_90)"/>
<mask id="path-50-inside-9_173_90" fill="white">
<path d="M1820.38 675.617C1820.38 674.512 1819.48 673.615 1818.38 673.627C1794.05 673.883 1769.98 678.798 1747.49 688.115C1724.38 697.687 1703.38 711.717 1685.7 729.404C1668.01 747.091 1653.98 768.088 1644.41 791.197C1635.09 813.69 1630.18 837.754 1629.92 862.087C1629.91 863.191 1630.81 864.087 1631.91 864.087L1739.13 864.087C1740.23 864.087 1741.12 863.191 1741.15 862.087C1741.4 852.361 1743.43 842.757 1747.16 833.758C1751.14 824.142 1756.98 815.405 1764.34 808.046C1771.7 800.687 1780.44 794.849 1790.05 790.866C1799.05 787.139 1808.65 785.104 1818.38 784.859C1819.48 784.831 1820.38 783.938 1820.38 782.833L1820.38 675.617Z"/>
</mask>
<path d="M1820.38 675.617C1820.38 674.512 1819.48 673.615 1818.38 673.627C1794.05 673.883 1769.98 678.798 1747.49 688.115C1724.38 697.687 1703.38 711.717 1685.7 729.404C1668.01 747.091 1653.98 768.088 1644.41 791.197C1635.09 813.69 1630.18 837.754 1629.92 862.087C1629.91 863.191 1630.81 864.087 1631.91 864.087L1739.13 864.087C1740.23 864.087 1741.12 863.191 1741.15 862.087C1741.4 852.361 1743.43 842.757 1747.16 833.758C1751.14 824.142 1756.98 815.405 1764.34 808.046C1771.7 800.687 1780.44 794.849 1790.05 790.866C1799.05 787.139 1808.65 785.104 1818.38 784.859C1819.48 784.831 1820.38 783.938 1820.38 782.833L1820.38 675.617Z" fill="white" stroke="#FFDC61" stroke-width="2" mask="url(#path-50-inside-9_173_90)"/>
<mask id="path-51-inside-10_173_90" fill="white">
<path d="M1519.28 829.241C1519.28 828.136 1518.39 827.236 1517.28 827.284C1511.9 827.517 1506.59 828.692 1501.59 830.76C1495.99 833.083 1490.89 836.488 1486.6 840.78C1482.31 845.072 1478.9 850.168 1476.58 855.776C1474.51 860.768 1473.34 866.079 1473.1 871.467C1473.05 872.57 1473.95 873.466 1475.06 873.466L1498.05 873.466C1499.15 873.466 1500.04 872.568 1500.15 871.47C1500.35 869.629 1500.8 867.822 1501.51 866.105C1502.48 863.772 1503.9 861.652 1505.68 859.866C1507.47 858.079 1509.59 856.663 1511.92 855.696C1513.64 854.985 1515.45 854.528 1517.29 854.336C1518.39 854.221 1519.28 853.337 1519.28 852.232L1519.28 829.241Z"/>
</mask>
<path d="M1519.28 829.241C1519.28 828.136 1518.39 827.236 1517.28 827.284C1511.9 827.517 1506.59 828.692 1501.59 830.76C1495.99 833.083 1490.89 836.488 1486.6 840.78C1482.31 845.072 1478.9 850.168 1476.58 855.776C1474.51 860.768 1473.34 866.079 1473.1 871.467C1473.05 872.57 1473.95 873.466 1475.06 873.466L1498.05 873.466C1499.15 873.466 1500.04 872.568 1500.15 871.47C1500.35 869.629 1500.8 867.822 1501.51 866.105C1502.48 863.772 1503.9 861.652 1505.68 859.866C1507.47 858.079 1509.59 856.663 1511.92 855.696C1513.64 854.985 1515.45 854.528 1517.29 854.336C1518.39 854.221 1519.28 853.337 1519.28 852.232L1519.28 829.241Z" fill="white" stroke="#FFDC61" stroke-width="2" mask="url(#path-51-inside-10_173_90)"/>
<rect x="1630.41" y="864.585" width="109.572" height="315.407" rx="1.5" fill="white" stroke="#FFDC61"/>
<rect x="1900.78" y="864.585" width="109.572" height="278.335" rx="1.5" fill="white" stroke="#FFDC61"/>
<rect x="3638.01" y="479.23" width="125.53" height="198.496" rx="1.5" transform="rotate(90 3638.01 479.23)" fill="white" stroke="#FFDC61"/>
<mask id="path-55-inside-11_173_90" fill="white">
<path fill-rule="evenodd" clip-rule="evenodd" d="M3742.69 607.262C3742.69 606.157 3741.8 605.262 3740.69 605.262H3336.83C3335.73 605.262 3334.83 606.157 3334.83 607.262V797.243C3334.83 798.348 3335.73 799.243 3336.83 799.243H3426.02C3426.02 799.243 3426.02 799.243 3426.02 799.243V799.243C3426.02 736.978 3476.5 686.502 3538.76 686.502C3600.36 686.502 3650.42 735.896 3651.49 797.235C3651.51 798.34 3652.4 799.243 3653.51 799.243L3740.69 799.243C3741.8 799.243 3742.69 798.348 3742.69 797.243V607.262Z"/>
</mask>
<path fill-rule="evenodd" clip-rule="evenodd" d="M3742.69 607.262C3742.69 606.157 3741.8 605.262 3740.69 605.262H3336.83C3335.73 605.262 3334.83 606.157 3334.83 607.262V797.243C3334.83 798.348 3335.73 799.243 3336.83 799.243H3426.02C3426.02 799.243 3426.02 799.243 3426.02 799.243V799.243C3426.02 736.978 3476.5 686.502 3538.76 686.502C3600.36 686.502 3650.42 735.896 3651.49 797.235C3651.51 798.34 3652.4 799.243 3653.51 799.243L3740.69 799.243C3741.8 799.243 3742.69 798.348 3742.69 797.243V607.262Z" fill="white"/>
<path d="M3740.69 799.243L3740.69 798.243L3740.69 799.243ZM3651.49 797.235L3650.49 797.253L3651.49 797.235ZM3653.51 799.243L3653.51 798.243L3653.51 799.243ZM3336.83 606.262H3740.69V604.262H3336.83V606.262ZM3335.83 797.243V607.262H3333.83V797.243H3335.83ZM3426.02 798.243H3336.83V800.243H3426.02V798.243ZM3427.02 799.243C3427.02 737.53 3477.05 687.502 3538.76 687.502V685.502C3475.95 685.502 3425.02 736.425 3425.02 799.243H3427.02ZM3538.76 687.502C3599.81 687.502 3649.43 736.458 3650.49 797.253L3652.49 797.218C3651.41 735.334 3600.91 685.502 3538.76 685.502V687.502ZM3740.69 798.243L3653.51 798.243L3653.51 800.243L3740.69 800.243L3740.69 798.243ZM3741.69 607.262V797.243H3743.69V607.262H3741.69ZM3740.69 800.243C3742.35 800.243 3743.69 798.9 3743.69 797.243H3741.69C3741.69 797.795 3741.25 798.243 3740.69 798.243L3740.69 800.243ZM3426.02 800.243C3426.58 800.243 3427.02 799.795 3427.02 799.243H3425.02C3425.02 798.691 3425.47 798.243 3426.02 798.243V800.243ZM3333.83 797.243C3333.83 798.9 3335.18 800.243 3336.83 800.243V798.243C3336.28 798.243 3335.83 797.795 3335.83 797.243H3333.83ZM3650.49 797.253C3650.52 798.886 3651.84 800.243 3653.51 800.243L3653.51 798.243C3652.96 798.243 3652.5 797.793 3652.49 797.218L3650.49 797.253ZM3740.69 606.262C3741.25 606.262 3741.69 606.709 3741.69 607.262H3743.69C3743.69 605.605 3742.35 604.262 3740.69 604.262V606.262ZM3336.83 604.262C3335.18 604.262 3333.83 605.605 3333.83 607.262H3335.83C3335.83 606.709 3336.28 606.262 3336.83 606.262V604.262Z" fill="#FFDC61" mask="url(#path-55-inside-11_173_90)"/>
<rect x="3860.34" y="702.753" width="95.9906" height="95.9906" rx="1.5" fill="#FFDC61" stroke="#FFDC61"/>
<rect x="392.714" y="1748.79" width="99.6465" height="243.712" rx="1.5" fill="#E4A5B2" stroke="#FFDC61"/>
<rect x="1364.57" y="690.254" width="125.53" height="1364.07" rx="1.5" transform="rotate(90 1364.57 690.254)" fill="white" stroke="#FFDC61"/>
<rect x="982.81" y="162.771" width="96.67" height="419.696" rx="1.5" fill="white" stroke="#FFDC61"/>
<rect x="1080.48" y="162.771" width="96.67" height="419.696" rx="1.5" fill="#E4A5B2" stroke="#FFDC61"/>
<rect x="1129.32" y="583.467" width="96.67" height="105.785" rx="1.5" fill="white" stroke="#FFDC61"/>
<rect x="1031.65" y="583.467" width="96.67" height="105.785" rx="1.5" fill="#89C78F" stroke="#FFDC61"/>
<rect x="933.974" y="583.467" width="96.67" height="105.785" rx="1.5" fill="white" stroke="#FFDC61"/>
<path d="M1082.32 1.85307L1172.31 157.712C1173.35 159.517 1172.05 161.772 1169.96 161.772H989.992C987.909 161.772 986.607 159.517 987.649 157.712L1077.63 1.85306C1078.68 0.0489776 1081.28 0.0489794 1082.32 1.85307Z" fill="white" stroke="#FFDC61"/>
<path d="M1229.64 587.56L1285.04 654.432C1285.85 655.409 1285.15 656.889 1283.88 656.889H1228.49C1227.66 656.889 1226.99 656.217 1226.99 655.389L1226.99 588.517C1226.99 587.111 1228.74 586.478 1229.64 587.56Z" fill="#4E4ADC" stroke="#FFDC61"/>
<path d="M930.319 587.56L874.921 654.432C874.111 655.409 874.806 656.889 876.076 656.889H931.474C932.303 656.889 932.974 656.217 932.974 655.389L932.974 588.517C932.974 587.111 931.216 586.478 930.319 587.56Z" fill="white" stroke="#FFDC61"/>
<path d="M1496.59 874.46L1485.43 910.955L1474.27 874.46C1474.23 874.308 1474.23 874.126 1474.27 873.993C1474.28 873.984 1474.28 873.975 1474.28 873.967L1496.58 873.967C1496.59 873.975 1496.59 873.984 1496.59 873.993C1496.63 874.126 1496.64 874.308 1496.59 874.46Z" fill="white" stroke="#FFDC61"/>
<path d="M1562.72 874.46L1551.56 910.955L1540.4 874.46C1540.36 874.308 1540.36 874.126 1540.4 873.993C1540.4 873.984 1540.41 873.975 1540.41 873.967L1562.71 873.967C1562.71 873.975 1562.72 873.984 1562.72 873.993C1562.76 874.126 1562.76 874.308 1562.72 874.46Z" fill="white" stroke="#FFDC61"/>
<rect x="497.442" y="1369.2" width="125.53" height="198.496" rx="1.5" transform="rotate(90 497.442 1369.2)" fill="white" stroke="#FFDC61"/>
<rect x="2277.4" y="454.1" width="125.53" height="260.766" rx="1.5" transform="rotate(90 2277.4 454.1)" fill="#E4A5B2" stroke="#FFDC61"/>
<path d="M2277.4 322.278L2277.4 381.403C2277.4 382.231 2276.73 382.903 2275.9 382.903L2018.13 382.903C2017.3 382.903 2016.63 382.231 2016.63 381.403L2016.63 322.278C2016.63 308.747 2027.6 297.778 2041.13 297.778L2252.9 297.778C2266.43 297.778 2277.4 308.747 2277.4 322.278Z" fill="white" stroke="#FFDC61"/>
<path d="M1145.82 1227.17C1172.58 1275.49 1175.39 1418.54 1161.33 1484.29C1161.22 1484.78 1160.96 1485.17 1160.56 1485.46C1129.15 1507.8 1053.59 1546.61 1092.41 1498.42C1131.48 1449.93 1136.67 1278.54 1125.98 1249.78C1115.3 1221.01 1118.96 1178.68 1145.82 1227.17Z" fill="white"/>
<path fill-rule="evenodd" clip-rule="evenodd" d="M916.385 1244.65C915.134 1238.14 914.479 1231.42 914.479 1224.55C914.479 1166.04 961.905 1118.62 1020.41 1118.62C1078.91 1118.62 1126.34 1166.04 1126.34 1224.55C1126.34 1231.42 1125.68 1238.14 1124.43 1244.65C1115.04 1195.76 1072.04 1158.83 1020.41 1158.83C968.78 1158.83 925.778 1195.76 916.385 1244.65Z" fill="white"/>
<path fill-rule="evenodd" clip-rule="evenodd" d="M946.193 1121C947.365 1115.58 949.066 1110.18 951.321 1104.89C970.512 1059.83 1022.6 1038.85 1067.66 1058.05C1112.72 1077.24 1133.7 1129.32 1114.51 1174.39C1112.25 1179.68 1109.54 1184.64 1106.44 1189.25C1115.25 1148.51 1094.24 1105.96 1054.47 1089.02C1014.7 1072.08 969.466 1086.43 946.193 1121Z" fill="white"/>
<path fill-rule="evenodd" clip-rule="evenodd" d="M1130.76 1222.25C1129.95 1218.05 1129.53 1213.72 1129.53 1209.29C1129.53 1171.59 1160.09 1141.03 1197.79 1141.03C1235.49 1141.03 1266.05 1171.59 1266.05 1209.29C1266.05 1213.72 1265.63 1218.05 1264.82 1222.25C1258.77 1190.74 1231.06 1166.94 1197.79 1166.94C1164.52 1166.94 1136.81 1190.74 1130.76 1222.25Z" fill="white"/>
<path fill-rule="evenodd" clip-rule="evenodd" d="M1135.36 1222.77C1131.59 1219.05 1128.11 1214.92 1124.99 1210.4C1098.47 1171.9 1108.17 1119.19 1146.67 1092.66C1185.17 1066.14 1237.89 1075.84 1264.41 1114.34C1267.53 1118.87 1270.14 1123.59 1272.27 1128.44C1243.93 1100.52 1198.88 1095.72 1164.91 1119.12C1130.93 1142.53 1119.38 1186.34 1135.36 1222.77Z" fill="white"/>
<rect x="0.5" y="0.5" width="61.5906" height="571.334" rx="26.5" transform="matrix(4.37114e-08 1 1 -4.37114e-08 715.804 1558.49)" fill="white" stroke="#FFDC61"/>
<rect x="0.5" y="0.5" width="61.5906" height="571.334" rx="26.5" transform="matrix(4.37114e-08 1 1 -4.37114e-08 715.804 1495.23)" fill="white" stroke="#FFDC61"/>
<rect x="0.5" y="0.5" width="61.5906" height="571.334" rx="26.5" transform="matrix(4.37114e-08 1 1 -4.37114e-08 715.804 1432.64)" fill="#E4A5B2" stroke="#FFDC61"/>
<rect x="589.833" y="1495.73" width="125.53" height="383.462" rx="1.5" transform="rotate(90 589.833 1495.73)" fill="#99CEFF" stroke="#FFDC61"/>
<rect x="733.543" y="1242.67" width="125.53" height="704.604" rx="1.5" transform="rotate(90 733.543 1242.67)" fill="white" stroke="#FFDC61"/>
<rect x="2372.2" y="385.026" width="66.9513" height="910.65" rx="15.86" transform="rotate(90 2372.2 385.026)" fill="white" stroke="#FFDC61"/>
<rect x="398.693" y="816.783" width="85.1112" height="424.415" rx="1.5" fill="white" stroke="#FFDC61"/>
<rect x="2147.51" y="583.467" width="85.1112" height="559.452" rx="1.5" fill="white" stroke="#FFDC61"/>
<rect x="312.589" y="816.783" width="85.1112" height="424.415" rx="1.5" fill="white" stroke="#FFDC61"/>
<rect x="2061.41" y="583.467" width="85.1112" height="559.452" rx="1.5" fill="white" stroke="#FFDC61"/>
<rect x="1752" y="1622.26" width="125.53" height="1532.82" rx="1.5" transform="rotate(90 1752 1622.26)" fill="white" stroke="#FFDC61"/>
<rect x="192.17" y="1145.21" width="95.9906" height="95.9906" rx="1.5" fill="#CD273C" stroke="#FFDC61"/>
<path d="M833.16 1244.34C793.002 1174.35 725.179 1162.41 694.542 1165.2C693.53 1165.29 692.794 1166.15 692.794 1167.17V1211.63C692.794 1212.74 693.692 1213.63 694.796 1213.64C730.414 1214.01 762.559 1224.32 789.296 1269.19C829.128 1336.04 876.178 1377.91 934.965 1378.84C936.069 1378.86 936.972 1377.96 936.972 1376.86V1335.46C936.972 1334.35 936.081 1333.46 934.977 1333.43C907.586 1332.58 873.123 1313.99 833.16 1244.34Z" fill="#BB6E66"/>
<rect width="196.64" height="54.6056" rx="2" transform="matrix(4.37114e-08 1 1 -4.37114e-08 661.452 1045.06)" fill="white"/>
<rect width="60.0624" height="64.5145" rx="2" transform="matrix(4.37114e-08 1 1 -4.37114e-08 596.938 1181.64)" fill="white"/>
<rect width="36.6543" height="54.0839" rx="2" transform="matrix(4.37114e-08 1 1 -4.37114e-08 575.111 1205.04)" fill="white"/>
<rect width="60.0624" height="64.5145" rx="2" transform="matrix(4.37114e-08 1 1 -4.37114e-08 629.195 1159.84)" fill="white"/>
<rect x="591.212" y="369.74" width="125.53" height="198.496" rx="1.5" transform="rotate(90 591.212 369.74)" fill="#89C78F" stroke="#FFDC61"/>
<mask id="path-96-inside-12_173_90" fill="white">
<path fill-rule="evenodd" clip-rule="evenodd" d="M695.894 497.77C695.894 496.665 694.999 495.77 693.894 495.77H290.036C288.931 495.77 288.036 496.665 288.036 497.77V687.751C288.036 688.856 288.931 689.751 290.036 689.751H379.223C379.223 689.751 379.224 689.751 379.224 689.751V689.751C379.224 627.486 429.7 577.01 491.965 577.01C554.23 577.01 604.706 627.486 604.706 689.751V689.751C604.706 689.751 604.706 689.751 604.707 689.751H693.894C694.999 689.751 695.894 688.856 695.894 687.751V497.77Z"/>
</mask>
<path fill-rule="evenodd" clip-rule="evenodd" d="M695.894 497.77C695.894 496.665 694.999 495.77 693.894 495.77H290.036C288.931 495.77 288.036 496.665 288.036 497.77V687.751C288.036 688.856 288.931 689.751 290.036 689.751H379.223C379.223 689.751 379.224 689.751 379.224 689.751V689.751C379.224 627.486 429.7 577.01 491.965 577.01C554.23 577.01 604.706 627.486 604.706 689.751V689.751C604.706 689.751 604.706 689.751 604.707 689.751H693.894C694.999 689.751 695.894 688.856 695.894 687.751V497.77Z" fill="white"/>
<path d="M290.036 496.77H693.894V494.77H290.036V496.77ZM289.036 687.751V497.77H287.036V687.751H289.036ZM379.223 688.751H290.036V690.751H379.223V688.751ZM380.224 689.751C380.224 628.038 430.252 578.01 491.965 578.01V576.01C429.147 576.01 378.224 626.933 378.224 689.751H380.224ZM491.965 578.01C553.678 578.01 603.706 628.038 603.706 689.751H605.706C605.706 626.933 554.782 576.01 491.965 576.01V578.01ZM693.894 688.751H604.707V690.751H693.894V688.751ZM694.894 497.77V687.751H696.894V497.77H694.894ZM693.894 690.751C695.551 690.751 696.894 689.408 696.894 687.751H694.894C694.894 688.304 694.446 688.751 693.894 688.751V690.751ZM379.223 690.751C379.776 690.751 380.224 690.303 380.224 689.751H378.224C378.224 689.199 378.671 688.751 379.223 688.751V690.751ZM603.706 689.751C603.706 690.3 604.151 690.751 604.707 690.751V688.751C605.262 688.751 605.706 689.202 605.706 689.751H603.706ZM287.036 687.751C287.036 689.408 288.379 690.751 290.036 690.751V688.751C289.484 688.751 289.036 688.304 289.036 687.751H287.036ZM693.894 496.77C694.446 496.77 694.894 497.218 694.894 497.77H696.894C696.894 496.113 695.551 494.77 693.894 494.77V496.77ZM290.036 494.77C288.379 494.77 287.036 496.113 287.036 497.77H289.036C289.036 497.218 289.484 496.77 290.036 496.77V494.77Z" fill="#FFDC61" mask="url(#path-96-inside-12_173_90)"/>
<rect x="730.466" y="593.261" width="95.9906" height="95.9906" rx="1.5" fill="#FFDC61" stroke="#FFDC61"/>
<rect x="578.393" y="165.901" width="61.9873" height="203.453" rx="2" transform="rotate(75 578.393 165.901)" fill="white"/>
<rect x="475.89" y="214.251" width="21.6423" height="130.422" rx="2" transform="rotate(75 475.89 214.251)" fill="white"/>
<rect x="489.876" y="241.582" width="9.51118" height="130.422" rx="2" transform="rotate(16.6917 489.876 241.582)" fill="white"/>
<rect width="9.51118" height="130.422" rx="2" transform="matrix(-0.957864 0.287222 0.287222 0.957864 498.987 241.582)" fill="white"/>
<rect x="620.071" y="132.643" width="104.665" height="101.57" rx="2" transform="rotate(75 620.071 132.643)" fill="white"/>
<line x1="1534.85" y1="453.6" x2="1534.85" y2="833.471" stroke="white" stroke-width="2"/>
<line x1="1504.07" y1="453.6" x2="1504.07" y2="833.471" stroke="white" stroke-width="2"/>
<circle cx="1520.55" cy="418.501" r="19.3164" fill="#FFDC61"/>
<circle cx="2312.94" cy="418.501" r="19.3164" fill="#FFDC61"/>
</svg>
