<svg viewBox="0 0 1512 982" fill="none" xmlns="http://www.w3.org/2000/svg">
  <g clip-path="url(#prefix__clip0_72_347)">
    <path fill="#F6EFEF" d="M0 0h1512v982H0z" />
    <path fill-rule="evenodd" clip-rule="evenodd"
      d="M25 581.947a51.28 51.28 0 00.918-9.681c0-28.171-22.836-51.007-51.007-51.007-28.17 0-51.006 22.836-51.006 51.007 0 3.31.315 6.546.917 9.681 4.523-23.54 25.23-41.325 50.09-41.325 24.86 0 45.566 17.785 50.089 41.325z"
      fill="#ECD9D9" />
    <path fill-rule="evenodd" clip-rule="evenodd"
      d="M10.648 522.406a42.932 42.932 0 00-2.47-7.758c-9.24-21.698-34.322-31.797-56.02-22.556-21.699 9.24-31.798 34.322-22.557 56.02a42.935 42.935 0 003.883 7.157c-4.238-19.616 5.877-40.108 25.025-48.263 19.15-8.155 40.932-1.248 52.139 15.4z"
      fill="#ECD9D9" />
    <rect x="325.974" y="824.958" width="47.463" height="228.19" rx="1.5" fill="#E4A5B2" stroke="#F2EFEC" />
    <rect x="380.004" y="642.177" width="59.927" height="95.062" rx="1.5" transform="rotate(90 380.004 642.177)"
      fill="#ECD9D9" stroke="#F2EFEC" />
    <rect x="121.083" y="733.567" width="29.139" height="274.591" rx="14.569" transform="rotate(90 121.083 733.567)"
      fill="#ECD9D9" stroke="#F2EFEC" />
    <rect x="121.083" y="703.104" width="29.139" height="274.591" rx="14.569" transform="rotate(90 121.083 703.104)"
      fill="#ECD9D9" stroke="#F2EFEC" />
    <rect x="121.083" y="672.965" width="29.139" height="274.591" rx="14.569" transform="rotate(90 121.083 672.965)"
      fill="#E4A5B2" stroke="#F2EFEC" />
    <rect x="424.502" y="703.104" width="59.927" height="184.126" rx="1.5" transform="rotate(90 424.502 703.104)"
      fill="#99CEFF" stroke="#F2EFEC" />
    <rect x="458.433" y="368.005" width="59.927" height="390.816" rx="1.5" transform="rotate(90 458.433 368.005)"
      fill="#ECD9D9" stroke="#F2EFEC" />
    <rect x="509.94" y="581.25" width="59.927" height="355.001" rx="1.5" transform="rotate(90 509.94 581.25)"
      fill="#ECD9D9" stroke="#F2EFEC" />
    <rect x="332.973" y="428.933" width="40.464" height="151.092" rx="1.5" fill="#ECD9D9" stroke="#F2EFEC" />
    <rect x="291.509" y="428.933" width="40.464" height="151.092" rx="1.5" fill="#ECD9D9" stroke="#F2EFEC" />
    <rect x="607.774" y="764.031" width="59.927" height="1225.22" rx="1.5" transform="rotate(90 607.774 764.031)"
      fill="#ECD9D9" stroke="#F2EFEC" />
    <rect x="395.004" y="534.322" width="45.703" height="45.703" rx="1.5" fill="#CD273C" stroke="#F2EFEC" />
    <rect x="166.262" y="92.468" width="50.019" height="218.757" rx="1.5" fill="#ECD9D9" stroke="#F2EFEC" />
    <rect x="217.281" y="92.468" width="50.019" height="218.757" rx="1.5" fill="#E4A5B2" stroke="#F2EFEC" />
    <rect x="242.791" y="312.225" width="50.019" height="54.781" rx="1.5" fill="#ECD9D9" stroke="#F2EFEC" />
    <rect x="191.772" y="312.225" width="50.019" height="54.781" rx="1.5" fill="#89C78F" stroke="#F2EFEC" />
    <rect x="140.752" y="312.225" width="50.019" height="54.781" rx="1.5" fill="#ECD9D9" stroke="#F2EFEC" />
    <path
      d="M215.764 8.29a1.175 1.175 0 012.035 0l47.005 81.416a1.175 1.175 0 01-1.017 1.762h-94.011a1.175 1.175 0 01-1.017-1.762L215.764 8.29z"
      fill="#FFDC61" stroke="#F2EFEC" />
    <path
      d="M293.81 317.274c0-1.405 1.759-2.039 2.656-.957l25.95 31.326c.81.978.115 2.457-1.155 2.457H295.31a1.5 1.5 0 01-1.5-1.5v-31.326z"
      fill="#4E4ADC" stroke="#F2EFEC" />
    <path
      d="M139.752 317.274c0-1.405-1.758-2.039-2.655-.957l-25.951 31.326c-.81.978-.114 2.457 1.156 2.457h25.95a1.5 1.5 0 001.5-1.5v-31.326z"
      fill="#ECD9D9" stroke="#F2EFEC" />
    <path
      d="M99.247 581.796c18.942-33.014 50.669-39.203 65.823-38.179 1.014.068 1.766.927 1.766 1.943v19.45c0 1.105-.896 1.998-2 2.022-16.738.366-31.853 5.562-44.467 26.732-18.946 31.796-41.283 51.853-69.107 52.772-1.104.036-2.003-.863-2.003-1.967v-17.861c0-1.105.894-1.993 1.996-2.064 13.018-.841 29.249-10.182 47.992-42.848z"
      fill="#BB6E66" />
    <rect x="181.928" y="485.838" width="94.686" height="26.294" rx="2" transform="rotate(90 181.928 485.838)"
      fill="#ECD9D9" />
    <rect x="212.993" y="551.604" width="28.921" height="31.065" rx="2" transform="rotate(90 212.993 551.604)"
      fill="#ECD9D9" />
    <rect x="223.503" y="562.875" width="17.65" height="26.043" rx="2" transform="rotate(90 223.503 562.875)"
      fill="#ECD9D9" />
    <rect x="197.46" y="541.109" width="28.921" height="31.065" rx="2" transform="rotate(90 197.46 541.109)"
      fill="#ECD9D9" />
    <mask id="prefix__a" fill="#fff">
      <path
        d="M1153.54 700.749c1.1 0 2-.896 1.98-2a91.842 91.842 0 00-6.96-33.098 91.83 91.83 0 00-19.88-29.755 91.737 91.737 0 00-62.86-26.841c-1.1-.024-2 .874-2 1.978v49.553c0 1.105.9 1.995 2 2.053 4.33.227 8.59 1.19 12.61 2.852a38.226 38.226 0 0112.38 8.273 38.243 38.243 0 018.27 12.381 38.038 38.038 0 012.85 12.604c.06 1.103.95 2 2.06 2h49.55z" />
    </mask>
    <path
      d="M1153.54 700.749c1.1 0 2-.896 1.98-2a91.842 91.842 0 00-6.96-33.098 91.83 91.83 0 00-19.88-29.755 91.737 91.737 0 00-62.86-26.841c-1.1-.024-2 .874-2 1.978v49.553c0 1.105.9 1.995 2 2.053 4.33.227 8.59 1.19 12.61 2.852a38.226 38.226 0 0112.38 8.273 38.243 38.243 0 018.27 12.381 38.038 38.038 0 012.85 12.604c.06 1.103.95 2 2.06 2h49.55z"
      fill="#ECD9D9" stroke="#F2EFEC" stroke-width="2" mask="url(#prefix__a)" />
    <mask id="prefix__b" fill="#fff">
      <path
        d="M1063.82 611.033c0-1.104-.89-2.002-2-1.978a91.682 91.682 0 00-33.09 6.96 91.708 91.708 0 00-56.6 82.734c-.024 1.104.873 2 1.978 2h49.552c1.11 0 2-.897 2.05-2a38.051 38.051 0 012.86-12.604 37.936 37.936 0 018.27-12.381 38.17 38.17 0 0124.98-11.125c1.11-.058 2-.948 2-2.053v-49.553z" />
    </mask>
    <path
      d="M1063.82 611.033c0-1.104-.89-2.002-2-1.978a91.682 91.682 0 00-33.09 6.96 91.708 91.708 0 00-56.6 82.734c-.024 1.104.873 2 1.978 2h49.552c1.11 0 2-.897 2.05-2a38.051 38.051 0 012.86-12.604 37.936 37.936 0 018.27-12.381 38.17 38.17 0 0124.98-11.125c1.11-.058 2-.948 2-2.053v-49.553z"
      fill="#89C78F" stroke="#F2EFEC" stroke-width="2" mask="url(#prefix__b)" />
    <rect x="972.608" y="701.249" width="52.243" height="133.506" rx="1.5" fill="#ECD9D9" stroke="#F2EFEC" />
    <rect x="1102.8" y="701.249" width="52.243" height="133.506" rx="1.5" fill="#ECD9D9" stroke="#F2EFEC" />
    <rect x="884.999" y="897.006" width="47.463" height="116.834" rx="1.5" fill="#ECD9D9" stroke="#F2EFEC" />
    <rect x="1432.89" y="502.144" width="47.463" height="167.966" rx="1.5" fill="#ECD9D9" stroke="#F2EFEC" />
    <rect x="1416.71" y="500.878" width="12.168" height="169.065" rx="1.5" transform="rotate(4.62 1416.71 500.878)"
      fill="#ECD9D9" stroke="#F2EFEC" />
    <rect x="1428.65" y="701.249" width="47.463" height="133.83" rx="1.5" fill="#ECD9D9" stroke="#F2EFEC" />
    <rect x="1047.91" y="238.305" width="47.463" height="201.912" rx="1.5" fill="#E4A5B2" stroke="#F2EFEC" />
    <rect x="885" y="502.144" width="47.463" height="332.935" rx="1.5" fill="#ECD9D9" stroke="#F2EFEC" />
    <rect x="1465.48" y="286.884" width="59.927" height="95.062" rx="1.5" transform="rotate(90 1465.48 286.884)"
      fill="#89C78F" stroke="#F2EFEC" />
    <rect x="1494.46" y="671.11" width="29.139" height="95.062" rx="1.5" transform="rotate(90 1494.46 671.11)"
      fill="#BB6E66" stroke="#F2EFEC" />
    <rect x="1163.71" y="177.377" width="59.927" height="184.126" rx="1.5" transform="rotate(90 1163.71 177.377)"
      fill="#ECD9D9" stroke="#F2EFEC" />
    <rect x="2178.78" y="836.079" width="59.927" height="1356.02" rx="1.5" transform="rotate(90 2178.78 836.079)"
      fill="#ECD9D9" stroke="#F2EFEC" />
    <rect x="1597.17" y="441.217" width="59.927" height="774.399" rx="1.5" transform="rotate(90 1597.17 441.217)"
      fill="#ECD9D9" stroke="#F2EFEC" />
    <mask id="prefix__c" fill="#fff">
      <path fill-rule="evenodd" clip-rule="evenodd"
        d="M1516.14 349.311c0-1.105-.89-2-2-2h-192.39c-1.11 0-2 .895-2 2v89.406c0 1.104.89 2 2 2h39.91c1.1 0 1.99-.899 2.03-2.003 1.06-29.054 24.94-52.285 54.26-52.285 29.31 0 53.19 23.231 54.25 52.285.04 1.104.93 2.003 2.03 2.003h39.91c1.11 0 2-.896 2-2v-89.406z" />
    </mask>
    <path fill-rule="evenodd" clip-rule="evenodd"
      d="M1516.14 349.311c0-1.105-.89-2-2-2h-192.39c-1.11 0-2 .895-2 2v89.406c0 1.104.89 2 2 2h39.91c1.1 0 1.99-.899 2.03-2.003 1.06-29.054 24.94-52.285 54.26-52.285 29.31 0 53.19 23.231 54.25 52.285.04 1.104.93 2.003 2.03 2.003h39.91c1.11 0 2-.896 2-2v-89.406z"
      fill="#ECD9D9" />
    <path
      d="M1514.14 440.717v-1 1zm-152.48 0v-1 1zm2.03-2.003l-.99-.037.99.037zm-41.94 2.003v1-1zm150.45-2.003l-1 .036 1-.036zm2.03 2.003v1-1zm-152.48-92.406h192.39v-2h-192.39v2zm-1 90.406v-89.406h-2v89.406h2zm40.91 1h-39.91v2h39.91v-2zm3.03-.967c1.04-28.518 24.48-51.321 53.26-51.321v-2c-29.86 0-54.18 23.658-55.25 53.248l1.99.073zm53.26-51.321c28.77 0 52.21 22.803 53.25 51.321l2-.073c-1.08-29.59-25.4-53.248-55.25-53.248v2zm96.19 52.288h-39.91v2h39.91v-2zm1-90.406v89.406h2v-89.406h-2zm-1 92.406c1.66 0 3-1.344 3-3h-2c0 .552-.45 1-1 1v2zm-152.48 0c1.67 0 2.98-1.351 3.03-2.967l-1.99-.073c-.03.592-.5 1.04-1.04 1.04v2zm-42.91-3c0 1.656 1.34 3 3 3v-2c-.55 0-1-.448-1-1h-2zm195.39-90.406c.55 0 1 .447 1 1h2c0-1.657-1.34-3-3-3v2zm-42.94 90.439c.06 1.616 1.36 2.967 3.03 2.967v-2c-.54 0-1.01-.448-1.03-1.04l-2 .073zm-149.45-92.439c-1.66 0-3 1.343-3 3h2c0-.553.45-1 1-1v-2z"
      fill="#F2EFEC" mask="url(#prefix__c)" />
    <rect x="1120.07" y="394.514" width="45.703" height="45.703" rx="1.5" fill="#99CEFF" stroke="#F2EFEC" />
    <rect x="1118.01" y="347.811" width="45.703" height="45.703" rx="22.852" fill="#037843" stroke="#F2EFEC" />
    <rect x="1190.57" y="790.221" width="45.703" height="45.703" rx="1.5" fill="#4E4ADC" stroke="#F2EFEC" />
    <rect x="1459.56" y="188.472" width="29.848" height="97.967" rx="2" transform="rotate(75 1459.56 188.472)"
      fill="#ECD9D9" />
    <rect x="1410.21" y="211.753" width="10.421" height="62.801" rx="2" transform="rotate(75 1410.21 211.753)"
      fill="#ECD9D9" />
    <rect x="1416.94" y="224.914" width="4.58" height="62.801" rx="2" transform="rotate(16.692 1416.94 224.914)"
      fill="#ECD9D9" />
    <rect width="4.58" height="62.801" rx="2" transform="scale(-1 1) rotate(16.692 -1477.234 -4731.829)"
      fill="#ECD9D9" />
    <rect x="1479.63" y="172.457" width="50.398" height="48.908" rx="2" transform="rotate(75 1479.63 172.457)"
      fill="#ECD9D9" />
    <mask id="prefix__d" fill="#fff">
      <path fill-rule="evenodd" clip-rule="evenodd"
        d="M969.062 307.376a2 2 0 011.414-2.45l10.292-2.757a2 2 0 012.449 1.414l.869 3.242a1.176 1.176 0 01-.832 1.44c-.628.169-1 .814-.832 1.441l.683 2.551c.227.846.979 1.433 1.847 1.546 6.497.847 12.157 5.504 13.958 12.226 2.38 8.896-2.895 18.041-11.792 20.424-8.896 2.384-18.04-2.895-20.424-11.792-1.801-6.722.772-13.585 5.976-17.567.695-.532 1.052-1.416.826-2.262l-.684-2.551c-.168-.627-.813-1-1.441-.832a1.176 1.176 0 01-1.441-.831l-.868-3.242z" />
    </mask>
    <path fill-rule="evenodd" clip-rule="evenodd"
      d="M969.062 307.376a2 2 0 011.414-2.45l10.292-2.757a2 2 0 012.449 1.414l.869 3.242a1.176 1.176 0 01-.832 1.44c-.628.169-1 .814-.832 1.441l.683 2.551c.227.846.979 1.433 1.847 1.546 6.497.847 12.157 5.504 13.958 12.226 2.38 8.896-2.895 18.041-11.792 20.424-8.896 2.384-18.04-2.895-20.424-11.792-1.801-6.722.772-13.585 5.976-17.567.695-.532 1.052-1.416.826-2.262l-.684-2.551c-.168-.627-.813-1-1.441-.832a1.176 1.176 0 01-1.441-.831l-.868-3.242z"
      fill="#ECD9D9" />
    <path
      d="M984.952 313.803l.129-.991-.129.991zm-2.53-4.097l.966-.258-.966.258zm1.664-2.881l.966-.259-.966.259zm-.869-3.242l-.966.259.966-.259zm-2.191-.448l-10.291 2.757-.518-1.931 10.292-2.758.517 1.932zm2.094 3.948l-.869-3.241 1.932-.518.869 3.242-1.932.517zm.268 2.365l.683 2.551-1.931.517-.684-2.551 1.932-.517zm1.693 3.364c6.884.897 12.886 5.832 14.795 12.958l-1.932.518c-1.692-6.317-7.012-10.697-13.122-11.493l.259-1.983zm14.795 12.958c2.524 9.43-3.069 19.123-12.499 21.649l-.518-1.932c8.363-2.24 13.331-10.836 11.085-19.199l1.932-.518zm-12.499 21.649c-9.43 2.527-19.122-3.069-21.649-12.499l1.932-.518c2.241 8.363 10.837 13.326 19.199 11.085l.518 1.932zm-21.649-12.499c-1.91-7.126.82-14.401 6.334-18.62l1.215 1.588c-4.892 3.745-7.31 10.197-5.617 16.514l-1.932.518zm6.802-19.829l-.684-2.551 1.932-.517.683 2.551-1.931.517zm-2.502-7.974l.868 3.242-1.932.517-.868-3.241 1.932-.518zm1.602 5.298a2.177 2.177 0 01-2.666-1.539l1.932-.517c.025.094.122.15.216.124l.518 1.932zm.216.125a.177.177 0 00-.216-.125l-.518-1.932a2.177 2.177 0 012.666 1.54l-1.932.517zm.216 3.76c.415-.317.576-.803.468-1.209l1.931-.517c.345 1.284-.208 2.568-1.184 3.314l-1.215-1.588zm12.009-4.301c.109.406.492.745 1.01.813l-.259 1.983c-1.217-.159-2.338-.994-2.682-2.279l1.931-.517zm-.558-2.768a.177.177 0 00-.125.217l-1.932.517a2.176 2.176 0 011.539-2.665l.518 1.931zm1.539-2.665a2.176 2.176 0 01-1.539 2.665l-.518-1.931a.178.178 0 00.125-.217l1.932-.517zm-14.317-.674a1 1 0 00-.707 1.225l-1.932.518a3 3 0 012.121-3.674l.518 1.931zm9.774-4.689a3 3 0 013.674 2.121l-1.932.518a1 1 0 00-1.225-.707l-.517-1.932z"
      fill="#F2EFEC" mask="url(#prefix__d)" />
    <path fill="#ECD9D9"
      d="M904.393 445.095l13.26-49.49 2.776.744-13.26 49.49zM1003.62 440.003V302.716h2.873v137.287zM955.905 445.095l-13.26-49.49-2.776.744 13.26 49.49z" />
    <mask id="prefix__e" fill="#fff">
      <path fill-rule="evenodd" clip-rule="evenodd"
        d="M944.572 311.814a2 2 0 00-2-2h-25.124a2 2 0 00-2 2v8.982a2 2 0 002 2h.676a2 2 0 012 2v7.039c0 .875-.571 1.643-1.394 1.94-12.75 4.615-21.861 16.83-21.861 31.173 0 18.303 14.837 33.141 33.141 33.141s33.142-14.838 33.142-33.141c0-14.343-9.112-26.558-21.862-31.173-.823-.297-1.394-1.065-1.394-1.94v-7.039a2 2 0 012-2h.676a2 2 0 002-2v-8.982z" />
    </mask>
    <path fill-rule="evenodd" clip-rule="evenodd"
      d="M944.572 311.814a2 2 0 00-2-2h-25.124a2 2 0 00-2 2v8.982a2 2 0 002 2h.676a2 2 0 012 2v7.039c0 .875-.571 1.643-1.394 1.94-12.75 4.615-21.861 16.83-21.861 31.173 0 18.303 14.837 33.141 33.141 33.141s33.142-14.838 33.142-33.141c0-14.343-9.112-26.558-21.862-31.173-.823-.297-1.394-1.065-1.394-1.94v-7.039a2 2 0 012-2h.676a2 2 0 002-2v-8.982z"
      fill="#ECD9D9" />
    <path
      d="M941.29 333.775l.34-.94-.34.94zm-22.56 0l.34.941-.34-.941zm-1.282-22.961h25.124v-2h-25.124v2zm-1 9.982v-8.982h-2v8.982h2zm1.676 1h-.676v2h.676v-2zm1 3v7.039h2v-7.039h-2zm-.734 8.039c-13.134 4.753-22.521 17.336-22.521 32.113h2c0-13.909 8.834-25.756 21.201-30.232l-.68-1.881zm-22.521 32.113c0 18.856 15.285 34.141 34.141 34.141v-2c-17.751 0-32.141-14.39-32.141-32.141h-2zm34.141 34.141c18.856 0 34.142-15.285 34.142-34.141h-2c0 17.751-14.391 32.141-32.142 32.141v2zm34.142-34.141c0-14.777-9.388-27.36-22.522-32.113l-.68 1.881c12.367 4.476 21.202 16.323 21.202 30.232h2zm-23.256-33.113v-7.039h-2v7.039h2zm1.676-10.039h-.676v2h.676v-2zm1-9.982v8.982h2v-8.982h-2zm-1 11.982a3 3 0 003-3h-2a1 1 0 01-1 1v2zm-1.676 1a1 1 0 011-1v-2a3 3 0 00-3 3h2zm.734 8.039c-.451-.163-.734-.572-.734-1h-2c0 1.322.86 2.449 2.054 2.881l.68-1.881zm-22.506-1c0 .428-.283.837-.734 1l.68 1.881c1.194-.432 2.054-1.559 2.054-2.881h-2zm-1-8.039a1 1 0 011 1h2a3 3 0 00-3-3v2zm-3.676-3a3 3 0 003 3v-2a1 1 0 01-1-1h-2zm28.124-9.982a1 1 0 011 1h2a3 3 0 00-3-3v2zm-25.124-2a3 3 0 00-3 3h2a1 1 0 011-1v-2z"
      fill="#F2EFEC" mask="url(#prefix__e)" />
    <path fill="#ECD9D9"
      d="M900.507 389.698h59.007v2.873h-59.007zM966.294 313.279h37.33v2.873h-37.33zM986.395 437.13h37.33v2.873h-37.33z" />
    <path stroke="#ECD9D9" d="M1265.4 484.251v110.732" />
    <circle cx="1315.15" cy="632.744" r="21.637" fill="#ECD9D9" />
    <circle cx="1200.64" cy="573.347" r="21.637" fill="#ECD9D9" />
    <circle cx="1233.63" cy="654.381" r="14.231" fill="#ECD9D9" />
    <circle cx="1264.9" cy="594.983" r="6.98" fill="#E4A5B2" />
    <path stroke="#ECD9D9"
      d="M1201.14 484.251v80.72M1315.65 484.251v148.493M1234.13 484.251V643.84M1371.88 633.37c0 .082-.03.202-.17.368-.15.169-.39.361-.74.566-.71.41-1.79.822-3.22 1.224-2.86.8-7.02 1.527-12.19 2.139-10.33 1.224-24.62 1.982-40.41 1.982-15.79 0-30.08-.758-40.41-1.982-5.17-.612-9.33-1.339-12.19-2.139-1.43-.402-2.51-.814-3.22-1.224-.35-.205-.59-.397-.74-.566-.14-.166-.17-.286-.17-.368 0-.081.03-.201.17-.367.15-.17.39-.361.74-.566.71-.41 1.79-.822 3.22-1.224 2.86-.8 7.02-1.527 12.19-2.139 10.33-1.224 24.62-1.982 40.41-1.982 15.79 0 30.08.758 40.41 1.982 5.17.612 9.33 1.339 12.19 2.139 1.43.402 2.51.814 3.22 1.224.35.205.59.396.74.566.14.166.17.286.17.367zM1230.59 583.614c.06-.038.08-.063.08-.07 0-.009 0-.04-.03-.103-.04-.094-.13-.226-.29-.396-.32-.339-.85-.749-1.6-1.222-1.49-.942-3.75-2.067-6.61-3.302-5.72-2.468-13.79-5.347-22.86-8.049-9.07-2.702-17.4-4.71-23.54-5.774-3.07-.533-5.58-.825-7.34-.854-.89-.015-1.56.038-2.01.146-.23.055-.38.117-.46.173-.06.037-.08.062-.08.07m64.74 19.381l-64.74-19.384v.002m64.74 19.382c-.08.056-.23.118-.46.172-.45.109-1.12.161-2.01.147-1.76-.029-4.26-.322-7.34-.854-6.13-1.064-14.47-3.072-23.54-5.774-9.07-2.702-17.14-5.581-22.86-8.05-2.86-1.235-5.12-2.36-6.61-3.302-.75-.472-1.28-.883-1.6-1.222a1.479 1.479 0 01-.29-.396c-.03-.062-.03-.093-.03-.102m64.74 19.381l-64.74-19.38m0-.001v-.001m0 .001v.001m0-.002v.002m0-.002v.002m0 0v.001-.001zm64.82 19.312v-.002.002z" />
    <mask id="prefix__f" fill="#fff">
      <path
        d="M1118.35 176.878c0-6.133-1.21-12.206-3.56-17.873a46.532 46.532 0 00-10.12-15.151 46.794 46.794 0 00-15.15-10.124 46.717 46.717 0 00-35.75 0 46.794 46.794 0 00-15.15 10.124 46.532 46.532 0 00-10.12 15.151 46.658 46.658 0 00-3.56 17.873h93.41z" />
    </mask>
    <path
      d="M1118.35 176.878c0-6.133-1.21-12.206-3.56-17.873a46.532 46.532 0 00-10.12-15.151 46.794 46.794 0 00-15.15-10.124 46.717 46.717 0 00-35.75 0 46.794 46.794 0 00-15.15 10.124 46.532 46.532 0 00-10.12 15.151 46.658 46.658 0 00-3.56 17.873h93.41z"
      fill="#ECD9D9" stroke="#F2EFEC" stroke-width="2" mask="url(#prefix__f)" />
    <path fill="#ECD9D9" d="M1038.1 130.175l12.15-7.029 21.392 36.978-12.15 7.029z" />
    <path
      d="M1045.5 131.579c-10.68-20.585-41.86-54.548-81.197-25.731-49.173 36.023 5.718 69.758 9.148 56.607 3.431-13.151-38.095-13.357-34.878-3.431 7.024 21.678 39.206 60.985 14.866 74.332-44.569 24.437 21.156 38.881 23.443 74.331"
      stroke="#ECD9D9" stroke-width="2" />
  </g>
  <defs>
    <clipPath id="prefix__clip0_72_347">
      <path fill="#fff" d="M0 0h1512v982H0z" />
    </clipPath>
  </defs>
</svg>
