<svg width="436" height="12" viewBox="0 0 436 12" fill="none" xmlns="http://www.w3.org/2000/svg">
<path d="M1 6C8.23333 -0.666667 15.4667 -0.666667 22.7 6C29.9333 12.6667 37.1667 12.6667 44.4 6C51.6333 -0.666667 58.8667 -0.666667 66.1 6C73.3333 12.6667 80.5667 12.6667 87.8 6C95.0333 -0.666667 102.267 -0.666667 109.5 6C116.733 12.6667 123.967 12.6667 131.2 6C138.433 -0.666667 145.667 -0.666667 152.9 6C160.133 12.6667 167.367 12.6667 174.6 6C181.833 -0.666667 189.067 -0.666667 196.3 6C203.533 12.6667 210.767 12.6667 218 6C225.233 -0.666667 232.467 -0.666667 239.7 6C246.933 12.6667 254.167 12.6667 261.4 6C268.633 -0.666667 275.867 -0.666667 283.1 6C290.333 12.6667 297.567 12.6667 304.8 6C312.033 -0.666667 319.267 -0.666667 326.5 6C333.733 12.6667 340.967 12.6667 348.2 6C355.433 -0.666667 362.667 -0.666667 369.9 6C377.133 12.6667 384.367 12.6667 391.6 6C398.833 -0.666667 406.067 -0.666667 413.3 6C420.533 12.6667 427.767 12.6667 435 6" stroke="#FAD9D9" stroke-width="1.5"/>
</svg>
