<svg width="2388" height="960" viewBox="0 0 2388 960" fill="none" xmlns="http://www.w3.org/2000/svg">
<g clip-path="url(#clip0_32_5636)">
<rect width="2388" height="960" fill="#191919"/>
<path d="M701.255 138.275H406.664V432.864H701.255V138.275Z" fill="#262626"/>
<path d="M1337.5 449.742H1042.91V744.331H1337.5V449.742Z" fill="#262626"/>
<path d="M2283.86 908.56C2283.86 827.212 2217.91 761.266 2136.57 761.266V761.266C2055.22 761.266 1989.27 827.212 1989.27 908.56V908.56C1989.27 989.909 2055.22 1055.85 2136.57 1055.85V1055.85C2217.91 1055.85 2283.86 989.909 2283.86 908.56V908.56Z" fill="#262626"/>
<path d="M1019.38 761.268H724.785V1055.86H1019.38V761.268Z" fill="#262626"/>
<path d="M2609.98 449.867H2315.39V744.456H2609.98V449.867Z" fill="#262626"/>
<path d="M1019.38 -173.316H724.785V121.273H1019.38V-173.316Z" fill="#262626"/>
<path d="M1973.74 -173.316H1679.15V121.273H1973.74V-173.316Z" fill="#FF66FF"/>
<path d="M774.204 138.272L709.254 285.539L774.204 432.801H969.955L1034.91 285.539L969.955 138.272H774.204Z" fill="#262626"/>
<path d="M2038.69 138.272L1973.74 285.539L2038.69 432.801H2234.44L2299.39 285.539L2234.44 138.272H2038.69Z" fill="#262626"/>
<path d="M1410.45 449.802L1345.5 597.068L1410.45 744.331H1606.2L1671.15 597.068L1606.2 449.802H1410.45Z" fill="#262626"/>
<path d="M137.964 761.419L73.0135 908.685L137.964 1055.95H333.715L398.665 908.685L333.715 761.419H137.964Z" fill="#262626"/>
<path d="M701.255 597.16C701.255 515.814 635.313 449.864 553.96 449.864C472.614 449.864 406.664 515.814 406.664 597.16C406.664 678.513 472.614 744.456 553.96 744.456C635.313 744.456 701.255 678.513 701.255 597.16Z" fill="#0061FF"/>
<path d="M1655.62 -26.0208C1655.62 -107.366 1589.68 -173.316 1508.32 -173.316C1426.98 -173.316 1361.03 -107.366 1361.03 -26.0208C1361.03 55.3325 1426.98 121.275 1508.32 121.275C1589.68 121.275 1655.62 55.3325 1655.62 -26.0208Z" fill="#262626"/>
<path d="M2609.98 -26.0208C2609.98 -107.366 2544.04 -173.316 2462.69 -173.316C2381.34 -173.316 2315.39 -107.366 2315.39 -26.0208C2315.39 55.3325 2381.34 121.275 2462.69 121.275C2544.04 121.275 2609.98 55.3325 2609.98 -26.0208Z" fill="#262626"/>
<path d="M383.135 -26.0208C383.135 -107.366 317.193 -173.316 235.839 -173.316C154.494 -173.316 88.5437 -107.366 88.5437 -26.0208C88.5437 55.3325 154.494 121.275 235.839 121.275C317.193 121.275 383.135 55.3325 383.135 -26.0208Z" fill="#262626"/>
<path d="M1337.5 908.561C1337.5 827.216 1271.56 761.266 1190.2 761.266C1108.86 761.266 1042.91 827.216 1042.91 908.561C1042.91 989.915 1108.86 1055.86 1190.2 1055.86C1271.56 1055.86 1337.5 989.915 1337.5 908.561Z" fill="#262626"/>
<path d="M1973.74 597.16C1973.74 515.814 1907.8 449.864 1826.44 449.864C1745.1 449.864 1679.15 515.814 1679.15 597.16C1679.15 678.513 1745.1 744.456 1826.44 744.456C1907.8 744.456 1973.74 678.513 1973.74 597.16Z" fill="#262626"/>
<path d="M1655.62 285.506C1655.62 204.16 1589.68 138.21 1508.32 138.21C1426.98 138.21 1361.03 204.16 1361.03 285.506C1361.03 366.859 1426.98 432.801 1508.32 432.801C1589.68 432.801 1655.62 366.859 1655.62 285.506Z" fill="#262626"/>
<rect x="495.285" y="227.295" width="117.344" height="117.344" rx="58.6719" fill="#191919"/>
<rect x="1767.77" y="-84.6924" width="117.344" height="117.344" rx="58.6719" fill="#191919"/>
<rect x="1131.53" y="538.488" width="117.344" height="117.344" fill="#191919"/>
<rect x="2077.89" y="850.012" width="117.344" height="117.344" fill="#191919"/>
<path d="M1469.66 227.295L1444 285.475L1469.66 343.654H1546.99L1572.65 285.475L1546.99 227.295H1469.66Z" fill="#191919"/>
<path d="M515.293 538.98L489.633 597.161L515.293 655.34H592.628L618.287 597.161L592.628 538.98H515.293Z" fill="#191919"/>
<path d="M1542.94 900.452C1542.94 904.812 1544.23 908.531 1546.79 911.608C1549.35 914.942 1552.69 916.609 1556.79 916.609C1561.41 916.609 1565.51 914.429 1569.1 910.069L1615.26 855.831L1661.81 902.376L1508.32 1055.86L1354.84 902.376L1401 856.215L1447.16 910.069C1450.49 914.172 1454.47 916.224 1459.09 916.224C1463.19 916.224 1466.52 914.685 1469.09 911.608C1471.91 908.787 1473.32 905.197 1473.32 900.837L1473.32 761.268L1542.94 761.268L1542.94 900.452Z" fill="#FFC900"/>
<path d="M270.459 277.364C270.459 281.723 271.741 285.442 274.306 288.519C276.87 291.853 280.204 293.52 284.307 293.52C288.923 293.52 293.026 291.34 296.617 286.98L342.777 232.742L389.322 279.287L235.839 432.771L82.355 279.287L128.515 233.126L174.676 286.98C178.01 291.084 181.985 293.135 186.601 293.135C190.704 293.135 194.038 291.596 196.602 288.519C199.423 285.698 200.834 282.108 200.834 277.748L200.834 138.179L270.459 138.179L270.459 277.364Z" fill="#262626"/>
</g>
<defs>
<clipPath id="clip0_32_5636">
<rect width="2388" height="960" fill="white"/>
</clipPath>
</defs>
</svg>
